<?xml version="1.0" standalone="no"?>
<!DOCTYPE svg PUBLIC "-//W3C//DTD SVG 1.1//EN" "http://www.w3.org/Graphics/SVG/1.1/DTD/svg11.dtd" >
<svg xmlns="http://www.w3.org/2000/svg" xmlns:xlink="http://www.w3.org/1999/xlink" version="1.1">
<metadata>
Created by FontForge 20170731 at Sun Nov 28 13:59:28 2021
 By Aleksey,,,
Copyright 2014-2017 Indian Type Foundry (info@indiantypefoundry.com)
</metadata>
<defs>
<font id="Poppins-ExtraBoldItalic" horiz-adv-x="669" >
  <font-face 
    font-family="Poppins ExtraBold"
    font-weight="800"
    font-style="italic"
    font-stretch="normal"
    units-per-em="2048"
    panose-1="0 0 9 0 0 0 0 0 0 0"
    ascent="1638"
    descent="-410"
    x-height="1149"
    cap-height="1444"
    bbox="-1249 -1262 5149 2296"
    underline-thickness="102"
    underline-position="-307"
    slope="-10"
    unicode-range="U+000D-FB02"
  />
<missing-glyph horiz-adv-x="1024" 
d="M0 0v1434h1024v-1434h-1024zM512 809l348 522h-696zM573 717l349 -522v1044zM164 102h696l-348 523zM102 1239v-1044l349 522z" />
    <glyph glyph-name=".notdef" horiz-adv-x="1024" 
d="M0 0v1434h1024v-1434h-1024zM512 809l348 522h-696zM573 717l349 -522v1044zM164 102h696l-348 523zM102 1239v-1044l349 522z" />
    <glyph glyph-name=".null" horiz-adv-x="0" 
 />
    <glyph glyph-name="nonmarkingreturn" horiz-adv-x="682" 
 />
    <glyph glyph-name="NULL" horiz-adv-x="0" 
 />
    <glyph glyph-name="NULL" horiz-adv-x="0" 
 />
    <glyph glyph-name="CR" unicode="&#xd;" horiz-adv-x="411" 
 />
    <glyph glyph-name="space" unicode=" " horiz-adv-x="411" 
 />
    <glyph glyph-name="exclam" unicode="!" horiz-adv-x="866" 
d="M254 541l125 977h436l-217 -977h-344zM598 190q-15 -89 -90.5 -147.5t-179.5 -58.5q-106 0 -160 58.5t-39 147.5t91 149t181 60q104 0 158 -60t39 -149z" />
    <glyph glyph-name="quotedbl" unicode="&#x22;" horiz-adv-x="923" 
d="M219 1176l55 466h324l-111 -466h-268zM643 1176l55 466h324l-109 -466h-270z" />
    <glyph glyph-name="numbersign" unicode="#" horiz-adv-x="1882" 
d="M1100 647l92 234h-311l-93 -234h312zM848 0l110 283h-311l-110 -283h-375l110 283h-295l66 364h371l92 234h-287l64 364h364l107 271h374l-106 -271h311l107 271h375l-107 -271h246l-64 -364h-323l-92 -234h239l-65 -364h-316l-110 -283h-375z" />
    <glyph glyph-name="dollar" unicode="$" horiz-adv-x="1353" 
d="M465 -178l29 168q-223 21 -344 137.5t-97 316.5h430q-9 -106 68 -137l45 262q-9 3 -28 8q-85 24 -130.5 39.5t-117.5 53.5t-106 80.5t-54 116t-4 165.5q23 128 111 224.5t213.5 148t273.5 59.5l28 166h129l-28 -166q225 -18 339 -131.5t93 -314.5h-434q8 95 -56 125
l-45 -260q17 -5 51 -16q84 -26 128.5 -42t114 -54t102 -80t52 -112t3.5 -157q-30 -179 -194 -303t-414 -133l-29 -164h-129zM803 412q13 72 -84 116l-41 -231q50 9 83 39.5t42 75.5zM588 1051q-13 -71 71 -119l39 223q-98 -16 -110 -104z" />
    <glyph glyph-name="percent" unicode="%" horiz-adv-x="1751" 
d="M143 1112q31 172 146 264t274 92t240.5 -92t50.5 -264q-30 -171 -144 -263.5t-272 -92.5q-159 0 -242 92.5t-53 263.5zM520 1235q-83 0 -106 -123q-21 -121 61 -121q42 0 71.5 30.5t39.5 90.5q23 123 -66 123zM193 0l1032 1448h385l-1032 -1448h-385zM948 338
q31 172 146 264t272 92q158 0 239.5 -91.5t51.5 -264.5t-144 -265.5t-272 -92.5q-157 0 -240 93t-53 265zM1323 459q-85 0 -106 -121q-23 -123 63 -123t109 123q10 60 -7.5 90.5t-58.5 30.5z" />
    <glyph glyph-name="ampersand" unicode="&#x26;" horiz-adv-x="1683" 
d="M1274 1085h-373q2 8 2 21q0 34 -23 53t-57 19q-46 0 -78 -29.5t-32 -77.5q0 -71 71 -156l283 -329q30 45 55 88l52 74h397l-78 -115q-101 -168 -215 -297l287 -336h-455l-96 111q-221 -134 -488 -134q-234 0 -370 100.5t-136 270.5q0 156 101.5 281t271.5 202
q-61 94 -61 189q0 195 151.5 315.5t384.5 120.5q198 0 305 -87.5t107 -221.5q0 -27 -6 -62zM610 299q104 0 199 45l-238 272q-66 -37 -101.5 -86t-35.5 -102q0 -57 46 -93t130 -36z" />
    <glyph glyph-name="quotesingle" unicode="'" horiz-adv-x="497" 
d="M219 1176l55 466h324l-111 -466h-268z" />
    <glyph glyph-name="parenleft" unicode="(" horiz-adv-x="962" 
d="M778 -449h-391q-123 139 -187.5 346t-64.5 455q0 276 78.5 557t231.5 530t356 412h393l-8 -36q-300 -261 -480 -640t-180 -767q0 -236 66.5 -447.5t191.5 -372.5z" />
    <glyph glyph-name="parenright" unicode=")" horiz-adv-x="962" 
d="M870 1042q0 -274 -77.5 -553.5t-227.5 -527.5t-350 -410h-391l6 37q297 263 473 638t176 759q0 239 -68 454t-198 376l6 36h391q127 -140 193.5 -349.5t66.5 -459.5z" />
    <glyph glyph-name="asterisk" unicode="*" horiz-adv-x="1122" 
d="M866 1520l-102 -256l233 174l86 -228l-254 -82l228 -77l-180 -238l-160 178l10 -254h-262l96 254l-219 -182l-96 244l252 82l-222 73l166 228l170 -172l-14 256h268z" />
    <glyph glyph-name="plus" unicode="+" horiz-adv-x="1206" 
d="M524 1229h385l-59 -340h330l-64 -367h-332l-59 -338h-385l59 338h-329l65 367h330z" />
    <glyph glyph-name="comma" unicode="," horiz-adv-x="653" 
d="M-106 -319l247 706h406l-389 -706h-264z" />
    <glyph glyph-name="hyphen" unicode="-" horiz-adv-x="1183" 
d="M66 543l59 334h928l-60 -334h-927z" />
    <glyph glyph-name="period" unicode="." horiz-adv-x="616" 
d="M473 190q-15 -89 -90.5 -147.5t-179.5 -58.5q-106 0 -160 58.5t-39 147.5t91 149t181 60q104 0 158 -60t39 -149z" />
    <glyph glyph-name="slash" unicode="/" horiz-adv-x="872" 
d="M-201 -395l963 2345h387l-961 -2345h-389z" />
    <glyph glyph-name="zero" unicode="0" horiz-adv-x="1345" 
d="M106 745q29 163 85.5 293.5t143.5 231.5t213 156t283 55q126 0 220.5 -36t151 -102t87 -157.5t29.5 -202.5t-21 -238q-29 -163 -85.5 -294.5t-143.5 -232t-213.5 -155.5t-282.5 -55q-126 0 -220.5 36t-151 101.5t-87 157t-29.5 203t21 239.5zM901 745q9 52 13.5 91.5
t5 83t-8 74.5t-25 56.5t-47 38.5t-73.5 13q-52 0 -93 -20t-67.5 -51t-47.5 -80.5t-33 -96t-23 -109.5q-9 -52 -13.5 -92t-5 -83.5t8 -74.5t25.5 -56.5t48 -38.5t74 -13q52 0 92.5 20t66.5 50.5t47 81t32.5 96t23.5 110.5z" />
    <glyph glyph-name="one" unicode="1" horiz-adv-x="792" 
d="M145 0l189 1075h-211l67 375h631l-256 -1450h-420z" />
    <glyph glyph-name="two" unicode="2" horiz-adv-x="1165" 
d="M-31 20l54 302q84 58 131 91t123.5 88.5t122 92t106.5 87t97.5 89.5t73 83t56.5 84.5t27 78.5q23 137 -88 137q-59 0 -96 -45.5t-58 -151.5h-389q29 138 93 243.5t150 167.5t183.5 93t204.5 31q87 0 157 -16.5t117.5 -46.5t81.5 -71t48.5 -89.5t19 -103t-7.5 -111.5
q-15 -85 -59.5 -170.5t-103.5 -157.5t-137.5 -143t-154.5 -127t-162 -109h512l-57 -326h-1045z" />
    <glyph glyph-name="three" unicode="3" horiz-adv-x="1249" 
d="M180 1051q49 231 206.5 355t397.5 124q157 0 261.5 -55.5t144 -148t18.5 -208.5q-12 -73 -43.5 -133.5t-73 -99.5t-82 -63.5t-81.5 -37.5v-8q229 -90 184 -352q-34 -196 -188.5 -316t-386.5 -120q-124 0 -218.5 29t-159 89t-89 157.5t-4.5 228.5h391q-15 -82 14.5 -127.5
t106.5 -45.5q58 0 100 38t51 98q14 78 -30 114.5t-158 36.5h-70l59 326h68q185 -5 211 137q10 63 -14.5 95t-77.5 32q-62 0 -97 -42t-47 -103h-393z" />
    <glyph glyph-name="four" unicode="4" horiz-adv-x="1415" 
d="M666 0l43 246h-664l57 332l787 897h440l-153 -881h157l-61 -348h-158l-45 -246h-403zM518 594h283l76 428z" />
    <glyph glyph-name="five" unicode="5" horiz-adv-x="1341" 
d="M352 1497h979l-61 -354h-617l-41 -228q49 41 120.5 66t152.5 25q90 0 160 -27t111.5 -73t66.5 -108t26 -133t-10 -147q-43 -243 -204 -380.5t-406 -137.5q-255 0 -378.5 127.5t-90.5 333.5h393q-3 -48 26 -82.5t95 -34.5q73 0 118.5 49t59.5 131q13 81 -18.5 122.5
t-104.5 41.5q-55 0 -93.5 -27.5t-53.5 -68.5h-389z" />
    <glyph glyph-name="six" unicode="6" horiz-adv-x="1300" 
d="M1249 1067h-375q-2 69 -28 102t-88 33q-98 0 -153 -91t-89 -282q53 64 137 101t178 37q199 0 297 -123t58 -352t-203.5 -365.5t-404.5 -136.5q-134 0 -227.5 38t-144.5 103t-72 163.5t-16.5 207t29.5 246.5q70 401 234 589.5t455 188.5q98 0 174 -25.5t124 -69t77 -103
t37.5 -124.5t0.5 -137zM678 655q-71 0 -124.5 -41t-66.5 -116q-13 -81 23 -123.5t115 -42.5q73 0 122 42t62 120q14 75 -20.5 118t-110.5 43z" />
    <glyph glyph-name="seven" unicode="7" horiz-adv-x="1071" 
d="M207 1473h987l-51 -295l-725 -1178h-416l725 1130h-580z" />
    <glyph glyph-name="eight" unicode="8" horiz-adv-x="1337" 
d="M362 817q-164 102 -126 316q14 78 59.5 150t118.5 131.5t183.5 95.5t240.5 36q88 0 162 -16.5t125 -46t90 -69t57 -85t25.5 -96t-3.5 -100.5q-20 -110 -83 -190t-156 -126q196 -114 153 -364q-28 -151 -125.5 -262t-233 -164.5t-290.5 -53.5q-115 0 -210.5 31.5
t-162.5 90.5t-95.5 151.5t-8.5 206.5q43 250 280 364zM780 1219q-61 0 -105.5 -40.5t-56.5 -111.5q-12 -70 19 -108.5t90 -38.5t104 38.5t58 108.5q12 71 -18.5 111.5t-90.5 40.5zM678 645q-78 0 -134 -46.5t-71 -125.5q-11 -75 26.5 -122.5t118.5 -47.5q80 0 135.5 48
t67.5 122q13 78 -26 125t-117 47z" />
    <glyph glyph-name="nine" unicode="9" horiz-adv-x="1241" 
d="M96 453h375q3 -140 127 -140q92 0 141.5 87t83.5 280q-51 -60 -131 -94.5t-170 -34.5q-199 0 -299.5 122t-60.5 351q42 230 204 365t404 135q131 0 222.5 -35t143 -97t73.5 -156.5t18.5 -202t-27.5 -245.5q-35 -197 -86.5 -340t-129.5 -248.5t-188.5 -157.5t-256.5 -52
q-99 0 -178.5 25.5t-131.5 69.5t-85 103.5t-44.5 126t-3.5 138.5zM672 862q71 0 119.5 42t62.5 114q13 81 -21 122.5t-108 41.5t-123.5 -42.5t-62.5 -119.5q-12 -72 23 -115t110 -43z" />
    <glyph glyph-name="colon" unicode=":" horiz-adv-x="618" 
d="M473 190q-15 -89 -90.5 -147.5t-179.5 -58.5q-106 0 -160 58.5t-39 147.5t91 149t181 60q104 0 158 -60t39 -149zM473 1014q-15 -89 -90.5 -148t-179.5 -59q-105 0 -159.5 59t-39.5 148t91 149t181 60q104 0 158 -60t39 -149z" />
    <glyph glyph-name="semicolon" unicode=";" horiz-adv-x="749" 
d="M659 989q-15 -89 -90.5 -148t-179.5 -59q-105 0 -159.5 59t-39.5 148t91.5 149t181.5 60q104 0 157.5 -59.5t38.5 -149.5zM-104 -319l247 706h406l-389 -706h-264z" />
    <glyph glyph-name="less" unicode="&#x3c;" horiz-adv-x="1073" 
d="M602 707l316 -447h-504l-314 447l471 448h504z" />
    <glyph glyph-name="equal" unicode="=" horiz-adv-x="1353" 
d="M31 250l63 364h1176l-64 -364h-1175zM127 799l66 362h1173l-63 -362h-1176z" />
    <glyph glyph-name="greater" unicode="&#x3e;" horiz-adv-x="1062" 
d="M29 260l471 447l-314 448h502l316 -448l-474 -447h-501z" />
    <glyph glyph-name="question" unicode="?" horiz-adv-x="1101" 
d="M139 1098q13 94 58 175t117 143t177.5 98t231.5 36q223 0 338 -114.5t78 -327.5q-33 -187 -176.5 -296t-346.5 -112l-36 -149h-355l60 407h147q143 0 222.5 34t90.5 118q9 53 -15.5 83t-72.5 30q-58 0 -94 -34.5t-45 -90.5h-379zM575 190q-15 -89 -90.5 -147.5
t-179.5 -58.5q-106 0 -160 58.5t-39 147.5t91.5 149t181.5 60q104 0 157.5 -59.5t38.5 -149.5z" />
    <glyph glyph-name="at" unicode="@" horiz-adv-x="2238" 
d="M1544 -10q-111 0 -185.5 42t-105.5 120q-54 -80 -141 -123t-194 -43q-151 0 -236.5 87.5t-85.5 245.5q0 148 57.5 277.5t164.5 210t239 80.5q169 0 225 -125l18 112h318l-84 -483q-13 -69 1 -105t64 -36q47 0 83.5 32.5t58 87.5t32.5 121.5t11 139.5q0 225 -147 357
t-404 132q-170 0 -321 -64.5t-257.5 -173.5t-168.5 -259.5t-62 -317.5q0 -239 139 -376.5t387 -137.5q210 0 373 72l66 -254q-209 -90 -465 -90q-239 0 -419.5 92.5t-279 264.5t-98.5 400q0 238 88 445t239.5 352.5t362.5 229t451 83.5q184 0 337 -54.5t258.5 -152
t163.5 -235t58 -301.5q0 -133 -35.5 -250.5t-102 -207.5t-171 -142.5t-232.5 -52.5zM1225 475q0 59 -31.5 95t-85.5 36q-72 0 -122 -62.5t-50 -150.5q0 -58 30 -91.5t83 -33.5q70 0 123 60.5t53 146.5z" />
    <glyph glyph-name="A" unicode="A" horiz-adv-x="1546" 
d="M1004 0l-37 236h-512l-119 -236h-422l780 1444h463l270 -1444h-423zM920 541l-72 469l-238 -469h310z" />
    <glyph glyph-name="B" unicode="B" horiz-adv-x="1374" 
d="M879 451q10 66 -23.5 100.5t-107.5 34.5h-232l-45 -264h234q151 0 174 129zM942 995q21 129 -127 129h-203l-45 -256h203q151 0 172 127zM1278 393q-31 -184 -176 -288.5t-377 -104.5h-715l256 1444h692q221 0 330 -98t78 -277q-22 -126 -105 -212t-198 -116
q123 -29 181 -126t34 -222z" />
    <glyph glyph-name="C" unicode="C" horiz-adv-x="1552" 
d="M90 725q38 214 155.5 380t298 259.5t394.5 93.5q270 0 429.5 -144.5t168.5 -391.5h-432q-25 79 -87 122t-151 43q-138 0 -238.5 -98.5t-129.5 -263.5q-29 -166 37 -265.5t204 -99.5q89 0 165.5 43t129.5 123h434q-99 -248 -309.5 -392t-480.5 -144q-214 0 -361 93.5
t-206 260t-21 381.5z" />
    <glyph glyph-name="D" unicode="D" horiz-adv-x="1505" 
d="M838 1444q170 0 302.5 -53t212.5 -148t109.5 -228.5t1.5 -291.5q-28 -156 -104.5 -289t-190 -229t-265 -150.5t-322.5 -54.5h-572l256 1444h572zM475 352h139q175 0 293 97t150 274q30 178 -53.5 275.5t-258.5 97.5h-137z" />
    <glyph glyph-name="E" unicode="E" horiz-adv-x="1122" 
d="M1190 1444l-55 -318h-523l-41 -239h461l-55 -305h-461l-47 -263h522l-55 -319h-926l256 1444h924z" />
    <glyph glyph-name="F" unicode="F" horiz-adv-x="1148" 
d="M10 0l256 1444h979l-55 -320h-578l-45 -254h424l-53 -305h-424l-100 -565h-404z" />
    <glyph glyph-name="G" unicode="G" horiz-adv-x="1550" 
d="M90 725q38 214 157 380t302 259.5t401 93.5q272 0 427.5 -131t158.5 -358h-432q-48 118 -217 118q-150 0 -255 -98t-134 -264q-32 -186 43.5 -283.5t253.5 -97.5q210 0 335 191h-403l51 288h750l-70 -389q-49 -84 -120 -159.5t-165.5 -141t-219 -104.5t-259.5 -39
q-219 0 -369.5 93.5t-211.5 260t-23 381.5z" />
    <glyph glyph-name="H" unicode="H" horiz-adv-x="1521" 
d="M901 0l103 580h-488l-102 -580h-404l256 1444h402l-97 -545h490l96 545h402l-254 -1444h-404z" />
    <glyph glyph-name="I" unicode="I" horiz-adv-x="630" 
d="M10 0l256 1444h402l-254 -1444h-404z" />
    <glyph glyph-name="J" unicode="J" horiz-adv-x="1196" 
d="M653 487l168 957h402l-168 -957q-43 -244 -198 -372.5t-386 -128.5q-246 0 -368.5 137.5t-77.5 394.5h399q-31 -170 94 -170q107 0 135 139z" />
    <glyph glyph-name="K" unicode="K" horiz-adv-x="1486" 
d="M866 0l-342 635l-110 -635h-404l256 1444h402l-111 -625l559 625h463l-653 -703l426 -741h-486z" />
    <glyph glyph-name="L" unicode="L" horiz-adv-x="1005" 
d="M266 1444h402l-199 -1139h449l-56 -305h-852z" />
    <glyph glyph-name="M" unicode="M" horiz-adv-x="1914" 
d="M10 0l256 1444h486l198 -936l518 936h484l-256 -1444h-400l142 799l-416 -799h-336l-131 803l-141 -803h-404z" />
    <glyph glyph-name="N" unicode="N" horiz-adv-x="1566" 
d="M1202 1444h402l-254 -1444h-404l-389 807l-143 -807h-404l256 1444h402l391 -817z" />
    <glyph glyph-name="O" unicode="O" horiz-adv-x="1611" 
d="M1567 866q0 -255 -107.5 -455t-303.5 -312.5t-447 -112.5q-277 0 -445 167t-168 437q0 256 107.5 455.5t301.5 310t443 110.5q283 0 451 -165t168 -435zM494 637q0 -130 71.5 -204.5t204.5 -74.5q121 0 213.5 65t139 168.5t46.5 227.5q0 130 -70.5 203.5t-201.5 73.5
q-121 0 -214.5 -64t-141 -167.5t-47.5 -227.5z" />
    <glyph glyph-name="P" unicode="P" horiz-adv-x="1302" 
d="M557 805h160q169 0 196 158q27 159 -141 159h-160zM1321 963q-16 -96 -64.5 -181t-125 -151.5t-188.5 -105t-245 -38.5h-198l-86 -487h-404l256 1444h600q174 0 286.5 -62.5t153 -169.5t15.5 -249z" />
    <glyph glyph-name="Q" unicode="Q" horiz-adv-x="1613" 
d="M494 637q0 -130 71.5 -204.5t204.5 -74.5q121 0 213.5 65t139 168.5t46.5 227.5q0 130 -70.5 203.5t-201.5 73.5q-121 0 -214.5 -64t-141 -167.5t-47.5 -227.5zM1567 866q0 -236 -94 -426t-263 -307l228 -375h-480l-114 236q-57 -8 -135 -8q-277 0 -445 167t-168 437
q0 256 107.5 455.5t301.5 310t443 110.5q283 0 451 -165t168 -435z" />
    <glyph glyph-name="R" unicode="R" horiz-adv-x="1353" 
d="M944 958q12 70 -22 111t-115 41h-199l-51 -303h199q161 0 188 151zM266 1444h633q131 0 228.5 -36t152.5 -99t74.5 -146.5t1.5 -181.5q-26 -147 -126 -258.5t-265 -159.5l225 -563h-447l-192 532h-43l-94 -532h-404z" />
    <glyph glyph-name="S" unicode="S" horiz-adv-x="1294" 
d="M1182 438q0 -198 -155.5 -325t-418.5 -127q-131 0 -236.5 29t-181 85.5t-111 145.5t-22.5 203h424q-6 -70 28.5 -109t106.5 -39q59 0 95.5 26.5t36.5 75.5q0 42 -33 75.5t-86 58.5t-117 51t-128 60t-117 77t-86.5 111t-33.5 153q-1 224 160.5 350.5t421.5 126.5
q164 0 287 -52.5t186.5 -155.5t48.5 -240h-432q10 61 -20 97t-92 36q-55 0 -89 -27.5t-34 -76.5q0 -39 33 -73t85.5 -61t116.5 -55.5t128 -66t116.5 -83t85.5 -115.5t33 -155z" />
    <glyph glyph-name="T" unicode="T" horiz-adv-x="1236" 
d="M129 1124l57 320h1168l-58 -320h-383l-198 -1124h-404l199 1124h-381z" />
    <glyph glyph-name="U" unicode="U" horiz-adv-x="1458" 
d="M113 606l147 838h399l-145 -838q-21 -114 21 -177.5t153 -63.5t178 63.5t88 177.5l148 838h401l-147 -838q-27 -154 -96.5 -274t-168 -195t-218.5 -113t-255 -38q-132 0 -236 39t-174.5 116.5t-95.5 194t1 270.5z" />
    <glyph glyph-name="V" unicode="V" horiz-adv-x="1529" 
d="M406 0l-244 1444h428l143 -1041l510 1041h428l-753 -1444h-512z" />
    <glyph glyph-name="W" unicode="W" horiz-adv-x="2203" 
d="M301 0l-94 1444h434l-4 -987l399 987h441l47 -983l342 983h434l-608 -1444h-494l-43 887l-360 -887h-494z" />
    <glyph glyph-name="X" unicode="X" horiz-adv-x="1513" 
d="M913 0l-206 408l-314 -408h-456l600 739l-361 705h473l203 -397l303 397h457l-590 -729l364 -715h-473z" />
    <glyph glyph-name="Y" unicode="Y" horiz-adv-x="1435" 
d="M494 459l-334 985h458l156 -559l352 559h453l-682 -985l-82 -459h-401z" />
    <glyph glyph-name="Z" unicode="Z" horiz-adv-x="1255" 
d="M1305 1444l-54 -305l-745 -813h600l-55 -326h-1051l53 305l738 815h-594l57 324h1051z" />
    <glyph glyph-name="bracketleft" unicode="[" horiz-adv-x="1069" 
d="M39 -444l405 2302h699l-58 -326h-319l-293 -1651h322l-58 -325h-698z" />
    <glyph glyph-name="backslash" unicode="\" horiz-adv-x="1183" 
d="M776 1950l86 -2345h-385l-88 2345h387z" />
    <glyph glyph-name="bracketright" unicode="]" horiz-adv-x="1067" 
d="M375 1851h698l-405 -2300h-699l58 326h319l293 1651h-322z" />
    <glyph glyph-name="asciicircum" unicode="^" horiz-adv-x="1501" 
d="M1001 334l-176 655l-411 -655h-402l697 1114h393l301 -1114h-402z" />
    <glyph glyph-name="underscore" unicode="_" horiz-adv-x="1581" 
d="M-49 -475l69 389h1326l-68 -389h-1327z" />
    <glyph glyph-name="grave" unicode="`" horiz-adv-x="628" 
d="M170 1427l53 304l471 -232l-49 -272z" />
    <glyph glyph-name="a" unicode="a" horiz-adv-x="1392" 
d="M47 575q32 179 122 314t212.5 204.5t259.5 69.5q119 0 196.5 -47t108.5 -127l29 160h401l-202 -1149h-402l29 160q-59 -79 -155 -126.5t-214 -47.5q-210 0 -320.5 160t-64.5 429zM874 575q20 111 -28 174.5t-137 63.5q-91 0 -162 -62.5t-90 -175.5q-21 -111 28 -175
t138 -64q90 0 160.5 63t90.5 176z" />
    <glyph glyph-name="b" unicode="b" horiz-adv-x="1392" 
d="M588 989q61 81 155 127.5t211 46.5q211 0 322 -159.5t65 -428.5q-24 -135 -82 -246.5t-137.5 -186t-175.5 -115.5t-198 -41q-118 0 -196 46.5t-110 127.5l-28 -160h-404l269 1516h403zM932 575q21 112 -28 175t-138 63t-161 -63.5t-91 -174.5q-19 -113 29 -176t137 -63
q90 0 161 63.5t91 175.5z" />
    <glyph glyph-name="c" unicode="c" horiz-adv-x="1243" 
d="M47 575q49 271 237.5 429.5t448.5 158.5q220 0 349 -119.5t135 -334.5h-429q-16 112 -124 112q-76 0 -131 -63t-76 -183q-21 -121 12.5 -184t108.5 -63q110 0 161 112h428q-79 -213 -250.5 -333.5t-392.5 -120.5q-127 0 -226.5 41t-163 115.5t-87 186t-0.5 246.5z" />
    <glyph glyph-name="d" unicode="d" horiz-adv-x="1392" 
d="M47 575q32 179 122 314t213 204.5t261 69.5q112 0 190 -46t113 -126l92 525h404l-268 -1516h-404l31 160q-61 -80 -156 -127t-211 -47q-211 0 -322 160t-65 429zM874 575q20 111 -28 174.5t-137 63.5q-91 0 -162 -62.5t-90 -175.5q-21 -111 28 -175t138 -64
q90 0 160.5 63t90.5 176z" />
    <glyph glyph-name="e" unicode="e" horiz-adv-x="1261" 
d="M676 846q-76 0 -131.5 -43.5t-81.5 -126.5h356q14 82 -27.5 126t-115.5 44zM1153 397q-70 -180 -242 -295.5t-385 -115.5q-127 0 -227 41t-164 115.5t-87.5 186t-0.5 246.5q49 271 238 429.5t450 158.5q258 0 391 -155t88 -418q-12 -64 -24 -94h-760q-10 -96 28 -142.5
t109 -46.5q101 0 160 90h426z" />
    <glyph glyph-name="f" unicode="f" horiz-adv-x="763" 
d="M49 0l144 815h-125l59 334h125l2 10q43 239 213 357t444 98l-59 -342q-90 9 -135 -19t-62 -104h181l-60 -334h-180l-143 -815h-404z" />
    <glyph glyph-name="g" unicode="g" horiz-adv-x="1392" 
d="M47 575q32 179 122 314t212.5 204.5t259.5 69.5q118 0 196.5 -47t108.5 -127l29 160h401l-200 -1137q-21 -119 -72 -220.5t-133 -182.5t-204.5 -127.5t-272.5 -46.5q-266 0 -404 124.5t-123 340.5h395q3 -55 47 -86t121 -31q204 0 244 229l27 148q-59 -79 -155 -126.5
t-212 -47.5q-211 0 -322 160t-65 429zM874 575q20 111 -28 174.5t-137 63.5q-91 0 -162 -62.5t-90 -175.5q-21 -111 28 -175t138 -64q90 0 160.5 63t90.5 176z" />
    <glyph glyph-name="h" unicode="h" horiz-adv-x="1404" 
d="M10 0l269 1516h403l-94 -531q67 78 165.5 126t217.5 48q198 0 291 -131.5t53 -357.5l-119 -670h-401l108 616q19 99 -22.5 155t-130.5 56q-84 0 -143 -51t-81 -143l-112 -633h-404z" />
    <glyph glyph-name="i" unicode="i" horiz-adv-x="630" 
d="M10 0l205 1149h401l-202 -1149h-404zM436 1255q-105 0 -159 58.5t-39 146.5q15 90 90 149.5t180 59.5q104 0 159 -60t40 -149q-15 -88 -91 -146.5t-180 -58.5z" />
    <glyph glyph-name="j" unicode="j" horiz-adv-x="628" 
d="M434 1255q-105 0 -160.5 58.5t-40.5 146.5q15 89 91.5 149t181.5 60q104 0 157.5 -59.5t38.5 -149.5q-15 -88 -89.5 -146.5t-178.5 -58.5zM215 1149h401l-223 -1262q-73 -436 -514 -436h-145l59 342h86q52 0 78 21t35 67z" />
    <glyph glyph-name="k" unicode="k" horiz-adv-x="1325" 
d="M10 0l269 1516h403l-143 -816l395 449h481l-555 -578l359 -571h-490l-231 469l-84 -469h-404z" />
    <glyph glyph-name="l" unicode="l" horiz-adv-x="630" 
d="M10 0l269 1516h403l-268 -1516h-404z" />
    <glyph glyph-name="m" unicode="m" horiz-adv-x="2185" 
d="M1577 0l109 616q15 93 -27 144t-129 51q-83 0 -141 -44t-78 -126l-115 -641h-401l108 616q17 93 -24.5 144t-128.5 51q-90 0 -150.5 -49t-75.5 -135l-110 -627h-404l205 1149h401l-26 -150q63 73 156.5 116.5t205.5 43.5q127 0 216.5 -55t127.5 -156q78 94 188.5 152.5
t231.5 58.5q217 0 318 -131t61 -358l-119 -670h-399z" />
    <glyph glyph-name="n" unicode="n" horiz-adv-x="1404" 
d="M795 0l108 616q19 99 -22.5 155t-130.5 56q-88 0 -148.5 -54t-77.5 -146l-110 -627h-404l205 1149h401l-28 -164q67 78 165.5 126t215.5 48q198 0 292 -132t54 -357l-119 -670h-401z" />
    <glyph glyph-name="o" unicode="o" horiz-adv-x="1302" 
d="M1264 680q0 -198 -94 -357.5t-258 -248t-367 -88.5q-228 0 -368 131t-140 350q0 147 54.5 276.5t149 221.5t228 145t285.5 53q227 0 368.5 -132.5t141.5 -350.5zM451 506q0 -86 42 -130t113 -44q73 0 130 47t85.5 117t28.5 145q0 87 -44 131.5t-114 44.5q-109 0 -175 -95
t-66 -216z" />
    <glyph glyph-name="p" unicode="p" horiz-adv-x="1392" 
d="M588 989q61 80 155.5 127t210.5 47q211 0 322 -159.5t65 -428.5q-24 -135 -82 -246.5t-137.5 -186t-175.5 -115.5t-198 -41q-116 0 -194 47.5t-112 126.5l-125 -709h-401l299 1698h401zM932 575q21 112 -28 175t-138 63t-161 -63.5t-91 -174.5q-19 -113 29 -176t137 -63
q90 0 161 63.5t91 175.5z" />
    <glyph glyph-name="q" unicode="q" horiz-adv-x="1392" 
d="M47 569q30 170 124.5 306t225 210t269.5 74q202 0 288 -127l21 117h401l-299 -1698h-401l121 684q-152 -149 -340 -149q-103 0 -189 42t-142.5 119t-79 184t0.5 238zM874 575q21 116 -32 176t-133 60q-37 0 -75.5 -14.5t-75 -42.5t-64.5 -76t-39 -109q-10 -61 1 -107.5
t38 -73t59.5 -39.5t69.5 -13t75 14t74 41.5t63.5 75t38.5 108.5z" />
    <glyph glyph-name="r" unicode="r" horiz-adv-x="915" 
d="M414 0h-404l205 1149h401l-36 -209q85 101 190.5 160t216.5 59l-74 -428h-112q-127 0 -198.5 -47.5t-96.5 -165.5z" />
    <glyph glyph-name="s" unicode="s" horiz-adv-x="1163" 
d="M1042 350q0 -114 -69.5 -197t-188 -125t-272.5 -42q-156 0 -274.5 49.5t-177.5 142t-40 209.5h388q-3 -57 34 -88t103 -31q51 0 85 20.5t34 53.5q0 29 -31.5 51.5t-81.5 39t-110.5 34.5t-121 44.5t-110.5 62t-81.5 95t-31.5 136.5q0 156 134.5 257t353.5 101
q235 0 366.5 -113.5t122.5 -287.5h-360q2 55 -33 87t-100 32q-47 0 -78 -20.5t-31 -53.5q0 -29 31.5 -52t82 -40.5t111 -36.5t121.5 -46t111.5 -62t82 -91.5t31.5 -128.5z" />
    <glyph glyph-name="t" unicode="t" horiz-adv-x="862" 
d="M152 436l67 379h-141l59 334h142l49 278h403l-49 -278h207l-60 -334h-206l-70 -385q-8 -46 11 -67t71 -21h117l-62 -342h-176q-79 0 -140.5 13.5t-113 45t-79 81.5t-38 123.5t8.5 172.5z" />
    <glyph glyph-name="u" unicode="u" horiz-adv-x="1404" 
d="M1391 1149l-205 -1149h-402l29 164q-67 -78 -165 -126t-214 -48q-200 0 -293.5 132t-52.5 359l117 668h401l-108 -617q-18 -98 23.5 -154t129.5 -56t148.5 54t77.5 146l110 627h404z" />
    <glyph glyph-name="v" unicode="v" horiz-adv-x="1329" 
d="M119 1149h428l82 -770l352 770h428l-598 -1149h-500z" />
    <glyph glyph-name="w" unicode="w" horiz-adv-x="1812" 
d="M190 0l-88 1149h402l-6 -762l305 762h428l41 -766l264 766h375l-496 -1149h-448l-37 696l-289 -696h-451z" />
    <glyph glyph-name="x" unicode="x" horiz-adv-x="1286" 
d="M727 0l-156 289l-215 -289h-438l485 596l-299 553h451l156 -289l217 289h440l-496 -586l306 -563h-451z" />
    <glyph glyph-name="y" unicode="y" horiz-adv-x="1341" 
d="M367 49l-277 1100h447l125 -651l348 651h440l-1026 -1696h-436z" />
    <glyph glyph-name="z" unicode="z" horiz-adv-x="1038" 
d="M1069 1149l-55 -318l-561 -497h489l-59 -334h-934l57 317l545 498h-453l60 334h911z" />
    <glyph glyph-name="braceleft" unicode="{" horiz-adv-x="1007" 
d="M317 426q0 110 -167 113l57 325q102 1 153 37t62 105q11 57 15.5 219t17.5 231q33 189 167 293t330 104h152l-57 -325h-74q-125 0 -144 -115q-7 -42 -16.5 -197t-21.5 -225q-21 -117 -89 -192.5t-182 -96.5v-4q87 -18 131.5 -69.5t44.5 -128.5q0 -76 -60.5 -292.5
t-60.5 -254.5q0 -80 107 -80h74l-58 -326h-151q-171 0 -269 80.5t-98 229.5q0 71 34 193t68.5 230.5t34.5 145.5z" />
    <glyph glyph-name="bar" unicode="|" horiz-adv-x="567" 
d="M276 1683h402l-346 -1964h-402z" />
    <glyph glyph-name="braceright" unicode="}" horiz-adv-x="1007" 
d="M903 864l-57 -325q-194 -6 -217 -146q-9 -51 -14 -209.5t-19 -238.5q-33 -189 -167 -293.5t-331 -104.5h-151l57 326h76q122 0 141 113q8 46 17.5 201t21.5 223q21 117 88.5 192t181.5 96v4q-106 21 -147.5 96.5t-20.5 192.5q12 67 57.5 222t53.5 200q9 58 -14 86.5
t-88 28.5h-74l55 325h152q197 0 294.5 -104t65.5 -293q-15 -77 -66 -235.5t-61 -214.5q-12 -70 26.5 -105.5t139.5 -36.5z" />
    <glyph glyph-name="asciitilde" unicode="~" horiz-adv-x="1380" 
d="M16 397q85 253 222 373.5t309 120.5q63 0 123 -21t97.5 -46.5t83.5 -46.5t85 -21q55 0 90.5 32t58.5 105h301q-84 -252 -222 -372t-310 -120q-63 0 -123 21.5t-98 46.5t-84 46.5t-86 21.5q-54 0 -90 -33t-62 -107h-295z" />
    <glyph glyph-name="uni00A0" unicode="&#xa0;" horiz-adv-x="411" 
 />
    <glyph glyph-name="exclamdown" unicode="&#xa1;" horiz-adv-x="886" 
d="M623 618l-125 -976h-437l218 976h344zM279 969q15 89 90.5 148t179.5 59q105 0 159.5 -59t39.5 -148t-91.5 -149t-181.5 -60q-104 0 -157.5 59.5t-38.5 149.5z" />
    <glyph glyph-name="cent" unicode="&#xa2;" horiz-adv-x="1239" 
d="M1116 406q-44 -181 -192 -291.5t-340 -126.5l-27 -160h-129l27 160q-229 20 -336 160.5t-66 373.5q41 234 197.5 374t392.5 159l29 159h129l-29 -159q186 -16 295.5 -125.5t91.5 -290.5h-371q-17 94 -131 94q-87 0 -145.5 -56.5t-75.5 -156.5q-17 -99 21 -154t125 -55
q53 0 99 25t67 70h368z" />
    <glyph glyph-name="sterling" unicode="&#xa3;" horiz-adv-x="1374" 
d="M285 1100q38 213 199 333.5t388 120.5q125 0 217.5 -36.5t144.5 -101.5t72 -150.5t7 -188.5h-369q14 150 -117 150q-137 0 -168 -170q-10 -63 9 -213h356l-47 -269h-311q-50 -175 -183 -272h699l-56 -313h-1087l-16 192q110 79 172 170t92 223h-219l47 269h161
q-11 136 9 256z" />
    <glyph glyph-name="currency" unicode="&#xa4;" horiz-adv-x="1208" 
d="M778 772q13 73 -20 110.5t-90 37.5q-59 0 -105 -37.5t-57 -110.5q-13 -72 19 -107.5t91 -35.5q58 0 103.5 35.5t58.5 107.5zM887 295l-113 133q-95 -31 -201 -31q-103 0 -190 33l-160 -135l-125 151l129 111q-52 87 -30 219q20 128 110 221l-90 111l176 152l117 -142
q95 29 197 29q96 0 182 -27l166 140l125 -152l-127 -109q57 -92 37 -223q-24 -131 -115 -225l86 -105z" />
    <glyph glyph-name="yen" unicode="&#xa5;" horiz-adv-x="1435" 
d="M1272 268h-410l-47 -268h-401l47 268h-412l47 264h373l-35 101h-319l47 266h182l-184 545h458l146 -610l362 610h453l-377 -545h180l-45 -266h-319l-70 -101h369z" />
    <glyph glyph-name="brokenbar" unicode="&#xa6;" horiz-adv-x="833" 
d="M215 582h403l-153 -863h-402zM659 823h-403l154 860h401z" />
    <glyph glyph-name="section" unicode="&#xa7;" horiz-adv-x="1210" 
d="M217 1090q30 169 178 274.5t377 105.5q213 0 318 -112t84 -297h-398q16 127 -63 127q-71 0 -86 -76q-10 -59 43 -103t225 -132q289 -155 250 -377q-18 -98 -79 -172.5t-181 -128.5q109 -123 80 -289q-30 -169 -178 -275t-377 -106q-213 0 -318 112.5t-84 297.5h398
q-16 -127 61 -127q73 0 88 75q9 59 -44 103.5t-224 134.5q-288 144 -250 375q42 219 260 301q-109 123 -80 289zM719 500q11 59 -16 98t-85 39q-59 0 -100.5 -38.5t-52.5 -98.5q-9 -59 18 -98.5t84 -39.5q58 0 99.5 39.5t52.5 98.5z" />
    <glyph glyph-name="dieresis" unicode="&#xa8;" horiz-adv-x="802" 
d="M305 1270q-61 0 -99 37t-38 94q0 82 58 139t136 57q63 0 100.5 -37.5t37.5 -97.5q0 -79 -59 -135.5t-136 -56.5zM739 1270q-60 0 -98.5 37t-38.5 94q0 81 59 138.5t136 57.5q63 0 101 -37.5t38 -97.5q0 -79 -59 -135.5t-138 -56.5z" />
    <glyph glyph-name="copyright" unicode="&#xa9;" horiz-adv-x="1587" 
d="M950 1466q212 0 361 -93.5t210.5 -261t22.5 -382.5q-38 -215 -158.5 -384t-302.5 -264t-393 -95q-212 0 -361 95t-211 264t-24 384q39 215 159.5 382.5t302.5 261t394 93.5zM930 1343q-274 0 -463 -166t-240 -448q-48 -282 82.5 -450t403.5 -168q271 0 461 169t237 449
q50 282 -79 448t-402 166zM905 1184q-205 0 -353.5 -124t-184.5 -333q-38 -209 66.5 -333t309.5 -124q165 0 301 96.5t193 256.5h-338q-44 -86 -123 -86q-60 0 -85.5 48t-8.5 142t59.5 142.5t102.5 48.5q42 0 64.5 -24.5t27.5 -62.5h338q1 162 -101.5 257.5t-267.5 95.5z
" />
    <glyph glyph-name="ordfeminine" unicode="&#xaa;" horiz-adv-x="972" 
d="M135 1085q30 172 144 271.5t260 99.5q160 0 217 -117l18 109h299l-127 -721h-299l19 104q-96 -116 -254 -116q-148 0 -227.5 99t-49.5 271zM711 1087q12 62 -21 98t-90 36q-55 0 -100.5 -37.5t-55.5 -100.5q-11 -63 21 -96t88 -33q57 0 102 35t56 98z" />
    <glyph glyph-name="guillemotleft" unicode="&#xab;" horiz-adv-x="1204" 
d="M459 604l106 -358h-368l-101 358l228 359h368zM950 604l107 -358h-369l-100 358l227 359h369z" />
    <glyph glyph-name="logicalnot" unicode="&#xac;" horiz-adv-x="1603" 
d="M57 608l54 303h1423l-100 -567h-402l45 264h-1020z" />
    <glyph glyph-name="uni00AD" unicode="&#xad;" horiz-adv-x="1183" 
d="M66 543l59 334h928l-60 -334h-927z" />
    <glyph glyph-name="registered" unicode="&#xae;" horiz-adv-x="1048" 
d="M662 1346q-145 0 -248 -89.5t-129 -236.5q-25 -146 46 -237t216 -91q144 0 247 91t128 237q26 147 -45 236.5t-215 89.5zM524 569q-198 0 -303.5 126.5t-70.5 324.5q34 196 184 322t348 126q199 0 304 -125.5t71 -322.5q-35 -198 -184.5 -324.5t-348.5 -126.5zM821 1102
q-15 -86 -98 -127l70 -166h-181l-49 143l-28 -143h-160l76 432h237q71 0 108 -37.5t25 -101.5zM627 1112h-41l-11 -49h43q27 0 33 24q2 11 -4.5 18t-19.5 7z" />
    <glyph glyph-name="macron" unicode="&#xaf;" horiz-adv-x="892" 
d="M143 1280l47 270h852l-47 -270h-852z" />
    <glyph glyph-name="degree" unicode="&#xb0;" horiz-adv-x="983" 
d="M137 1087q32 173 171 272t339 99q199 0 302 -99t73 -272q-31 -171 -168 -273.5t-334 -102.5q-199 0 -305.5 102.5t-77.5 273.5zM713 1085q14 80 -18.5 121t-84.5 41q-54 0 -102 -41t-62 -121t21.5 -119.5t91.5 -39.5q51 0 95.5 39.5t58.5 119.5z" />
    <glyph glyph-name="plusminus" unicode="&#xb1;" horiz-adv-x="1208" 
d="M535 1286h387l-37 -205h329l-63 -364h-330l-24 -144h329l-65 -362h-1045l64 362h330l24 144h-330l64 364h330z" />
    <glyph glyph-name="twosuperior" unicode="&#xb2;" horiz-adv-x="825" 
d="M182 1182q30 127 145.5 205.5t286.5 78.5q157 0 224.5 -67.5t52.5 -157.5q-13 -72 -84.5 -127.5t-224.5 -116.5l-111 -45h352l-41 -231h-669l41 223l288 148q114 59 127 127q6 34 -26 34q-47 0 -62 -71h-299z" />
    <glyph glyph-name="threesuperior" unicode="&#xb3;" horiz-adv-x="796" 
d="M150 1198q23 114 125.5 191t287.5 77q152 0 230.5 -60t60.5 -157q-20 -124 -174 -153l-2 -6q81 -21 112.5 -61.5t20.5 -104.5q-17 -100 -118 -154.5t-257 -54.5q-196 0 -273.5 67t-64.5 193h312q-5 -53 39 -53t55 55q11 59 -58 59h-63l18 113h50q66 0 77 61q10 47 -34 47
t-58 -59h-286z" />
    <glyph glyph-name="acute" unicode="&#xb4;" horiz-adv-x="552" 
d="M182 1499l553 232l-53 -304l-549 -200z" />
    <glyph glyph-name="uni00B5" unicode="&#xb5;" horiz-adv-x="1490" 
d="M1438 1149l-203 -1149h-404l29 164q-63 -79 -158 -126.5t-210 -47.5q-17 0 -41 4l-97 -543h-399l299 1698h399l-108 -614q-15 -93 26.5 -145t128.5 -52q89 0 150 52t76 145v-3l108 617h404z" />
    <glyph glyph-name="paragraph" unicode="&#xb6;" horiz-adv-x="1521" 
d="M692 1444h828l-254 -1444h-326l201 1141h-123l-203 -1141h-323l98 551h-55q-73 0 -135 13t-106.5 36t-79.5 55.5t-55 71t-32 82.5t-10.5 91t8.5 95q15 88 56.5 166t109.5 142.5t171.5 102.5t229.5 38z" />
    <glyph glyph-name="periodcentered" unicode="&#xb7;" horiz-adv-x="663" 
d="M498 625q-15 -89 -91 -148t-180 -59q-105 0 -159 58.5t-39 148.5q15 89 91 149t181 60q104 0 158 -60t39 -149z" />
    <glyph glyph-name="cedilla" unicode="&#xb8;" horiz-adv-x="671" 
d="M285 14l-15 -80q36 0 70 -7.5t67.5 -25t54.5 -45t32 -68.5t0 -95q-12 -65 -47 -114.5t-84 -76.5t-101.5 -40t-107.5 -13h-334l37 211h288q68 0 74 43q4 23 -11 33t-48 10h-160l49 268h236z" />
    <glyph glyph-name="onesuperior" unicode="&#xb9;" horiz-adv-x="546" 
d="M195 721l86 489h-129l41 232h428l-127 -721h-299z" />
    <glyph glyph-name="ordmasculine" unicode="&#xba;" horiz-adv-x="950" 
d="M135 1083q28 163 163.5 266t328.5 103q194 0 294 -103t72 -266q-30 -163 -166 -267.5t-329 -104.5q-192 0 -291.5 105t-71.5 267zM686 1083q11 69 -17.5 105.5t-82.5 36.5q-53 0 -94 -36.5t-52 -105.5q-12 -69 16.5 -106t82.5 -37t94.5 37t52.5 106z" />
    <glyph glyph-name="guillemotright" unicode="&#xbb;" horiz-adv-x="1204" 
d="M903 246h-368l233 358l-106 359h368l100 -359zM412 246h-369l233 358l-106 359h369l100 -359z" />
    <glyph glyph-name="onequarter" unicode="&#xbc;" horiz-adv-x="1705" 
d="M98 0l1049 1444h389l-1044 -1444h-394zM1524 289h75l-28 -166h-76l-22 -123h-302l23 123h-408l27 156l371 440h415zM1098 295h141l41 233zM240 721l86 489h-129l41 232h428l-127 -721h-299z" />
    <glyph glyph-name="onehalf" unicode="&#xbd;" horiz-adv-x="1789" 
d="M98 0l1059 1448h391l-1056 -1448h-394zM240 721l86 489h-129l41 232h428l-127 -721h-299zM1067 459q30 127 145.5 205.5t286.5 78.5q157 0 224.5 -67.5t52.5 -157.5q-13 -72 -84.5 -127.5t-225.5 -116.5l-110 -45h352l-41 -231h-670l41 223l289 148q114 59 127 127
q3 16 -5 25t-22 9q-46 0 -61 -71h-299z" />
    <glyph glyph-name="threequarters" unicode="&#xbe;" horiz-adv-x="1959" 
d="M373 0l1028 1448h391l-1030 -1448h-389zM1796 289h76l-27 -166h-78l-22 -123h-299l22 123h-409l26 156l340 440h447zM1372 289h139l50 272zM240 1198q23 114 125.5 191t287.5 77q152 0 230.5 -60t60.5 -157q-20 -124 -174 -153l-2 -6q81 -21 112.5 -61.5t20.5 -104.5
q-17 -100 -118 -154.5t-257 -54.5q-196 0 -273.5 67t-64.5 193h312q-5 -53 39 -53t55 55q11 59 -57 59h-64l19 113h49q66 0 77 61q10 47 -34 47t-58 -59h-286z" />
    <glyph glyph-name="questiondown" unicode="&#xbf;" horiz-adv-x="1101" 
d="M958 68q-28 -195 -181.5 -324t-401.5 -129q-223 0 -338 114.5t-78 327.5q33 187 176 296t346 112l37 149h354l-59 -407h-147q-143 0 -223 -34t-91 -118q-9 -53 15.5 -82.5t72.5 -29.5q58 0 94.5 34.5t45.5 90.5h378zM522 975q15 89 91 148t180 59q105 0 159 -58.5
t39 -148.5q-15 -89 -91 -149t-181 -60q-104 0 -158 60t-39 149z" />
    <glyph glyph-name="Agrave" unicode="&#xc0;" horiz-adv-x="1546" 
d="M1004 0l-37 236h-512l-119 -236h-422l780 1444h463l270 -1444h-423zM715 1729l53 303l471 -232l-49 -272zM920 541l-72 469l-238 -469h310z" />
    <glyph glyph-name="Aacute" unicode="&#xc1;" horiz-adv-x="1546" 
d="M1004 0l-37 236h-512l-119 -236h-422l780 1444h463l270 -1444h-423zM727 1800l553 232l-53 -303l-549 -201zM920 541l-72 469l-238 -469h310z" />
    <glyph glyph-name="Acircumflex" unicode="&#xc2;" horiz-adv-x="1546" 
d="M1004 0l-37 236h-512l-119 -236h-422l780 1444h463l270 -1444h-423zM1313 1784l-47 -268l-297 178l-359 -178l45 268l361 174zM920 541l-72 469l-238 -469h310z" />
    <glyph glyph-name="Atilde" unicode="&#xc3;" horiz-adv-x="1546" 
d="M1004 0l-37 236h-512l-119 -236h-422l780 1444h463l270 -1444h-423zM500 1552q113 332 364 332q54 0 102.5 -23t88.5 -46t73 -23q78 0 107 92h203q-114 -330 -365 -330q-43 0 -83.5 14.5t-66.5 32t-57.5 32t-58.5 14.5q-74 0 -107 -95h-200zM920 541l-72 469l-238 -469
h310z" />
    <glyph glyph-name="Adieresis" unicode="&#xc4;" horiz-adv-x="1546" 
d="M1004 0l-37 236h-512l-119 -236h-422l780 1444h463l270 -1444h-423zM731 1571q-61 0 -99 37t-38 94q0 82 58 139t136 57q63 0 100.5 -37.5t37.5 -97.5q0 -79 -59 -135.5t-136 -56.5zM1165 1571q-60 0 -98.5 37t-38.5 94q0 81 59 138.5t136 57.5q63 0 101 -37.5t38 -97.5
q0 -79 -59 -135.5t-138 -56.5zM920 541l-72 469l-238 -469h310z" />
    <glyph glyph-name="Aring" unicode="&#xc5;" horiz-adv-x="1546" 
d="M1004 0l-37 236h-512l-119 -236h-422l780 1444h463l270 -1444h-423zM1081 1782q7 44 -15.5 71t-64.5 27t-73.5 -27t-40.5 -71q-7 -43 16 -71t64 -28q42 0 74.5 27.5t39.5 71.5zM725 1780q21 118 107.5 189t197.5 71t173.5 -71t39.5 -189q-20 -117 -106.5 -187.5
t-196.5 -70.5t-172.5 70.5t-42.5 187.5zM920 541l-72 469l-238 -469h310z" />
    <glyph glyph-name="AE" unicode="&#xc6;" horiz-adv-x="1988" 
d="M1094 1139l-408 -615h299zM1999 1126h-506l-41 -235h444l-53 -303h-444l-49 -269h505l-55 -319h-909l39 221h-445l-145 -221h-438l970 1444h1182z" />
    <glyph glyph-name="Ccedilla" unicode="&#xc7;" horiz-adv-x="1552" 
d="M90 725q38 214 155.5 380t298 259.5t394.5 93.5q270 0 429.5 -144.5t168.5 -391.5h-432q-25 79 -87 122t-151 43q-138 0 -238.5 -98.5t-129.5 -263.5q-29 -166 37 -265.5t204 -99.5q89 0 165.5 43t129.5 123h434q-86 -216 -260 -355t-399 -171l-14 -76q46 0 88 -12.5
t78 -39t52.5 -75.5t4.5 -114t-47 -114.5t-84 -76.5t-101.5 -40t-107.5 -13h-334l37 211h289q67 0 73 43q4 23 -11 33t-48 10h-160l47 260q-273 35 -403.5 233.5t-77.5 495.5z" />
    <glyph glyph-name="Egrave" unicode="&#xc8;" horiz-adv-x="1122" 
d="M1190 1444l-55 -318h-523l-41 -239h461l-55 -305h-461l-47 -263h522l-55 -319h-926l256 1444h924zM508 1729l53 303l471 -232l-49 -272z" />
    <glyph glyph-name="Eacute" unicode="&#xc9;" horiz-adv-x="1122" 
d="M1190 1444l-55 -318h-523l-41 -239h461l-55 -305h-461l-47 -263h522l-55 -319h-926l256 1444h924zM520 1800l553 232l-53 -303l-549 -201z" />
    <glyph glyph-name="Ecircumflex" unicode="&#xca;" horiz-adv-x="1122" 
d="M1190 1444l-55 -318h-523l-41 -239h461l-55 -305h-461l-47 -263h522l-55 -319h-926l256 1444h924zM1108 1784l-47 -268l-297 178l-358 -178l45 268l360 174z" />
    <glyph glyph-name="Edieresis" unicode="&#xcb;" horiz-adv-x="1122" 
d="M1190 1444l-55 -318h-523l-41 -239h461l-55 -305h-461l-47 -263h522l-55 -319h-926l256 1444h924zM524 1571q-61 0 -99 37t-38 94q0 82 58.5 139t136.5 57q62 0 99.5 -37t37.5 -98q0 -79 -59 -135.5t-136 -56.5zM958 1571q-60 0 -98.5 37t-38.5 94q0 81 59 138.5
t136 57.5q63 0 101 -37.5t38 -97.5q0 -79 -59 -135.5t-138 -56.5z" />
    <glyph glyph-name="Igrave" unicode="&#xcc;" horiz-adv-x="630" 
d="M10 0l256 1444h402l-254 -1444h-404zM258 1729l53 303l471 -232l-49 -272z" />
    <glyph glyph-name="Iacute" unicode="&#xcd;" horiz-adv-x="630" 
d="M10 0l256 1444h402l-254 -1444h-404zM270 1800l553 232l-53 -303l-549 -201z" />
    <glyph glyph-name="Icircumflex" unicode="&#xce;" horiz-adv-x="630" 
d="M10 0l256 1444h402l-254 -1444h-404zM856 1784l-47 -268l-297 178l-358 -178l45 268l360 174z" />
    <glyph glyph-name="Idieresis" unicode="&#xcf;" horiz-adv-x="630" 
d="M10 0l256 1444h402l-254 -1444h-404zM272 1571q-61 0 -99 37t-38 94q0 82 58.5 139t136.5 57q62 0 99.5 -37t37.5 -98q0 -79 -59 -135.5t-136 -56.5zM707 1571q-60 0 -99 37t-39 94q0 81 59 138.5t136 57.5q63 0 101 -37.5t38 -97.5q0 -79 -58.5 -135.5t-137.5 -56.5z
" />
    <glyph glyph-name="Eth" unicode="&#xd0;" horiz-adv-x="1511" 
d="M844 1444q170 0 302 -53t212 -148t110 -228.5t2 -291.5q-38 -209 -158 -372.5t-308.5 -257t-415.5 -93.5h-572l101 561h-115l57 326h115l98 557h572zM481 352h137q177 0 295 97t148 274q32 178 -51 275.5t-258 97.5h-138l-36 -209h288l-57 -326h-291z" />
    <glyph glyph-name="Ntilde" unicode="&#xd1;" horiz-adv-x="1566" 
d="M1202 1444h402l-254 -1444h-404l-389 807l-143 -807h-404l256 1444h402l391 -817zM510 1552q113 332 364 332q54 0 103 -23t89 -46t73 -23q77 0 106 92h203q-114 -330 -365 -330q-43 0 -83.5 14.5t-66.5 32t-57.5 32t-58.5 14.5q-73 0 -106 -95h-201z" />
    <glyph glyph-name="Ograve" unicode="&#xd2;" horiz-adv-x="1611" 
d="M1567 866q0 -255 -107.5 -455t-303.5 -312.5t-447 -112.5q-277 0 -445 167t-168 437q0 256 107.5 455.5t301.5 310t443 110.5q283 0 451 -165t168 -435zM494 637q0 -130 71.5 -204.5t204.5 -74.5q121 0 213.5 65t139 168.5t46.5 227.5q0 130 -70.5 203.5t-201.5 73.5
q-121 0 -214.5 -64t-141 -167.5t-47.5 -227.5zM748 1731l53 303l471 -232l-49 -272z" />
    <glyph glyph-name="Oacute" unicode="&#xd3;" horiz-adv-x="1611" 
d="M1567 866q0 -255 -107.5 -455t-303.5 -312.5t-447 -112.5q-277 0 -445 167t-168 437q0 256 107.5 455.5t301.5 310t443 110.5q283 0 451 -165t168 -435zM494 637q0 -130 71.5 -204.5t204.5 -74.5q121 0 213.5 65t139 168.5t46.5 227.5q0 130 -70.5 203.5t-201.5 73.5
q-121 0 -214.5 -64t-141 -167.5t-47.5 -227.5zM760 1802l553 232l-53 -303l-549 -201z" />
    <glyph glyph-name="Ocircumflex" unicode="&#xd4;" horiz-adv-x="1611" 
d="M1567 866q0 -255 -107.5 -455t-303.5 -312.5t-447 -112.5q-277 0 -445 167t-168 437q0 256 107.5 455.5t301.5 310t443 110.5q283 0 451 -165t168 -435zM494 637q0 -130 71.5 -204.5t204.5 -74.5q121 0 213.5 65t139 168.5t46.5 227.5q0 130 -70.5 203.5t-201.5 73.5
q-121 0 -214.5 -64t-141 -167.5t-47.5 -227.5zM1346 1786l-48 -268l-297 178l-358 -178l45 268l361 174z" />
    <glyph glyph-name="Otilde" unicode="&#xd5;" horiz-adv-x="1611" 
d="M1567 866q0 -255 -107.5 -455t-303.5 -312.5t-447 -112.5q-277 0 -445 167t-168 437q0 256 107.5 455.5t301.5 310t443 110.5q283 0 451 -165t168 -435zM494 637q0 -130 71.5 -204.5t204.5 -74.5q121 0 213.5 65t139 168.5t46.5 227.5q0 130 -70.5 203.5t-201.5 73.5
q-121 0 -214.5 -64t-141 -167.5t-47.5 -227.5zM532 1554q113 332 365 332q54 0 102.5 -23t88.5 -46t73 -23q78 0 107 92h202q-114 -330 -364 -330q-43 0 -83.5 14.5t-66.5 32t-57.5 32t-58.5 14.5q-74 0 -107 -95h-201z" />
    <glyph glyph-name="Odieresis" unicode="&#xd6;" horiz-adv-x="1611" 
d="M1567 866q0 -255 -107.5 -455t-303.5 -312.5t-447 -112.5q-277 0 -445 167t-168 437q0 256 107.5 455.5t301.5 310t443 110.5q283 0 451 -165t168 -435zM494 637q0 -130 71.5 -204.5t204.5 -74.5q121 0 213.5 65t139 168.5t46.5 227.5q0 130 -70.5 203.5t-201.5 73.5
q-121 0 -214.5 -64t-141 -167.5t-47.5 -227.5zM762 1573q-61 0 -99 37t-38 94q0 82 58 139.5t136 57.5q62 0 99.5 -37.5t37.5 -98.5q0 -79 -58.5 -135.5t-135.5 -56.5zM1196 1573q-60 0 -98.5 37t-38.5 94q0 82 58.5 139.5t135.5 57.5q63 0 101.5 -38t38.5 -98
q0 -79 -59 -135.5t-138 -56.5z" />
    <glyph glyph-name="multiply" unicode="&#xd7;" horiz-adv-x="1247" 
d="M281 190l-213 259l315 270l-213 260l309 262l213 -258l299 258l217 -258l-303 -258l228 -274l-312 -263l-225 273z" />
    <glyph glyph-name="Oslash" unicode="&#xd8;" horiz-adv-x="1611" 
d="M1565 866q0 -255 -107.5 -455t-303.5 -312.5t-447 -112.5q-250 0 -412 137l-131 -121h-227l256 238q-99 148 -99 350q0 256 107.5 455.5t301.5 310t443 110.5q258 0 422 -139l131 123h223l-254 -236q97 -153 97 -348zM492 637q0 -64 14 -107l559 519q-65 47 -170 47
q-121 0 -214.5 -64t-141 -167.5t-47.5 -227.5zM768 358q121 0 213.5 65t139 168.5t46.5 227.5q0 60 -14 103l-555 -516q67 -48 170 -48z" />
    <glyph glyph-name="Ugrave" unicode="&#xd9;" horiz-adv-x="1458" 
d="M113 606l147 838h399l-145 -838q-21 -114 21 -177.5t153 -63.5t178 63.5t88 177.5l148 838h401l-147 -838q-27 -154 -96.5 -274t-168 -195t-218.5 -113t-255 -38q-132 0 -236 39t-174.5 116.5t-95.5 194t1 270.5zM672 1729l53 303l471 -232l-49 -272z" />
    <glyph glyph-name="Uacute" unicode="&#xda;" horiz-adv-x="1458" 
d="M113 606l147 838h399l-145 -838q-21 -114 21 -177.5t153 -63.5t178 63.5t88 177.5l148 838h401l-147 -838q-27 -154 -96.5 -274t-168 -195t-218.5 -113t-255 -38q-132 0 -236 39t-174.5 116.5t-95.5 194t1 270.5zM684 1800l553 232l-53 -303l-549 -201z" />
    <glyph glyph-name="Ucircumflex" unicode="&#xdb;" horiz-adv-x="1458" 
d="M113 606l147 838h399l-145 -838q-21 -114 21 -177.5t153 -63.5t178 63.5t88 177.5l148 838h401l-147 -838q-27 -154 -96.5 -274t-168 -195t-218.5 -113t-255 -38q-132 0 -236 39t-174.5 116.5t-95.5 194t1 270.5zM1270 1784l-47 -268l-297 178l-359 -178l45 268l361 174z
" />
    <glyph glyph-name="Udieresis" unicode="&#xdc;" horiz-adv-x="1458" 
d="M113 606l147 838h399l-145 -838q-21 -114 21 -177.5t153 -63.5t178 63.5t88 177.5l148 838h401l-147 -838q-27 -154 -96.5 -274t-168 -195t-218.5 -113t-255 -38q-132 0 -236 39t-174.5 116.5t-95.5 194t1 270.5zM686 1571q-61 0 -99 37t-38 94q0 82 58 139t136 57
q63 0 100.5 -37.5t37.5 -97.5q0 -79 -59 -135.5t-136 -56.5zM1120 1571q-60 0 -98.5 37t-38.5 94q0 81 59 138.5t136 57.5q63 0 101 -37.5t38 -97.5q0 -79 -59 -135.5t-138 -56.5z" />
    <glyph glyph-name="Yacute" unicode="&#xdd;" horiz-adv-x="1435" 
d="M494 459l-334 985h458l156 -559l352 559h453l-682 -985l-82 -459h-401zM672 1800l553 232l-54 -303l-548 -201z" />
    <glyph glyph-name="Thorn" unicode="&#xde;" horiz-adv-x="1302" 
d="M514 565h158q170 0 200 158q27 160 -143 160h-160zM1280 723q-16 -93 -64.5 -175t-124.5 -146t-187.5 -101t-244.5 -37h-198l-47 -264h-404l256 1444h400l-45 -256h202q259 0 376 -127.5t81 -337.5z" />
    <glyph glyph-name="germandbls" unicode="&#xdf;" horiz-adv-x="1540" 
d="M-4 0l186 1069q42 231 223 364.5t463 133.5q226 0 360 -92.5t134 -235.5q0 -68 -28.5 -130.5t-69 -107t-81.5 -81.5t-69.5 -68t-28.5 -53q0 -21 28 -40t132 -63q130 -54 186 -121.5t56 -181.5q0 -185 -144 -299t-374 -114q-217 0 -332 103.5t-111 293.5h359
q2 -53 31.5 -84t78.5 -31q46 0 74.5 23t28.5 61q0 33 -30 58.5t-112 58.5q-154 60 -218 115t-64 135q0 50 28.5 100.5t69 91t81 79t69 78.5t28.5 75q0 44 -40 71t-107 27q-91 0 -150.5 -51t-74.5 -140l-183 -1044h-399z" />
    <glyph glyph-name="agrave" unicode="&#xe0;" horiz-adv-x="1392" 
d="M47 575q32 179 122 314t212.5 204.5t259.5 69.5q119 0 196.5 -47t108.5 -127l29 160h401l-202 -1149h-402l29 160q-59 -79 -155 -126.5t-214 -47.5q-210 0 -320.5 160t-64.5 429zM874 575q20 111 -28 174.5t-137 63.5q-91 0 -162 -62.5t-90 -175.5q-21 -111 28 -175
t138 -64q90 0 160.5 63t90.5 176zM594 1427l53 304l471 -232l-49 -272z" />
    <glyph glyph-name="aacute" unicode="&#xe1;" horiz-adv-x="1392" 
d="M47 575q32 179 122 314t212.5 204.5t259.5 69.5q119 0 196.5 -47t108.5 -127l29 160h401l-202 -1149h-402l29 160q-59 -79 -155 -126.5t-214 -47.5q-210 0 -320.5 160t-64.5 429zM874 575q20 111 -28 174.5t-137 63.5q-91 0 -162 -62.5t-90 -175.5q-21 -111 28 -175
t138 -64q90 0 160.5 63t90.5 176zM606 1499l553 232l-53 -304l-549 -200z" />
    <glyph glyph-name="acircumflex" unicode="&#xe2;" horiz-adv-x="1392" 
d="M47 575q32 179 122 314t212.5 204.5t259.5 69.5q119 0 196.5 -47t108.5 -127l29 160h401l-202 -1149h-402l29 160q-59 -79 -155 -126.5t-214 -47.5q-210 0 -320.5 160t-64.5 429zM874 575q20 111 -28 174.5t-137 63.5q-91 0 -162 -62.5t-90 -175.5q-21 -111 28 -175
t138 -64q90 0 160.5 63t90.5 176zM1194 1483l-47 -269l-297 179l-358 -179l45 269l360 174z" />
    <glyph glyph-name="atilde" unicode="&#xe3;" horiz-adv-x="1392" 
d="M47 575q32 179 122 314t212.5 204.5t259.5 69.5q119 0 196.5 -47t108.5 -127l29 160h401l-202 -1149h-402l29 160q-59 -79 -155 -126.5t-214 -47.5q-210 0 -320.5 160t-64.5 429zM874 575q20 111 -28 174.5t-137 63.5q-91 0 -162 -62.5t-90 -175.5q-21 -111 28 -175
t138 -64q90 0 160.5 63t90.5 176zM379 1251q113 332 364 332q54 0 103 -23t89 -46t73 -23q77 0 106 92h203q-114 -330 -365 -330q-43 0 -83.5 14.5t-66.5 32t-57.5 32t-58.5 14.5q-73 0 -106 -95h-201z" />
    <glyph glyph-name="adieresis" unicode="&#xe4;" horiz-adv-x="1392" 
d="M47 575q32 179 122 314t212.5 204.5t259.5 69.5q119 0 196.5 -47t108.5 -127l29 160h401l-202 -1149h-402l29 160q-59 -79 -155 -126.5t-214 -47.5q-210 0 -320.5 160t-64.5 429zM874 575q20 111 -28 174.5t-137 63.5q-91 0 -162 -62.5t-90 -175.5q-21 -111 28 -175
t138 -64q90 0 160.5 63t90.5 176zM610 1270q-61 0 -99 37t-38 94q0 82 58.5 139t136.5 57q62 0 99.5 -37.5t37.5 -97.5q0 -79 -59 -135.5t-136 -56.5zM1044 1270q-60 0 -98.5 37t-38.5 94q0 81 59 138.5t136 57.5q63 0 101 -37.5t38 -97.5q0 -79 -59 -135.5t-138 -56.5z" />
    <glyph glyph-name="aring" unicode="&#xe5;" horiz-adv-x="1392" 
d="M47 575q32 179 122 314t212.5 204.5t259.5 69.5q119 0 196.5 -47t108.5 -127l29 160h401l-202 -1149h-402l29 160q-59 -79 -155 -126.5t-214 -47.5q-210 0 -320.5 160t-64.5 429zM874 575q20 111 -28 174.5t-137 63.5q-91 0 -162 -62.5t-90 -175.5q-21 -111 28 -175
t138 -64q90 0 160.5 63t90.5 176zM606 1479q21 118 107.5 189t197.5 71t173.5 -71t39.5 -189q-20 -117 -106.5 -187.5t-196.5 -70.5t-172.5 70.5t-42.5 187.5zM963 1481q7 44 -15.5 71t-64.5 27t-74 -27t-41 -71q-7 -43 16 -71t64 -28q42 0 75 27.5t40 71.5z" />
    <glyph glyph-name="ae" unicode="&#xe6;" horiz-adv-x="2172" 
d="M1550 846q-81 0 -146 -41.5t-97 -128.5h426q13 81 -39.5 125.5t-143.5 44.5zM2064 397q-71 -182 -217 -296.5t-325 -114.5q-122 0 -205.5 46.5t-116.5 127.5l-29 -160h-399l31 160q-64 -81 -159 -127.5t-210 -46.5q-211 0 -322 160t-65 429q32 179 122 314t213.5 204.5
t262.5 69.5q232 0 303 -172l29 158h397l-28 -158q134 172 383 172q222 0 332 -155.5t65 -417.5q-9 -49 -27 -94h-823q-6 -100 41 -146.5t127 -46.5q134 0 194 94h426zM457 575q-21 -111 28 -175t138 -64q90 0 160.5 63t90.5 176q20 111 -28 174.5t-137 63.5
q-91 0 -162 -62.5t-90 -175.5z" />
    <glyph glyph-name="ccedilla" unicode="&#xe7;" horiz-adv-x="1243" 
d="M47 575q49 271 237.5 429.5t448.5 158.5q220 0 349 -119.5t135 -334.5h-429q-16 112 -124 112q-76 0 -131 -63t-76 -183q-21 -121 12.5 -184t108.5 -63q110 0 161 112h428q-69 -184 -206 -299.5t-318 -144.5l-12 -72q46 0 88 -12.5t78 -39t52.5 -75.5t4.5 -114
t-47 -114.5t-84 -76.5t-101.5 -40t-107.5 -13h-334l37 211h289q68 0 74 43q4 23 -11.5 33t-48.5 10h-160l48 260q-204 34 -303 187.5t-58 391.5z" />
    <glyph glyph-name="egrave" unicode="&#xe8;" horiz-adv-x="1261" 
d="M676 846q-76 0 -131.5 -43.5t-81.5 -126.5h356q14 82 -27.5 126t-115.5 44zM1153 397q-70 -180 -242 -295.5t-385 -115.5q-127 0 -227 41t-164 115.5t-87.5 186t-0.5 246.5q49 271 238 429.5t450 158.5q258 0 391 -155t88 -418q-12 -64 -24 -94h-760q-10 -96 28 -142.5
t109 -46.5q101 0 160 90h426zM541 1427l53 304l471 -232l-49 -272z" />
    <glyph glyph-name="eacute" unicode="&#xe9;" horiz-adv-x="1261" 
d="M676 846q-76 0 -131.5 -43.5t-81.5 -126.5h356q14 82 -27.5 126t-115.5 44zM1153 397q-70 -180 -242 -295.5t-385 -115.5q-127 0 -227 41t-164 115.5t-87.5 186t-0.5 246.5q49 271 238 429.5t450 158.5q258 0 391 -155t88 -418q-12 -64 -24 -94h-760q-10 -96 28 -142.5
t109 -46.5q101 0 160 90h426zM553 1499l553 232l-53 -304l-549 -200z" />
    <glyph glyph-name="ecircumflex" unicode="&#xea;" horiz-adv-x="1261" 
d="M676 846q-76 0 -131.5 -43.5t-81.5 -126.5h356q14 82 -27.5 126t-115.5 44zM1153 397q-70 -180 -242 -295.5t-385 -115.5q-127 0 -227 41t-164 115.5t-87.5 186t-0.5 246.5q49 271 238 429.5t450 158.5q258 0 391 -155t88 -418q-12 -64 -24 -94h-760q-10 -96 28 -142.5
t109 -46.5q101 0 160 90h426zM1139 1483l-47 -269l-297 179l-359 -179l45 269l361 174z" />
    <glyph glyph-name="edieresis" unicode="&#xeb;" horiz-adv-x="1261" 
d="M676 846q-76 0 -131.5 -43.5t-81.5 -126.5h356q14 82 -27.5 126t-115.5 44zM1153 397q-70 -180 -242 -295.5t-385 -115.5q-127 0 -227 41t-164 115.5t-87.5 186t-0.5 246.5q49 271 238 429.5t450 158.5q258 0 391 -155t88 -418q-12 -64 -24 -94h-760q-10 -96 28 -142.5
t109 -46.5q101 0 160 90h426zM555 1270q-61 0 -99 37t-38 94q0 82 58 139t136 57q63 0 100.5 -37.5t37.5 -97.5q0 -79 -59 -135.5t-136 -56.5zM989 1270q-60 0 -98.5 37t-38.5 94q0 81 59 138.5t136 57.5q63 0 101 -37.5t38 -97.5q0 -79 -59 -135.5t-138 -56.5z" />
    <glyph glyph-name="igrave" unicode="&#xec;" horiz-adv-x="710" 
d="M51 0l203 1149h401l-202 -1149h-402zM244 1427l53 304l471 -232l-49 -272z" />
    <glyph glyph-name="iacute" unicode="&#xed;" horiz-adv-x="710" 
d="M51 0l203 1149h401l-202 -1149h-402zM256 1499l553 232l-53 -304l-549 -200z" />
    <glyph glyph-name="icircumflex" unicode="&#xee;" horiz-adv-x="710" 
d="M51 0l203 1149h401l-202 -1149h-402zM842 1483l-47 -269l-297 179l-359 -179l45 269l361 174z" />
    <glyph glyph-name="idieresis" unicode="&#xef;" horiz-adv-x="710" 
d="M51 0l203 1149h401l-202 -1149h-402zM260 1270q-61 0 -99 37t-38 94q0 82 58 139t136 57q63 0 100.5 -37.5t37.5 -97.5q0 -79 -59 -135.5t-136 -56.5zM694 1270q-60 0 -98.5 37t-38.5 94q0 81 59 138.5t136 57.5q63 0 101 -37.5t38 -97.5q0 -79 -59 -135.5t-138 -56.5z
" />
    <glyph glyph-name="eth" unicode="&#xf0;" horiz-adv-x="1312" 
d="M47 578q32 176 132.5 310t241.5 202.5t300 68.5q97 0 192 -39q-23 76 -55 142l-207 -58l25 142l115 32q-53 82 -109 138h358q7 -9 21.5 -28t21.5 -28l174 49l-24 -143l-76 -20q85 -156 117.5 -335.5t1.5 -361.5q-28 -158 -97.5 -285t-166 -209t-212.5 -125.5t-241 -43.5
q-124 0 -228.5 42t-175.5 117.5t-101 188t-7 244.5zM459 575q-10 -65 -1.5 -111t35.5 -75t59.5 -42t68.5 -13q79 0 144 59.5t87 181.5q21 119 -27 179.5t-125 60.5q-81 0 -150 -60t-91 -180z" />
    <glyph glyph-name="ntilde" unicode="&#xf1;" horiz-adv-x="1404" 
d="M750 827q-88 0 -148.5 -54t-77.5 -146l-110 -627h-404l205 1149h401l-28 -164q67 78 165.5 126t215.5 48q198 0 292 -132t54 -357l-119 -670h-401l108 616q19 99 -22.5 155t-130.5 56zM436 1251q113 332 365 332q54 0 102.5 -23t88.5 -46t73 -23q77 0 106 92h203
q-114 -330 -364 -330q-54 0 -103.5 23.5t-90 46.5t-73.5 23q-73 0 -106 -95h-201z" />
    <glyph glyph-name="ograve" unicode="&#xf2;" horiz-adv-x="1302" 
d="M1264 680q0 -198 -94 -357.5t-258 -248t-367 -88.5q-228 0 -368 131t-140 350q0 147 54.5 276.5t149 221.5t228 145t285.5 53q227 0 368.5 -132.5t141.5 -350.5zM451 506q0 -86 42 -130t113 -44q73 0 130 47t85.5 117t28.5 145q0 87 -44 131.5t-114 44.5q-109 0 -175 -95
t-66 -216zM541 1442l53 303l471 -232l-49 -272z" />
    <glyph glyph-name="oacute" unicode="&#xf3;" horiz-adv-x="1302" 
d="M1264 680q0 -198 -94 -357.5t-258 -248t-367 -88.5q-228 0 -368 131t-140 350q0 147 54.5 276.5t149 221.5t228 145t285.5 53q227 0 368.5 -132.5t141.5 -350.5zM451 506q0 -86 42 -130t113 -44q73 0 130 47t85.5 117t28.5 145q0 87 -44 131.5t-114 44.5q-109 0 -175 -95
t-66 -216zM553 1513l553 232l-53 -303l-549 -201z" />
    <glyph glyph-name="ocircumflex" unicode="&#xf4;" horiz-adv-x="1302" 
d="M1264 680q0 -198 -94 -357.5t-258 -248t-367 -88.5q-228 0 -368 131t-140 350q0 147 54.5 276.5t149 221.5t228 145t285.5 53q227 0 368.5 -132.5t141.5 -350.5zM451 506q0 -86 42 -130t113 -44q73 0 130 47t85.5 117t28.5 145q0 87 -44 131.5t-114 44.5q-109 0 -175 -95
t-66 -216zM1139 1497l-47 -268l-297 178l-359 -178l45 268l361 174z" />
    <glyph glyph-name="otilde" unicode="&#xf5;" horiz-adv-x="1302" 
d="M1264 680q0 -198 -94 -357.5t-258 -248t-367 -88.5q-228 0 -368 131t-140 350q0 147 54.5 276.5t149 221.5t228 145t285.5 53q227 0 368.5 -132.5t141.5 -350.5zM451 506q0 -86 42 -130t113 -44q73 0 130 47t85.5 117t28.5 145q0 87 -44 131.5t-114 44.5q-109 0 -175 -95
t-66 -216zM326 1266q113 331 364 331q54 0 102.5 -23t88.5 -46t73 -23q78 0 107 92h203q-113 -329 -365 -329q-54 0 -103 23t-89.5 46t-73.5 23q-74 0 -107 -94h-200z" />
    <glyph glyph-name="odieresis" unicode="&#xf6;" horiz-adv-x="1302" 
d="M1264 680q0 -198 -94 -357.5t-258 -248t-367 -88.5q-228 0 -368 131t-140 350q0 147 54.5 276.5t149 221.5t228 145t285.5 53q227 0 368.5 -132.5t141.5 -350.5zM451 506q0 -86 42 -130t113 -44q73 0 130 47t85.5 117t28.5 145q0 87 -44 131.5t-114 44.5q-109 0 -175 -95
t-66 -216zM555 1284q-61 0 -99 37t-38 94q0 82 58 139.5t136 57.5q63 0 100.5 -37.5t37.5 -97.5q0 -79 -59 -136t-136 -57zM989 1284q-60 0 -98.5 37t-38.5 94q0 82 59 139.5t136 57.5q63 0 101 -37.5t38 -97.5q0 -79 -59 -136t-138 -57z" />
    <glyph glyph-name="divide" unicode="&#xf7;" horiz-adv-x="1189" 
d="M66 526l63 363h1047l-64 -363h-1046zM735 229q-15 -89 -90.5 -147.5t-179.5 -58.5q-106 0 -160 58.5t-39 147.5t91.5 149t181.5 60q104 0 157.5 -59.5t38.5 -149.5zM946 1182q-15 -89 -90.5 -148t-179.5 -59q-105 0 -159.5 59t-39.5 148t91.5 149t181.5 60
q104 0 157.5 -59.5t38.5 -149.5z" />
    <glyph glyph-name="oslash" unicode="&#xf8;" horiz-adv-x="1280" 
d="M1251 680q0 -198 -94 -357.5t-258 -248t-367 -88.5q-199 0 -329 100l-94 -86h-199l199 182q-84 120 -84 285q0 147 54.5 276.5t149 221.5t227.5 145t285 53q192 0 332 -100l94 86h199l-201 -182q86 -122 86 -287zM438 506v-23l336 308q-39 26 -94 26q-109 0 -175.5 -95
t-66.5 -216zM594 332q73 0 130 47t85.5 117t28.5 145v25l-336 -308q36 -26 92 -26z" />
    <glyph glyph-name="ugrave" unicode="&#xf9;" horiz-adv-x="1404" 
d="M1391 1149l-205 -1149h-402l29 164q-67 -78 -165 -126t-214 -48q-200 0 -293.5 132t-52.5 359l117 668h401l-108 -617q-18 -98 23.5 -154t129.5 -56t148.5 54t77.5 146l110 627h404zM590 1427l53 304l471 -232l-49 -272z" />
    <glyph glyph-name="uacute" unicode="&#xfa;" horiz-adv-x="1404" 
d="M1391 1149l-205 -1149h-402l29 164q-67 -78 -165 -126t-214 -48q-200 0 -293.5 132t-52.5 359l117 668h401l-108 -617q-18 -98 23.5 -154t129.5 -56t148.5 54t77.5 146l110 627h404zM602 1499l553 232l-53 -304l-549 -200z" />
    <glyph glyph-name="ucircumflex" unicode="&#xfb;" horiz-adv-x="1404" 
d="M1391 1149l-205 -1149h-402l29 164q-67 -78 -165 -126t-214 -48q-200 0 -293.5 132t-52.5 359l117 668h401l-108 -617q-18 -98 23.5 -154t129.5 -56t148.5 54t77.5 146l110 627h404zM1190 1483l-47 -269l-297 179l-359 -179l45 269l361 174z" />
    <glyph glyph-name="udieresis" unicode="&#xfc;" horiz-adv-x="1404" 
d="M1391 1149l-205 -1149h-402l29 164q-67 -78 -165 -126t-214 -48q-200 0 -293.5 132t-52.5 359l117 668h401l-108 -617q-18 -98 23.5 -154t129.5 -56t148.5 54t77.5 146l110 627h404zM606 1270q-61 0 -99 37t-38 94q0 82 58.5 139t136.5 57q62 0 99.5 -37.5t37.5 -97.5
q0 -79 -59 -135.5t-136 -56.5zM1040 1270q-60 0 -98.5 37t-38.5 94q0 81 59 138.5t136 57.5q63 0 101 -37.5t38 -97.5q0 -79 -59 -135.5t-138 -56.5z" />
    <glyph glyph-name="yacute" unicode="&#xfd;" horiz-adv-x="1341" 
d="M367 49l-277 1100h447l125 -651l348 651h440l-1026 -1696h-436zM571 1499l553 232l-53 -304l-549 -200z" />
    <glyph glyph-name="thorn" unicode="&#xfe;" horiz-adv-x="1392" 
d="M594 1024q135 135 334 135q105 0 191.5 -43.5t142 -121.5t78.5 -186t-1 -239q-30 -170 -124 -304.5t-224 -206.5t-270 -72q-193 0 -281 161l-123 -696h-401l363 2065h403zM932 569q20 118 -32.5 180t-131.5 62q-37 0 -75 -13.5t-74 -41t-64 -74.5t-39 -107
q-21 -117 32 -178t134 -61q50 0 99 21.5t92.5 76.5t58.5 135z" />
    <glyph glyph-name="ydieresis" unicode="&#xff;" horiz-adv-x="1341" 
d="M367 49l-277 1100h447l125 -651l348 651h440l-1026 -1696h-436zM573 1270q-61 0 -99 37t-38 94q0 82 58.5 139t136.5 57q63 0 100 -37.5t37 -97.5q0 -79 -59 -135.5t-136 -56.5zM1008 1270q-60 0 -99 37t-39 94q0 81 59 138.5t136 57.5q63 0 101 -37.5t38 -97.5
q0 -79 -58.5 -135.5t-137.5 -56.5z" />
    <glyph glyph-name="Amacron" unicode="&#x100;" horiz-adv-x="1546" 
d="M1004 0l-37 236h-512l-119 -236h-422l780 1444h463l270 -1444h-423zM526 1581l47 270h852l-47 -270h-852zM920 541l-72 469l-238 -469h310z" />
    <glyph glyph-name="amacron" unicode="&#x101;" horiz-adv-x="1392" 
d="M47 575q32 179 122 314t212.5 204.5t259.5 69.5q119 0 196.5 -47t108.5 -127l29 160h401l-202 -1149h-402l29 160q-59 -79 -155 -126.5t-214 -47.5q-210 0 -320.5 160t-64.5 429zM874 575q20 111 -28 174.5t-137 63.5q-91 0 -162 -62.5t-90 -175.5q-21 -111 28 -175
t138 -64q90 0 160.5 63t90.5 176zM406 1280l47 270h852l-48 -270h-851z" />
    <glyph glyph-name="Abreve" unicode="&#x102;" horiz-adv-x="1546" 
d="M1004 0l-37 236h-512l-119 -236h-422l780 1444h463l270 -1444h-423zM1376 1919q-31 -186 -150 -285.5t-284 -99.5q-163 0 -246.5 99.5t-52.5 285.5l6 37h193q-11 -65 22.5 -98t128.5 -33t140.5 33t56.5 98h194zM920 541l-72 469l-238 -469h310z" />
    <glyph glyph-name="abreve" unicode="&#x103;" horiz-adv-x="1392" 
d="M47 575q32 179 122 314t212.5 204.5t259.5 69.5q119 0 196.5 -47t108.5 -127l29 160h401l-202 -1149h-402l29 160q-59 -79 -155 -126.5t-214 -47.5q-210 0 -320.5 160t-64.5 429zM874 575q20 111 -28 174.5t-137 63.5q-91 0 -162 -62.5t-90 -175.5q-21 -111 28 -175
t138 -64q90 0 160.5 63t90.5 176zM1255 1618q-31 -186 -150 -285.5t-284 -99.5q-163 0 -246.5 99.5t-52.5 285.5l6 37h193q-11 -65 22.5 -98t128.5 -33t140.5 33t56.5 98h195z" />
    <glyph glyph-name="Aogonek" unicode="&#x104;" horiz-adv-x="1546" 
d="M694 1444h463l270 -1444l-100 -41q-89 -37 -125 -68t-43 -63q-4 -29 15 -45t59 -16q67 0 166 30l-37 -215q-112 -33 -223 -33q-145 0 -219.5 65t-53.5 185q23 125 135 211l-34 226h-512l-119 -236h-422zM920 541l-72 469l-238 -469h310z" />
    <glyph glyph-name="aogonek" unicode="&#x105;" horiz-adv-x="1392" 
d="M47 575q32 179 122 314t212.5 204.5t259.5 69.5q119 0 196.5 -47t108.5 -127l29 160h401l-202 -1149l-99 -45q-87 -39 -125.5 -69.5t-44.5 -63.5q-5 -25 13.5 -40t56.5 -15q71 0 170 30l-37 -215q-112 -33 -221 -33q-145 0 -220.5 63.5t-54.5 176.5q11 62 48.5 115.5
t113.5 105.5l27 150q-59 -79 -155 -126.5t-214 -47.5q-210 0 -320.5 160t-64.5 429zM874 575q20 111 -28 174.5t-137 63.5q-91 0 -162 -62.5t-90 -175.5q-21 -111 28 -175t138 -64q90 0 160.5 63t90.5 176z" />
    <glyph glyph-name="Cacute" unicode="&#x106;" horiz-adv-x="1552" 
d="M90 725q38 214 155.5 380t298 259.5t394.5 93.5q270 0 429.5 -144.5t168.5 -391.5h-432q-25 79 -87 122t-151 43q-138 0 -238.5 -98.5t-129.5 -263.5q-29 -166 37 -265.5t204 -99.5q89 0 165.5 43t129.5 123h434q-99 -248 -309.5 -392t-480.5 -144q-214 0 -361 93.5
t-206 260t-21 381.5zM729 1800l553 232l-53 -303l-549 -201z" />
    <glyph glyph-name="cacute" unicode="&#x107;" horiz-adv-x="1243" 
d="M47 575q49 271 237.5 429.5t448.5 158.5q220 0 349 -119.5t135 -334.5h-429q-16 112 -124 112q-76 0 -131 -63t-76 -183q-21 -121 12.5 -184t108.5 -63q110 0 161 112h428q-79 -213 -250.5 -333.5t-392.5 -120.5q-127 0 -226.5 41t-163 115.5t-87 186t-0.5 246.5z
M512 1499l553 232l-53 -304l-549 -200z" />
    <glyph glyph-name="Cdotaccent" unicode="&#x10a;" horiz-adv-x="1552" 
d="M90 725q38 214 155.5 380t298 259.5t394.5 93.5q270 0 429.5 -144.5t168.5 -391.5h-432q-25 79 -87 122t-151 43q-138 0 -238.5 -98.5t-129.5 -263.5q-29 -166 37 -265.5t204 -99.5q89 0 165.5 43t129.5 123h434q-99 -248 -309.5 -392t-480.5 -144q-214 0 -361 93.5
t-206 260t-21 381.5zM948 1571q-69 0 -108 46.5t-27 115.5q12 70 68 117.5t125 47.5q70 0 108.5 -47t26.5 -118q-12 -69 -67.5 -115.5t-125.5 -46.5z" />
    <glyph glyph-name="cdotaccent" unicode="&#x10b;" horiz-adv-x="1243" 
d="M47 575q49 271 237.5 429.5t448.5 158.5q220 0 349 -119.5t135 -334.5h-429q-16 112 -124 112q-76 0 -131 -63t-76 -183q-21 -121 12.5 -184t108.5 -63q110 0 161 112h428q-79 -213 -250.5 -333.5t-392.5 -120.5q-127 0 -226.5 41t-163 115.5t-87 186t-0.5 246.5z
M733 1270q-69 0 -108 46.5t-27 115.5q12 70 68 117.5t125 47.5q70 0 108.5 -47t26.5 -118q-12 -69 -67.5 -115.5t-125.5 -46.5z" />
    <glyph glyph-name="Ccaron" unicode="&#x10c;" horiz-adv-x="1552" 
d="M90 725q38 214 155.5 380t298 259.5t394.5 93.5q270 0 429.5 -144.5t168.5 -391.5h-432q-25 79 -87 122t-151 43q-138 0 -238.5 -98.5t-129.5 -263.5q-29 -166 37 -265.5t204 -99.5q89 0 165.5 43t129.5 123h434q-99 -248 -309.5 -392t-480.5 -144q-214 0 -361 93.5
t-206 260t-21 381.5zM989 1778l359 180l-48 -270l-358 -172l-297 172l45 270z" />
    <glyph glyph-name="ccaron" unicode="&#x10d;" horiz-adv-x="1243" 
d="M47 575q49 271 237.5 429.5t448.5 158.5q220 0 349 -119.5t135 -334.5h-429q-16 112 -124 112q-76 0 -131 -63t-76 -183q-21 -121 12.5 -184t108.5 -63q110 0 161 112h428q-79 -213 -250.5 -333.5t-392.5 -120.5q-127 0 -226.5 41t-163 115.5t-87 186t-0.5 246.5z
M772 1477l358 180l-47 -271l-358 -172l-297 172l45 271z" />
    <glyph glyph-name="Dcaron" unicode="&#x10e;" horiz-adv-x="1505" 
d="M838 1444q170 0 302.5 -53t212.5 -148t109.5 -228.5t1.5 -291.5q-28 -156 -104.5 -289t-190 -229t-265 -150.5t-322.5 -54.5h-572l256 1444h572zM475 352h139q175 0 293 97t150 274q30 178 -53.5 275.5t-258.5 97.5h-137zM944 1778l359 180l-48 -270l-358 -172l-297 172
l45 270z" />
    <glyph glyph-name="dcaron" unicode="&#x10f;" horiz-adv-x="1757" 
d="M1561 1516h294q23 -128 0 -259q-26 -150 -121.5 -242.5t-248.5 -92.5l24 147q113 0 136 141l6 31h-140zM47 575q32 179 122 314t213 204.5t261 69.5q112 0 190 -46t113 -126l92 525h404l-268 -1516h-404l31 160q-61 -80 -156 -127t-211 -47q-211 0 -322 160t-65 429z
M874 575q20 111 -28 174.5t-137 63.5q-91 0 -162 -62.5t-90 -175.5q-21 -111 28 -175t138 -64q90 0 160.5 63t90.5 176z" />
    <glyph glyph-name="Dcroat" unicode="&#x110;" horiz-adv-x="1511" 
d="M844 1444q170 0 302 -53t212 -148t110 -228.5t2 -291.5q-38 -209 -158 -372.5t-308.5 -257t-415.5 -93.5h-572l101 561h-115l57 326h115l98 557h572zM481 352h137q177 0 295 97t148 274q32 178 -51 275.5t-258 97.5h-138l-36 -209h288l-57 -326h-291z" />
    <glyph glyph-name="dcroat" unicode="&#x111;" horiz-adv-x="1429" 
d="M47 575q32 179 122 314t213 204.5t261 69.5q112 0 190 -46t113 -126l39 221h-131l33 181h129l22 123h404l-23 -123h131l-32 -181h-129l-215 -1212h-404l31 160q-61 -80 -156 -127t-211 -47q-211 0 -322 160t-65 429zM874 575q20 111 -28 174.5t-137 63.5
q-91 0 -162 -62.5t-90 -175.5q-21 -111 28 -175t138 -64q90 0 160.5 63t90.5 176z" />
    <glyph glyph-name="Emacron" unicode="&#x112;" horiz-adv-x="1122" 
d="M1190 1444l-55 -318h-523l-41 -239h461l-55 -305h-461l-47 -263h522l-55 -319h-926l256 1444h924zM319 1581l48 270h852l-48 -270h-852z" />
    <glyph glyph-name="emacron" unicode="&#x113;" horiz-adv-x="1261" 
d="M676 846q-76 0 -131.5 -43.5t-81.5 -126.5h356q14 82 -27.5 126t-115.5 44zM1153 397q-70 -180 -242 -295.5t-385 -115.5q-127 0 -227 41t-164 115.5t-87.5 186t-0.5 246.5q49 271 238 429.5t450 158.5q258 0 391 -155t88 -418q-12 -64 -24 -94h-760q-10 -96 28 -142.5
t109 -46.5q101 0 160 90h426zM350 1280l47 270h852l-47 -270h-852z" />
    <glyph glyph-name="Ebreve" unicode="&#x114;" horiz-adv-x="1122" 
d="M1190 1444l-55 -318h-523l-41 -239h461l-55 -305h-461l-47 -263h522l-55 -319h-926l256 1444h924zM1169 1919q-31 -186 -150 -285.5t-284 -99.5q-163 0 -246.5 99.5t-52.5 285.5l6 37h193q-11 -65 22.5 -98t128.5 -33t140.5 33t56.5 98h195z" />
    <glyph glyph-name="ebreve" unicode="&#x115;" horiz-adv-x="1261" 
d="M676 846q-76 0 -131.5 -43.5t-81.5 -126.5h356q14 82 -27.5 126t-115.5 44zM1153 397q-70 -180 -242 -295.5t-385 -115.5q-127 0 -227 41t-164 115.5t-87.5 186t-0.5 246.5q49 271 238 429.5t450 158.5q258 0 391 -155t88 -418q-12 -64 -24 -94h-760q-10 -96 28 -142.5
t109 -46.5q101 0 160 90h426zM1202 1618q-31 -186 -150 -285.5t-284 -99.5q-163 0 -246.5 99.5t-52.5 285.5l6 37h193q-11 -65 22.5 -98t128.5 -33t140.5 33t56.5 98h194z" />
    <glyph glyph-name="Edotaccent" unicode="&#x116;" horiz-adv-x="1122" 
d="M1190 1444l-55 -318h-523l-41 -239h461l-55 -305h-461l-47 -263h522l-55 -319h-926l256 1444h924zM741 1571q-69 0 -108 46.5t-27 115.5q12 70 68 117.5t125 47.5q70 0 108.5 -47t26.5 -118q-12 -69 -67.5 -115.5t-125.5 -46.5z" />
    <glyph glyph-name="edotaccent" unicode="&#x117;" horiz-adv-x="1261" 
d="M676 846q-76 0 -131.5 -43.5t-81.5 -126.5h356q14 82 -27.5 126t-115.5 44zM1153 397q-70 -180 -242 -295.5t-385 -115.5q-127 0 -227 41t-164 115.5t-87.5 186t-0.5 246.5q49 271 238 429.5t450 158.5q258 0 391 -155t88 -418q-12 -64 -24 -94h-760q-10 -96 28 -142.5
t109 -46.5q101 0 160 90h426zM772 1270q-69 0 -108 46.5t-27 115.5q12 70 67.5 117.5t124.5 47.5q70 0 109 -47t27 -118q-12 -69 -67.5 -115.5t-125.5 -46.5z" />
    <glyph glyph-name="Eogonek" unicode="&#x118;" horiz-adv-x="1122" 
d="M1190 1444l-55 -318h-523l-41 -239h461l-55 -305h-461l-47 -263h522l-55 -319l-98 -45q-87 -39 -125.5 -69.5t-44.5 -63.5q-5 -25 13 -40t56 -15q71 0 170 30l-37 -215q-112 -33 -221 -33q-145 0 -220 63t-54 177q22 120 145 211h-510l256 1444h924z" />
    <glyph glyph-name="eogonek" unicode="&#x119;" horiz-adv-x="1261" 
d="M676 846q-76 0 -131.5 -43.5t-81.5 -126.5h356q14 82 -27.5 126t-115.5 44zM668 -399q-112 -33 -222 -33q-145 0 -220 63t-54 176q22 121 147 211q-161 58 -234.5 202.5t-37.5 354.5q49 271 238 429.5t450 158.5q258 0 391 -155t88 -418q-12 -64 -24 -94h-760
q-10 -96 28 -142.5t109 -46.5q101 0 160 90h426q-53 -136 -166.5 -237.5t-263.5 -145.5l-88 -41q-87 -39 -125.5 -69.5t-44.5 -63.5q-5 -25 13.5 -40t56.5 -15q68 0 170 31z" />
    <glyph glyph-name="Ecaron" unicode="&#x11a;" horiz-adv-x="1122" 
d="M1190 1444l-55 -318h-523l-41 -239h461l-55 -305h-461l-47 -263h522l-55 -319h-926l256 1444h924zM780 1778l359 180l-47 -270l-359 -172l-297 172l45 270z" />
    <glyph glyph-name="ecaron" unicode="&#x11b;" horiz-adv-x="1261" 
d="M676 846q-76 0 -131.5 -43.5t-81.5 -126.5h356q14 82 -27.5 126t-115.5 44zM1153 397q-70 -180 -242 -295.5t-385 -115.5q-127 0 -227 41t-164 115.5t-87.5 186t-0.5 246.5q49 271 238 429.5t450 158.5q258 0 391 -155t88 -418q-12 -64 -24 -94h-760q-10 -96 28 -142.5
t109 -46.5q101 0 160 90h426zM811 1477l358 180l-47 -271l-358 -172l-297 172l45 271z" />
    <glyph glyph-name="Gbreve" unicode="&#x11e;" horiz-adv-x="1550" 
d="M90 725q38 214 157 380t302 259.5t401 93.5q272 0 427.5 -131t158.5 -358h-432q-48 118 -217 118q-150 0 -255 -98t-134 -264q-32 -186 43.5 -283.5t253.5 -97.5q210 0 335 191h-403l51 288h750l-70 -389q-49 -84 -120 -159.5t-165.5 -141t-219 -104.5t-259.5 -39
q-219 0 -369.5 93.5t-211.5 260t-23 381.5zM1378 1919q-31 -186 -150 -285.5t-284 -99.5q-163 0 -246.5 99.5t-52.5 285.5l6 37h193q-11 -65 22.5 -98t128.5 -33t140.5 33t56.5 98h194z" />
    <glyph glyph-name="gbreve" unicode="&#x11f;" horiz-adv-x="1392" 
d="M47 575q32 179 122 314t212.5 204.5t259.5 69.5q118 0 196.5 -47t108.5 -127l29 160h401l-200 -1137q-21 -119 -72 -220.5t-133 -182.5t-204.5 -127.5t-272.5 -46.5q-266 0 -404 124.5t-123 340.5h395q3 -55 47 -86t121 -31q204 0 244 229l27 148q-59 -79 -155 -126.5
t-212 -47.5q-211 0 -322 160t-65 429zM874 575q20 111 -28 174.5t-137 63.5q-91 0 -162 -62.5t-90 -175.5q-21 -111 28 -175t138 -64q90 0 160.5 63t90.5 176zM1255 1618q-31 -186 -150 -285.5t-284 -99.5q-163 0 -246.5 99.5t-52.5 285.5l6 37h193q-11 -65 22.5 -98
t128.5 -33t140.5 33t56.5 98h195z" />
    <glyph glyph-name="Gdotaccent" unicode="&#x120;" horiz-adv-x="1550" 
d="M90 725q38 214 157 380t302 259.5t401 93.5q272 0 427.5 -131t158.5 -358h-432q-48 118 -217 118q-150 0 -255 -98t-134 -264q-32 -186 43.5 -283.5t253.5 -97.5q210 0 335 191h-403l51 288h750l-70 -389q-49 -84 -120 -159.5t-165.5 -141t-219 -104.5t-259.5 -39
q-219 0 -369.5 93.5t-211.5 260t-23 381.5zM948 1571q-69 0 -108 46.5t-27 115.5q12 70 68 117.5t125 47.5q70 0 108.5 -47t26.5 -118q-12 -69 -67.5 -115.5t-125.5 -46.5z" />
    <glyph glyph-name="gdotaccent" unicode="&#x121;" horiz-adv-x="1392" 
d="M47 575q32 179 122 314t212.5 204.5t259.5 69.5q118 0 196.5 -47t108.5 -127l29 160h401l-200 -1137q-21 -119 -72 -220.5t-133 -182.5t-204.5 -127.5t-272.5 -46.5q-266 0 -404 124.5t-123 340.5h395q3 -55 47 -86t121 -31q204 0 244 229l27 148q-59 -79 -155 -126.5
t-212 -47.5q-211 0 -322 160t-65 429zM874 575q20 111 -28 174.5t-137 63.5q-91 0 -162 -62.5t-90 -175.5q-21 -111 28 -175t138 -64q90 0 160.5 63t90.5 176zM825 1270q-69 0 -108 46.5t-27 115.5q12 70 68 117.5t125 47.5q70 0 108.5 -47t26.5 -118q-12 -69 -67.5 -115.5
t-125.5 -46.5z" />
    <glyph glyph-name="uni0122" unicode="&#x122;" horiz-adv-x="1556" 
d="M510 -78h295q24 -137 0 -258q-26 -150 -122 -243t-249 -93l27 146q110 0 133 145l6 27h-139zM90 725q38 214 157 380t302 259.5t401 93.5q272 0 427.5 -131t158.5 -358h-432q-48 118 -217 118q-150 0 -255 -98t-134 -264q-32 -186 43.5 -283.5t253.5 -97.5q210 0 335 191
h-403l51 288h750l-70 -389q-49 -84 -120 -159.5t-165.5 -141t-219 -104.5t-259.5 -39q-219 0 -369.5 93.5t-211.5 260t-23 381.5z" />
    <glyph glyph-name="uni0123" unicode="&#x123;" horiz-adv-x="1392" 
d="M989 1227h-295q-23 131 2 258q26 150 121 243t248 93l-27 -146q-110 0 -133 -145l-4 -27h137zM47 575q32 179 122 314t212.5 204.5t259.5 69.5q118 0 196.5 -47t108.5 -127l29 160h401l-200 -1137q-21 -119 -72 -220.5t-133 -182.5t-204.5 -127.5t-272.5 -46.5
q-266 0 -404 124.5t-123 340.5h395q3 -55 47 -86t121 -31q204 0 244 229l27 148q-59 -79 -155 -126.5t-212 -47.5q-211 0 -322 160t-65 429zM874 575q20 111 -28 174.5t-137 63.5q-91 0 -162 -62.5t-90 -175.5q-21 -111 28 -175t138 -64q90 0 160.5 63t90.5 176z" />
    <glyph glyph-name="Itilde" unicode="&#x128;" horiz-adv-x="630" 
d="M10 0l256 1444h402l-254 -1444h-404zM43 1552q113 332 365 332q54 0 102.5 -23t88.5 -46t73 -23q77 0 106 92h203q-114 -330 -365 -330q-43 0 -83.5 14.5t-66.5 32t-57.5 32t-58.5 14.5q-73 0 -106 -95h-201z" />
    <glyph glyph-name="itilde" unicode="&#x129;" horiz-adv-x="710" 
d="M51 0l203 1149h401l-202 -1149h-402zM29 1251q113 332 364 332q54 0 102.5 -23t88.5 -46t73 -23q78 0 107 92h203q-114 -330 -365 -330q-43 0 -83.5 14.5t-66.5 32t-57.5 32t-58.5 14.5q-74 0 -107 -95h-200z" />
    <glyph glyph-name="Imacron" unicode="&#x12a;" horiz-adv-x="630" 
d="M10 0l256 1444h402l-254 -1444h-404zM68 1581l47 270h852l-47 -270h-852z" />
    <glyph glyph-name="imacron" unicode="&#x12b;" horiz-adv-x="710" 
d="M51 0l203 1149h401l-202 -1149h-402zM55 1280l47 270h852l-47 -270h-852z" />
    <glyph glyph-name="uni012C" unicode="&#x12c;" horiz-adv-x="630" 
d="M10 0l256 1444h402l-254 -1444h-404zM920 1919q-31 -186 -150.5 -285.5t-284.5 -99.5q-163 0 -246.5 99.5t-52.5 285.5l7 37h192q-11 -65 23 -98t129 -33t140 33t56 98h195z" />
    <glyph glyph-name="uni012D" unicode="&#x12d;" horiz-adv-x="710" 
d="M51 0l203 1149h401l-202 -1149h-402zM905 1618q-31 -186 -150 -285.5t-284 -99.5q-163 0 -246.5 99.5t-52.5 285.5l6 37h193q-11 -65 22.5 -98t128.5 -33t140.5 33t56.5 98h194z" />
    <glyph glyph-name="Iogonek" unicode="&#x12e;" horiz-adv-x="630" 
d="M348 -418q-112 -33 -221 -33q-145 0 -220 63t-54 177q23 127 159 221l254 1434h402l-254 -1444l-99 -45q-87 -39 -125.5 -69.5t-44.5 -63.5q-5 -25 13.5 -40t56.5 -15q71 0 170 30z" />
    <glyph glyph-name="iogonek" unicode="&#x12f;" horiz-adv-x="630" 
d="M348 -420q-112 -33 -221 -33q-145 0 -220 63t-54 177q23 127 159 219l203 1143h401l-202 -1149v-2l-99 -45q-87 -39 -125.5 -69.5t-44.5 -63.5q-5 -25 13.5 -40.5t56.5 -15.5q68 0 170 31zM436 1255q-105 0 -159 58.5t-39 146.5q15 90 90 149.5t180 59.5q104 0 159 -60
t40 -149q-15 -88 -91 -146.5t-180 -58.5z" />
    <glyph glyph-name="Idotaccent" unicode="&#x130;" horiz-adv-x="630" 
d="M10 0l256 1444h402l-254 -1444h-404zM489 1571q-69 0 -108 46.5t-27 115.5q12 70 68 117.5t125 47.5q70 0 108.5 -47t26.5 -118q-12 -69 -67.5 -115.5t-125.5 -46.5z" />
    <glyph glyph-name="dotlessi" unicode="&#x131;" horiz-adv-x="710" 
d="M51 0l203 1149h401l-202 -1149h-402z" />
    <glyph glyph-name="uni0136" unicode="&#x136;" horiz-adv-x="1554" 
d="M510 -78h293q24 -120 0 -258q-26 -150 -121.5 -243t-247.5 -93l25 146q109 0 135 145l4 27h-137zM866 0l-342 635l-110 -635h-404l256 1444h402l-111 -625l559 625h463l-653 -703l426 -741h-486z" />
    <glyph glyph-name="uni0137" unicode="&#x137;" horiz-adv-x="1325" 
d="M401 -78h293q24 -120 0 -258q-26 -150 -121 -243t-247 -93l24 146q112 0 135 145l7 27h-140zM10 0l269 1516h403l-143 -816l395 449h481l-555 -578l359 -571h-490l-231 469l-84 -469h-404z" />
    <glyph glyph-name="Lacute" unicode="&#x139;" horiz-adv-x="1005" 
d="M266 1444h402l-199 -1139h449l-56 -305h-852zM422 1800l553 232l-53 -303l-549 -201z" />
    <glyph glyph-name="lacute" unicode="&#x13a;" horiz-adv-x="630" 
d="M10 0l269 1516h403l-268 -1516h-404zM283 1866l553 231l-54 -303l-549 -201z" />
    <glyph glyph-name="uni013B" unicode="&#x13b;" horiz-adv-x="1013" 
d="M305 -78h295q24 -137 0 -258q-26 -150 -121 -243t-250 -93l27 146q110 0 133 145l6 27h-139zM266 1444h402l-199 -1139h449l-56 -305h-852z" />
    <glyph glyph-name="uni013C" unicode="&#x13c;" horiz-adv-x="630" 
d="M57 -78h293q26 -129 0 -258q-26 -150 -121 -243t-247 -93l24 146q112 0 135 145l6 27h-139zM10 0l269 1516h403l-268 -1516h-404z" />
    <glyph glyph-name="Lcaron" unicode="&#x13d;" horiz-adv-x="1126" 
d="M872 1444h295q23 -131 -2 -258q-26 -152 -120.5 -245t-247.5 -93l26 149q109 0 133 144l7 28h-140zM266 1444h402l-199 -1139h449l-56 -305h-852z" />
    <glyph glyph-name="lcaron" unicode="&#x13e;" horiz-adv-x="1013" 
d="M803 1516h293q24 -121 0 -259q-26 -150 -121.5 -242.5t-247.5 -92.5l25 147q109 0 135 141l4 31h-137zM10 0l269 1516h403l-268 -1516h-404z" />
    <glyph glyph-name="Ldot" unicode="&#x13f;" horiz-adv-x="1005" 
d="M266 1444h402l-199 -1139h449l-56 -305h-852zM641 1571q-69 0 -108 46.5t-27 115.5q12 70 67.5 117.5t124.5 47.5q70 0 109 -47t27 -118q-12 -69 -67.5 -115.5t-125.5 -46.5z" />
    <glyph glyph-name="ldot" unicode="&#x140;" horiz-adv-x="630" 
d="M498 1616q-69 0 -108.5 46.5t-27.5 115.5q12 70 67.5 117t123.5 47q71 0 110 -47t27 -117q-12 -69 -67 -115.5t-125 -46.5zM10 0l269 1516h403l-268 -1516h-404z" />
    <glyph glyph-name="Lslash" unicode="&#x141;" horiz-adv-x="1030" 
d="M295 1444h403l-75 -430l168 45l-68 -389l-170 -45l-55 -320h448l-55 -305h-852l90 508l-129 -35l68 389l131 35z" />
    <glyph glyph-name="lslash" unicode="&#x142;" horiz-adv-x="710" 
d="M51 0l90 510l-141 -39l68 389l143 39l108 617h402l-88 -502l139 39l-67 -389l-142 -39l-110 -625h-402z" />
    <glyph glyph-name="Nacute" unicode="&#x143;" horiz-adv-x="1566" 
d="M1202 1444h402l-254 -1444h-404l-389 807l-143 -807h-404l256 1444h402l391 -817zM735 1800l553 232l-53 -303l-549 -201z" />
    <glyph glyph-name="nacute" unicode="&#x144;" horiz-adv-x="1404" 
d="M664 1499l553 232l-54 -304l-549 -200zM795 0l108 616q19 99 -22.5 155t-130.5 56q-88 0 -148.5 -54t-77.5 -146l-110 -627h-404l205 1149h401l-28 -164q67 78 165.5 126t215.5 48q198 0 292 -132t54 -357l-119 -670h-401z" />
    <glyph glyph-name="uni0145" unicode="&#x145;" horiz-adv-x="1646" 
d="M553 -78h295q25 -126 2 -258q-28 -151 -123.5 -243.5t-249.5 -92.5l27 146q109 0 135 145l4 27h-137zM1202 1444h402l-254 -1444h-404l-389 807l-143 -807h-404l256 1444h402l391 -817z" />
    <glyph glyph-name="uni0146" unicode="&#x146;" horiz-adv-x="1404" 
d="M473 -78h293q24 -120 0 -258q-26 -150 -121.5 -243t-247.5 -93l25 146q112 0 135 145l4 27h-137zM795 0l108 616q19 99 -22.5 155t-130.5 56q-88 0 -148.5 -54t-77.5 -146l-110 -627h-404l205 1149h401l-28 -164q67 78 165.5 126t215.5 48q198 0 292 -132t54 -357
l-119 -670h-401z" />
    <glyph glyph-name="Ncaron" unicode="&#x147;" horiz-adv-x="1566" 
d="M1202 1444h402l-254 -1444h-404l-389 807l-143 -807h-404l256 1444h402l391 -817zM995 1778l359 180l-47 -270l-359 -172l-297 172l45 270z" />
    <glyph glyph-name="ncaron" unicode="&#x148;" horiz-adv-x="1404" 
d="M795 0l108 616q19 99 -22.5 155t-130.5 56q-88 0 -148.5 -54t-77.5 -146l-110 -627h-404l205 1149h401l-28 -164q67 78 165.5 126t215.5 48q198 0 292 -132t54 -357l-119 -670h-401zM922 1477l358 180l-47 -271l-359 -172l-296 172l45 271z" />
    <glyph glyph-name="Omacron" unicode="&#x14c;" horiz-adv-x="1611" 
d="M1567 866q0 -255 -107.5 -455t-303.5 -312.5t-447 -112.5q-277 0 -445 167t-168 437q0 256 107.5 455.5t301.5 310t443 110.5q283 0 451 -165t168 -435zM494 637q0 -130 71.5 -204.5t204.5 -74.5q121 0 213.5 65t139 168.5t46.5 227.5q0 130 -70.5 203.5t-201.5 73.5
q-121 0 -214.5 -64t-141 -167.5t-47.5 -227.5zM557 1583l47 270h852l-47 -270h-852z" />
    <glyph glyph-name="omacron" unicode="&#x14d;" horiz-adv-x="1302" 
d="M1264 680q0 -198 -94 -357.5t-258 -248t-367 -88.5q-228 0 -368 131t-140 350q0 147 54.5 276.5t149 221.5t228 145t285.5 53q227 0 368.5 -132.5t141.5 -350.5zM451 506q0 -86 42 -130t113 -44q73 0 130 47t85.5 117t28.5 145q0 87 -44 131.5t-114 44.5q-109 0 -175 -95
t-66 -216zM350 1294l47 271h852l-47 -271h-852z" />
    <glyph glyph-name="uni014E" unicode="&#x14e;" horiz-adv-x="1611" 
d="M1567 866q0 -255 -107.5 -455t-303.5 -312.5t-447 -112.5q-277 0 -445 167t-168 437q0 256 107.5 455.5t301.5 310t443 110.5q283 0 451 -165t168 -435zM494 637q0 -130 71.5 -204.5t204.5 -74.5q121 0 213.5 65t139 168.5t46.5 227.5q0 130 -70.5 203.5t-201.5 73.5
q-121 0 -214.5 -64t-141 -167.5t-47.5 -227.5zM1409 1921q-31 -186 -150 -285.5t-284 -99.5q-163 0 -246.5 99.5t-52.5 285.5l6 37h192q-11 -65 23 -98t129 -33t140.5 33t56.5 98h194z" />
    <glyph glyph-name="uni014F" unicode="&#x14f;" horiz-adv-x="1302" 
d="M1264 680q0 -198 -94 -357.5t-258 -248t-367 -88.5q-228 0 -368 131t-140 350q0 147 54.5 276.5t149 221.5t228 145t285.5 53q227 0 368.5 -132.5t141.5 -350.5zM451 506q0 -86 42 -130t113 -44q73 0 130 47t85.5 117t28.5 145q0 87 -44 131.5t-114 44.5q-109 0 -175 -95
t-66 -216zM1202 1632q-31 -186 -150 -285.5t-284 -99.5q-163 0 -246.5 99.5t-52.5 285.5l6 37h193q-11 -65 22.5 -98t128.5 -33t140.5 33t56.5 98h194z" />
    <glyph glyph-name="Ohungarumlaut" unicode="&#x150;" horiz-adv-x="1611" 
d="M1567 866q0 -255 -107.5 -455t-303.5 -312.5t-447 -112.5q-277 0 -445 167t-168 437q0 256 107.5 455.5t301.5 310t443 110.5q283 0 451 -165t168 -435zM494 637q0 -130 71.5 -204.5t204.5 -74.5q121 0 213.5 65t139 168.5t46.5 227.5q0 130 -70.5 203.5t-201.5 73.5
q-121 0 -214.5 -64t-141 -167.5t-47.5 -227.5zM1321 1999h311l-354 -465h-244zM852 1999h311l-307 -465h-244z" />
    <glyph glyph-name="ohungarumlaut" unicode="&#x151;" horiz-adv-x="1302" 
d="M1264 680q0 -198 -94 -357.5t-258 -248t-367 -88.5q-228 0 -368 131t-140 350q0 147 54.5 276.5t149 221.5t228 145t285.5 53q227 0 368.5 -132.5t141.5 -350.5zM451 506q0 -86 42 -130t113 -44q73 0 130 47t85.5 117t28.5 145q0 87 -44 131.5t-114 44.5q-109 0 -175 -95
t-66 -216zM1114 1710h311l-354 -465h-244zM645 1710h311l-307 -465h-243z" />
    <glyph glyph-name="OE" unicode="&#x152;" horiz-adv-x="2174" 
d="M2187 1124h-522l-41 -239h459l-53 -303h-461l-47 -263h522l-55 -319h-926l20 111q-164 -127 -401 -134q-201 0 -347 94.5t-208.5 265.5t-24.5 386t161 385.5t301.5 264t379.5 93.5q110 0 203 -33t153 -98l19 109h924zM911 1096q-156 0 -262 -100.5t-135 -272.5
q-32 -172 38 -273.5t226 -101.5q154 0 260.5 101.5t137.5 273.5q31 171 -40.5 272t-224.5 101z" />
    <glyph glyph-name="oe" unicode="&#x153;" horiz-adv-x="2111" 
d="M844 575q21 117 -24.5 179.5t-127.5 62.5t-148 -62.5t-87 -179.5q-22 -118 22 -180.5t127 -62.5q81 0 148.5 62.5t89.5 180.5zM1485 846q-75 0 -130 -43.5t-81 -126.5h354q14 82 -27 126t-116 44zM47 575q49 268 247 428t460 160q239 0 374 -141q180 141 416 141
q171 0 290 -69t169.5 -199.5t19.5 -304.5q-10 -54 -26 -94h-756q-13 -98 24.5 -143.5t108.5 -45.5q101 0 160 90h428q-72 -180 -243.5 -295.5t-383.5 -115.5q-237 0 -364 143q-185 -143 -426 -143q-263 0 -403.5 159.5t-94.5 429.5z" />
    <glyph glyph-name="Racute" unicode="&#x154;" horiz-adv-x="1353" 
d="M944 958q12 70 -22 111t-115 41h-199l-51 -303h199q161 0 188 151zM266 1444h633q131 0 228.5 -36t152.5 -99t74.5 -146.5t1.5 -181.5q-26 -147 -126 -258.5t-265 -159.5l225 -563h-447l-192 532h-43l-94 -532h-404zM614 1800l553 232l-53 -303l-549 -201z" />
    <glyph glyph-name="racute" unicode="&#x155;" horiz-adv-x="915" 
d="M414 0h-404l205 1149h401l-36 -209q85 101 190.5 160t216.5 59l-74 -428h-112q-127 0 -198.5 -47.5t-96.5 -165.5zM446 1499l553 232l-53 -304l-549 -200z" />
    <glyph glyph-name="uni0156" unicode="&#x156;" horiz-adv-x="1402" 
d="M432 -78h295q24 -137 0 -258q-26 -150 -122 -243t-249 -93l27 146q110 0 133 145l6 27h-139zM414 0h-404l256 1444h633q131 0 228.5 -36t152.5 -99t74.5 -146.5t1.5 -181.5q-26 -147 -126 -258.5t-265 -159.5l225 -563h-447l-192 532h-43zM944 958q12 70 -22 111t-115 41
h-199l-51 -303h199q161 0 188 151z" />
    <glyph glyph-name="uni0157" unicode="&#x157;" horiz-adv-x="915" 
d="M45 -78h295q23 -128 0 -258q-28 -150 -123 -243t-248 -93l27 146q109 0 135 145l4 27h-139zM414 0h-404l205 1149h401l-36 -209q85 101 190.5 160t216.5 59l-74 -428h-112q-127 0 -198.5 -47.5t-96.5 -165.5z" />
    <glyph glyph-name="Rcaron" unicode="&#x158;" horiz-adv-x="1353" 
d="M944 958q12 70 -22 111t-115 41h-199l-51 -303h199q161 0 188 151zM266 1444h633q131 0 228.5 -36t152.5 -99t74.5 -146.5t1.5 -181.5q-26 -147 -126 -258.5t-265 -159.5l225 -563h-447l-192 532h-43l-94 -532h-404zM872 1778l359 180l-47 -270l-359 -172l-297 172
l45 270z" />
    <glyph glyph-name="rcaron" unicode="&#x159;" horiz-adv-x="915" 
d="M414 0h-404l205 1149h401l-36 -209q85 101 190.5 160t216.5 59l-74 -428h-112q-127 0 -198.5 -47.5t-96.5 -165.5zM705 1477l358 180l-47 -271l-359 -172l-297 172l46 271z" />
    <glyph glyph-name="Sacute" unicode="&#x15a;" horiz-adv-x="1294" 
d="M1182 438q0 -198 -155.5 -325t-418.5 -127q-131 0 -236.5 29t-181 85.5t-111 145.5t-22.5 203h424q-6 -70 28.5 -109t106.5 -39q59 0 95.5 26.5t36.5 75.5q0 42 -33 75.5t-86 58.5t-117 51t-128 60t-117 77t-86.5 111t-33.5 153q-1 224 160.5 350.5t421.5 126.5
q164 0 287 -52.5t186.5 -155.5t48.5 -240h-432q10 61 -20 97t-92 36q-55 0 -89 -27.5t-34 -76.5q0 -39 33 -73t85.5 -61t116.5 -55.5t128 -66t116.5 -83t85.5 -115.5t33 -155zM616 1800l553 232l-53 -303l-549 -201z" />
    <glyph glyph-name="sacute" unicode="&#x15b;" horiz-adv-x="1163" 
d="M1042 350q0 -114 -69.5 -197t-188 -125t-272.5 -42q-156 0 -274.5 49.5t-177.5 142t-40 209.5h388q-3 -57 34 -88t103 -31q51 0 85 20.5t34 53.5q0 29 -31.5 51.5t-81.5 39t-110.5 34.5t-121 44.5t-110.5 62t-81.5 95t-31.5 136.5q0 156 134.5 257t353.5 101
q235 0 366.5 -113.5t122.5 -287.5h-360q2 55 -33 87t-100 32q-47 0 -78 -20.5t-31 -53.5q0 -29 31.5 -52t82 -40.5t111 -36.5t121.5 -46t111.5 -62t82 -91.5t31.5 -128.5zM502 1499l553 232l-54 -304l-548 -200z" />
    <glyph glyph-name="uni015E" unicode="&#x15e;" horiz-adv-x="1294" 
d="M1182 438q0 -181 -131.5 -304.5t-358.5 -143.5l-12 -66q46 0 88 -12.5t78 -39t52.5 -75.5t4.5 -114t-47 -114.5t-84 -76.5t-101.5 -40t-107.5 -13h-334l37 211h289q68 0 74 43q4 23 -11.5 33t-48.5 10h-159l47 260q-203 32 -312 147t-88 306h424q-6 -70 28.5 -109
t106.5 -39q59 0 95.5 26.5t36.5 75.5q0 42 -33 75.5t-86 58.5t-117 51t-128 60t-117 77t-86.5 111t-33.5 153q-1 224 160.5 350.5t421.5 126.5q164 0 287 -52.5t186.5 -155.5t48.5 -240h-432q10 61 -20 97t-92 36q-55 0 -89 -27.5t-34 -76.5q0 -39 33 -73t85.5 -61
t116.5 -55.5t128 -66t116.5 -83t85.5 -115.5t33 -155z" />
    <glyph glyph-name="uni015F" unicode="&#x15f;" horiz-adv-x="1163" 
d="M1042 350q0 -147 -111 -239.5t-298 -116.5l-12 -70q46 0 88 -12.5t78 -39t52.5 -75.5t4.5 -114t-47 -114.5t-84 -76.5t-101.5 -40t-107.5 -13h-334l37 211h289q67 0 73 43q4 23 -11 33t-48 10h-160l47 258q-192 27 -297.5 133t-79.5 260h388q-3 -57 34 -88t103 -31
q51 0 85 20.5t34 53.5q0 29 -31.5 51.5t-81.5 39t-110.5 34.5t-121 44.5t-110.5 62t-81.5 95t-31.5 136.5q0 156 134.5 257t353.5 101q235 0 366.5 -113.5t122.5 -287.5h-360q2 55 -33 87t-100 32q-47 0 -78 -20.5t-31 -53.5q0 -29 31.5 -52t82 -40.5t111 -36.5t121.5 -46
t111.5 -62t82 -91.5t31.5 -128.5z" />
    <glyph glyph-name="Scaron" unicode="&#x160;" horiz-adv-x="1294" 
d="M1182 438q0 -198 -155.5 -325t-418.5 -127q-131 0 -236.5 29t-181 85.5t-111 145.5t-22.5 203h424q-6 -70 28.5 -109t106.5 -39q59 0 95.5 26.5t36.5 75.5q0 42 -33 75.5t-86 58.5t-117 51t-128 60t-117 77t-86.5 111t-33.5 153q-1 224 160.5 350.5t421.5 126.5
q164 0 287 -52.5t186.5 -155.5t48.5 -240h-432q10 61 -20 97t-92 36q-55 0 -89 -27.5t-34 -76.5q0 -39 33 -73t85.5 -61t116.5 -55.5t128 -66t116.5 -83t85.5 -115.5t33 -155zM874 1778l359 180l-47 -270l-359 -172l-297 172l45 270z" />
    <glyph glyph-name="scaron" unicode="&#x161;" horiz-adv-x="1163" 
d="M1042 350q0 -114 -69.5 -197t-188 -125t-272.5 -42q-156 0 -274.5 49.5t-177.5 142t-40 209.5h388q-3 -57 34 -88t103 -31q51 0 85 20.5t34 53.5q0 29 -31.5 51.5t-81.5 39t-110.5 34.5t-121 44.5t-110.5 62t-81.5 95t-31.5 136.5q0 156 134.5 257t353.5 101
q235 0 366.5 -113.5t122.5 -287.5h-360q2 55 -33 87t-100 32q-47 0 -78 -20.5t-31 -53.5q0 -29 31.5 -52t82 -40.5t111 -36.5t121.5 -46t111.5 -62t82 -91.5t31.5 -128.5zM760 1477l358 180l-47 -271l-358 -172l-297 172l45 271z" />
    <glyph glyph-name="uni0162" unicode="&#x162;" horiz-adv-x="1236" 
d="M129 1124l57 320h1168l-58 -320h-383l-198 -1124h-74l-14 -76q46 0 88 -12.5t78 -39t52.5 -75.5t4.5 -114t-47 -114.5t-84 -76.5t-101.5 -40t-107.5 -13h-334l37 211h289q67 0 73 43q4 23 -11 33t-48 10h-160l50 264h-95l199 1124h-381z" />
    <glyph glyph-name="uni0163" unicode="&#x163;" horiz-adv-x="862" 
d="M152 436l67 379h-141l59 334h142l49 278h403l-49 -278h207l-60 -334h-206l-70 -385q-8 -46 11 -67t71 -21h117l-62 -342h-176h-16l-13 -66q35 0 69 -7.5t67.5 -25t54.5 -45t32 -68.5t-1 -95q-11 -65 -45.5 -114.5t-83.5 -76.5t-101.5 -40t-107.5 -13h-336l39 211h286
q67 0 76 43q4 22 -11.5 32.5t-47.5 10.5h-160l53 307q-165 99 -116 383z" />
    <glyph glyph-name="Tcaron" unicode="&#x164;" horiz-adv-x="1236" 
d="M129 1124l57 320h1168l-58 -320h-383l-198 -1124h-404l199 1124h-381zM821 1778l359 180l-47 -270l-359 -172l-297 172l45 270z" />
    <glyph glyph-name="tcaron" unicode="&#x165;" horiz-adv-x="864" 
d="M874 1772h293q25 -138 7 -238q-24 -135 -117 -215t-248 -80l27 147q108 0 120 76l7 35h-138zM152 436l67 379h-141l59 334h142l49 278h403l-49 -278h207l-60 -334h-206l-70 -385q-8 -46 11 -67t71 -21h117l-62 -342h-176q-79 0 -140.5 13.5t-113 45t-79 81.5t-38 123.5
t8.5 172.5z" />
    <glyph glyph-name="Utilde" unicode="&#x168;" horiz-adv-x="1458" 
d="M113 606l147 838h399l-145 -838q-21 -114 21 -177.5t153 -63.5t178 63.5t88 177.5l148 838h401l-147 -838q-27 -154 -96.5 -274t-168 -195t-218.5 -113t-255 -38q-132 0 -236 39t-174.5 116.5t-95.5 194t1 270.5zM457 1552q113 332 364 332q54 0 102.5 -23t88.5 -46
t73 -23q78 0 107 92h203q-114 -330 -365 -330q-43 0 -83.5 14.5t-66.5 32t-57.5 32t-58.5 14.5q-74 0 -107 -95h-200z" />
    <glyph glyph-name="utilde" unicode="&#x169;" horiz-adv-x="1404" 
d="M784 0l29 164q-67 -78 -165 -126t-214 -48q-200 0 -293.5 132t-52.5 359l117 668h401l-108 -617q-18 -98 23.5 -154t129.5 -56t148.5 54t77.5 146l110 627h404l-205 -1149h-402zM377 1251q113 332 364 332q54 0 103 -23t89 -46t73 -23q77 0 106 92h203
q-114 -330 -365 -330q-43 0 -83.5 14.5t-66.5 32t-57.5 32t-58.5 14.5q-73 0 -106 -95h-201z" />
    <glyph glyph-name="Umacron" unicode="&#x16a;" horiz-adv-x="1458" 
d="M113 606l147 838h399l-145 -838q-21 -114 21 -177.5t153 -63.5t178 63.5t88 177.5l148 838h401l-147 -838q-27 -154 -96.5 -274t-168 -195t-218.5 -113t-255 -38q-132 0 -236 39t-174.5 116.5t-95.5 194t1 270.5zM481 1581l47 270h852l-47 -270h-852z" />
    <glyph glyph-name="umacron" unicode="&#x16b;" horiz-adv-x="1404" 
d="M1391 1149l-205 -1149h-402l29 164q-67 -78 -165 -126t-214 -48q-200 0 -293.5 132t-52.5 359l117 668h401l-108 -617q-18 -98 23.5 -154t129.5 -56t148.5 54t77.5 146l110 627h404zM401 1280l48 270h851l-47 -270h-852z" />
    <glyph glyph-name="Ubreve" unicode="&#x16c;" horiz-adv-x="1458" 
d="M113 606l147 838h399l-145 -838q-21 -114 21 -177.5t153 -63.5t178 63.5t88 177.5l148 838h401l-147 -838q-27 -154 -96.5 -274t-168 -195t-218.5 -113t-255 -38q-132 0 -236 39t-174.5 116.5t-95.5 194t1 270.5zM1331 1919q-31 -186 -150 -285.5t-284 -99.5
q-163 0 -246.5 99.5t-52.5 285.5l6 37h193q-11 -65 22.5 -98t128.5 -33t140.5 33t56.5 98h194z" />
    <glyph glyph-name="ubreve" unicode="&#x16d;" horiz-adv-x="1404" 
d="M1391 1149l-205 -1149h-402l29 164q-67 -78 -165 -126t-214 -48q-200 0 -293.5 132t-52.5 359l117 668h401l-108 -617q-18 -98 23.5 -154t129.5 -56t148.5 54t77.5 146l110 627h404zM1251 1618q-31 -186 -150 -285.5t-284 -99.5q-163 0 -246.5 99.5t-52.5 285.5l6 37h193
q-11 -65 22.5 -98t128.5 -33t140.5 33t56.5 98h195z" />
    <glyph glyph-name="Uring" unicode="&#x16e;" horiz-adv-x="1458" 
d="M113 606l147 838h399l-145 -838q-21 -114 21 -177.5t153 -63.5t178 63.5t88 177.5l148 838h401l-147 -838q-27 -154 -96.5 -274t-168 -195t-218.5 -113t-255 -38q-132 0 -236 39t-174.5 116.5t-95.5 194t1 270.5zM682 1780q21 118 107.5 189t197.5 71t173.5 -71
t39.5 -189q-20 -117 -106.5 -187.5t-196.5 -70.5t-172.5 70.5t-42.5 187.5zM1038 1782q7 44 -15.5 71t-64.5 27t-73.5 -27t-40.5 -71q-7 -43 16 -71t64 -28q42 0 74.5 27.5t39.5 71.5z" />
    <glyph glyph-name="uring" unicode="&#x16f;" horiz-adv-x="1404" 
d="M1391 1149l-205 -1149h-402l29 164q-67 -78 -165 -126t-214 -48q-200 0 -293.5 132t-52.5 359l117 668h401l-108 -617q-18 -98 23.5 -154t129.5 -56t148.5 54t77.5 146l110 627h404zM958 1481q7 44 -15 71t-64 27t-74 -27t-41 -71q-7 -43 16 -71t64 -28q42 0 74.5 27.5
t39.5 71.5zM602 1479q21 118 107.5 189t197.5 71t173.5 -71t39.5 -189q-20 -117 -106.5 -187.5t-196.5 -70.5t-172.5 70.5t-42.5 187.5z" />
    <glyph glyph-name="Uhungarumlaut" unicode="&#x170;" horiz-adv-x="1458" 
d="M113 606l147 838h399l-145 -838q-21 -114 21 -177.5t153 -63.5t178 63.5t88 177.5l148 838h401l-147 -838q-27 -154 -96.5 -274t-168 -195t-218.5 -113t-255 -38q-132 0 -236 39t-174.5 116.5t-95.5 194t1 270.5zM1245 1997h311l-354 -465h-244zM776 1997h311l-307 -465
h-243z" />
    <glyph glyph-name="uhungarumlaut" unicode="&#x171;" horiz-adv-x="1404" 
d="M1391 1149l-205 -1149h-402l29 164q-67 -78 -165 -126t-214 -48q-200 0 -293.5 132t-52.5 359l117 668h401l-108 -617q-18 -98 23.5 -154t129.5 -56t148.5 54t77.5 146l110 627h404zM694 1696h312l-308 -465h-243zM1163 1696h312l-355 -465h-243z" />
    <glyph glyph-name="Uogonek" unicode="&#x172;" horiz-adv-x="1458" 
d="M113 606l147 838h399l-145 -838q-21 -114 21 -177.5t153 -63.5t178 63.5t88 177.5l148 838h401l-147 -838q-44 -250 -192 -403t-361 -199l-98 -45q-87 -39 -125.5 -69.5t-44.5 -63.5q-5 -25 13 -40t56 -15q71 0 170 30l-37 -215q-109 -32 -221 -32q-145 0 -220 63
t-54 176q22 127 164 223q-174 56 -254 207t-39 383z" />
    <glyph glyph-name="uogonek" unicode="&#x173;" horiz-adv-x="1404" 
d="M1391 1149l-205 -1149h-2l2 -6l-99 -45q-86 -39 -124.5 -69.5t-44.5 -63.5q-5 -25 13.5 -40.5t55.5 -15.5q68 0 170 31l-37 -215q-112 -33 -221 -33q-145 0 -220 63t-54 177q22 125 159 221l29 160q-67 -78 -165 -126t-214 -48q-200 0 -293.5 132t-52.5 359l117 668h401
l-108 -617q-18 -98 23.5 -154t129.5 -56t148.5 54t77.5 146l110 627h404z" />
    <glyph glyph-name="Wcircumflex" unicode="&#x174;" horiz-adv-x="2203" 
d="M301 0l-94 1444h434l-4 -987l399 987h441l47 -983l342 983h434l-608 -1444h-494l-43 887l-360 -887h-494zM1587 1780l-47 -269l-297 179l-358 -179l45 269l360 174z" />
    <glyph glyph-name="wcircumflex" unicode="&#x175;" horiz-adv-x="1812" 
d="M190 0l-88 1149h402l-6 -762l305 762h428l41 -766l264 766h375l-496 -1149h-448l-37 696l-289 -696h-451zM1395 1483l-47 -269l-297 179l-359 -179l45 269l361 174z" />
    <glyph glyph-name="Ycircumflex" unicode="&#x176;" horiz-adv-x="1435" 
d="M494 459l-334 985h458l156 -559l352 559h453l-682 -985l-82 -459h-401zM1260 1784l-48 -268l-297 178l-358 -178l45 268l361 174z" />
    <glyph glyph-name="ycircumflex" unicode="&#x177;" horiz-adv-x="1341" 
d="M367 49l-277 1100h447l125 -651l348 651h440l-1026 -1696h-436zM1157 1483l-47 -269l-297 179l-358 -179l45 269l360 174z" />
    <glyph glyph-name="Ydieresis" unicode="&#x178;" horiz-adv-x="1435" 
d="M494 459l-334 985h458l156 -559l352 559h453l-682 -985l-82 -459h-401zM676 1571q-61 0 -99 37t-38 94q0 82 58 139t136 57q63 0 100 -37t37 -98q0 -79 -58.5 -135.5t-135.5 -56.5zM1110 1571q-60 0 -98.5 37t-38.5 94q0 82 58.5 139t135.5 57q63 0 101.5 -37.5
t38.5 -97.5q0 -79 -59 -135.5t-138 -56.5z" />
    <glyph glyph-name="Zacute" unicode="&#x179;" horiz-adv-x="1255" 
d="M1305 1444l-54 -305l-745 -813h600l-55 -326h-1051l53 305l738 815h-594l57 324h1051zM582 1800l553 232l-54 -303l-549 -201z" />
    <glyph glyph-name="zacute" unicode="&#x17a;" horiz-adv-x="1038" 
d="M1069 1149l-55 -318l-561 -497h489l-59 -334h-934l57 317l545 498h-453l60 334h911zM430 1499l553 232l-53 -304l-549 -200z" />
    <glyph glyph-name="Zdotaccent" unicode="&#x17b;" horiz-adv-x="1255" 
d="M1305 1444l-54 -305l-745 -813h600l-55 -326h-1051l53 305l738 815h-594l57 324h1051zM801 1571q-69 0 -108 46.5t-27 115.5q12 70 67.5 117.5t124.5 47.5q70 0 108.5 -47t26.5 -118q-12 -69 -67 -115.5t-125 -46.5z" />
    <glyph glyph-name="zdotaccent" unicode="&#x17c;" horiz-adv-x="1038" 
d="M1069 1149l-55 -318l-561 -497h489l-59 -334h-934l57 317l545 498h-453l60 334h911zM649 1270q-69 0 -108 46.5t-27 115.5q12 70 68 117.5t125 47.5q70 0 108.5 -47t26.5 -118q-12 -69 -67.5 -115.5t-125.5 -46.5z" />
    <glyph glyph-name="Zcaron" unicode="&#x17d;" horiz-adv-x="1255" 
d="M1305 1444l-54 -305l-745 -813h600l-55 -326h-1051l53 305l738 815h-594l57 324h1051zM840 1778l358 180l-47 -270l-358 -172l-297 172l45 270z" />
    <glyph glyph-name="zcaron" unicode="&#x17e;" horiz-adv-x="1038" 
d="M1069 1149l-55 -318l-561 -497h489l-59 -334h-934l57 317l545 498h-453l60 334h911zM688 1477l359 180l-48 -271l-358 -172l-297 172l45 271z" />
    <glyph glyph-name="uni018F" unicode="&#x18f;" horiz-adv-x="1589" 
d="M739 352q123 0 224 65.5t137 180.5h-608q-12 -115 57 -180.5t190 -65.5zM684 -18q-132 0 -244.5 44t-190 121.5t-121.5 186.5t-44 235q0 138 43 260h1016q15 131 -54.5 210t-197.5 79q-95 0 -176 -44.5t-119 -119.5h-428q90 239 298.5 382t473.5 143q182 0 322.5 -77
t216 -210.5t75.5 -300.5q0 -250 -110 -457.5t-310 -329.5t-450 -122z" />
    <glyph glyph-name="florin" unicode="&#x192;" horiz-adv-x="692" 
d="M272 1176q64 227 224 332.5t432 105.5l-94 -342q-69 0 -107.5 -21.5t-52.5 -74.5l-8 -27h147l-94 -334h-148l-280 -999q-33 -117 -90.5 -198.5t-134.5 -125.5t-161 -63t-186 -19h-61l92 342h68q53 0 69 64l283 999h-96l94 334h96z" />
    <glyph glyph-name="uni01FC" unicode="&#x1fc;" horiz-adv-x="1988" 
d="M918 1796l552 232l-53 -304l-549 -200zM1094 1139l-408 -615h299zM1999 1126h-506l-41 -235h444l-53 -303h-444l-49 -269h505l-55 -319h-909l39 221h-445l-145 -221h-438l970 1444h1182z" />
    <glyph glyph-name="uni01FD" unicode="&#x1fd;" horiz-adv-x="2174" 
d="M1550 846q-81 0 -146 -41.5t-97 -128.5h426q13 81 -39.5 125.5t-143.5 44.5zM2064 397q-71 -182 -217 -296.5t-325 -114.5q-122 0 -205.5 46.5t-116.5 127.5l-29 -160h-399l31 160q-64 -81 -159 -127.5t-210 -46.5q-211 0 -322 160t-65 429q32 179 122 314t213.5 204.5
t262.5 69.5q232 0 303 -172l29 158h397l-28 -158q134 172 383 172q222 0 332 -155.5t65 -417.5q-9 -49 -27 -94h-823q-6 -100 41 -146.5t127 -46.5q134 0 194 94h426zM457 575q-21 -111 28 -175t138 -64q90 0 160.5 63t90.5 176q20 111 -28 174.5t-137 63.5
q-91 0 -162 -62.5t-90 -175.5zM1022 1499l553 232l-53 -304l-549 -200z" />
    <glyph glyph-name="uni0218" unicode="&#x218;" horiz-adv-x="1363" 
d="M416 -78h293q25 -126 2 -258q-28 -151 -123.5 -243.5t-249.5 -92.5l27 146q109 0 135 145l4 27h-137zM1182 438q0 -198 -155.5 -325t-418.5 -127q-131 0 -236.5 29t-181 85.5t-111 145.5t-22.5 203h424q-6 -70 28.5 -109t106.5 -39q59 0 95.5 26.5t36.5 75.5
q0 42 -33 75.5t-86 58.5t-117 51t-128 60t-117 77t-86.5 111t-33.5 153q-1 224 160.5 350.5t421.5 126.5q164 0 287 -52.5t186.5 -155.5t48.5 -240h-432q10 61 -20 97t-92 36q-55 0 -89 -27.5t-34 -76.5q0 -39 33 -73t85.5 -61t116.5 -55.5t128 -66t116.5 -83t85.5 -115.5
t33 -155z" />
    <glyph glyph-name="uni0219" unicode="&#x219;" horiz-adv-x="1163" 
d="M311 -78h295q23 -128 0 -258q-28 -151 -122.5 -243.5t-247.5 -92.5l26 146q109 0 135 145l4 27h-139zM1042 350q0 -114 -69.5 -197t-188 -125t-272.5 -42q-156 0 -274.5 49.5t-177.5 142t-40 209.5h388q-3 -57 34 -88t103 -31q51 0 85 20.5t34 53.5q0 29 -31.5 51.5
t-81.5 39t-110.5 34.5t-121 44.5t-110.5 62t-81.5 95t-31.5 136.5q0 156 134.5 257t353.5 101q235 0 366.5 -113.5t122.5 -287.5h-360q2 55 -33 87t-100 32q-47 0 -78 -20.5t-31 -53.5q0 -29 31.5 -52t82 -40.5t111 -36.5t121.5 -46t111.5 -62t82 -91.5t31.5 -128.5z" />
    <glyph glyph-name="uni021A" unicode="&#x21a;" horiz-adv-x="1236" 
d="M352 -78h293q24 -120 0 -258q-26 -150 -121.5 -243t-247.5 -93l25 146q112 0 135 145l4 27h-137zM129 1124l57 320h1168l-58 -320h-383l-198 -1124h-404l199 1124h-381z" />
    <glyph glyph-name="uni021B" unicode="&#x21b;" horiz-adv-x="862" 
d="M178 -78h293q25 -126 2 -258q-28 -151 -123.5 -243.5t-249.5 -92.5l27 146q109 0 135 145l4 27h-137zM152 436l67 379h-141l59 334h142l49 278h403l-49 -278h207l-60 -334h-206l-70 -385q-8 -46 11 -67t71 -21h117l-62 -342h-176q-79 0 -140.5 13.5t-113 45t-79 81.5
t-38 123.5t8.5 172.5z" />
    <glyph glyph-name="uni0259" unicode="&#x259;" horiz-adv-x="1261" 
d="M586 303q76 0 131.5 43.5t81.5 126.5h-357q-14 -82 28 -126t116 -44zM526 -14q-258 0 -391 155t-88 418q11 59 25 94h759q10 96 -28 142.5t-109 46.5q-100 0 -159 -90h-426q70 180 241.5 295.5t384.5 115.5q127 0 227 -41t164 -116t87.5 -186.5t0.5 -246.5
q-49 -271 -238 -429t-450 -158z" />
    <glyph glyph-name="uni02BC" unicode="&#x2bc;" horiz-adv-x="708" 
d="M442 866h-266l199 578h405z" />
    <glyph glyph-name="circumflex" unicode="&#x2c6;" horiz-adv-x="696" 
d="M836 1483l-48 -269l-296 179l-359 -179l45 269l361 174z" />
    <glyph glyph-name="caron" unicode="&#x2c7;" horiz-adv-x="696" 
d="M508 1477l358 180l-47 -271l-358 -172l-297 172l45 271z" />
    <glyph glyph-name="uni02C9" unicode="&#x2c9;" horiz-adv-x="892" 
d="M143 1280l47 270h852l-47 -270h-852z" />
    <glyph glyph-name="breve" unicode="&#x2d8;" horiz-adv-x="774" 
d="M936 1618q-31 -186 -150 -285.5t-284 -99.5q-163 0 -246.5 99.5t-52.5 285.5l6 37h192q-11 -65 23 -98t129 -33t140.5 33t56.5 98h194z" />
    <glyph glyph-name="dotaccent" unicode="&#x2d9;" horiz-adv-x="368" 
d="M305 1270q-69 0 -108 46.5t-27 115.5q12 70 67.5 117.5t124.5 47.5q70 0 109 -47t27 -118q-12 -69 -67.5 -115.5t-125.5 -46.5z" />
    <glyph glyph-name="ring" unicode="&#x2da;" horiz-adv-x="557" 
d="M178 1479q21 118 107.5 189t197.5 71t173.5 -71t39.5 -189q-20 -117 -106.5 -187.5t-196.5 -70.5t-172.5 70.5t-42.5 187.5zM535 1481q7 44 -15.5 71t-64.5 27t-74 -27t-41 -71q-7 -43 16 -71t64 -28q42 0 75 27.5t40 71.5z" />
    <glyph glyph-name="ogonek" unicode="&#x2db;" horiz-adv-x="585" 
d="M322 143l84 33l49 -176l-99 -45q-87 -39 -125.5 -69.5t-44.5 -63.5q-5 -25 13.5 -40t56.5 -15q71 0 170 30l-37 -215q-112 -33 -221 -33q-145 0 -220 63t-54 177q18 102 112.5 185t315.5 169z" />
    <glyph glyph-name="tilde" unicode="&#x2dc;" horiz-adv-x="888" 
d="M123 1251q113 332 364 332q54 0 103 -23t89 -46t73 -23q77 0 106 92h203q-114 -330 -365 -330q-43 0 -83.5 14.5t-66.5 32t-57.5 32t-58.5 14.5q-73 0 -106 -95h-201z" />
    <glyph glyph-name="hungarumlaut" unicode="&#x2dd;" horiz-adv-x="978" 
d="M844 1696h311l-354 -465h-244zM375 1696h311l-307 -465h-244z" />
    <glyph glyph-name="pi" unicode="&#x3c0;" horiz-adv-x="1449" 
d="M76 846l55 303h1393l-54 -303h-139l-149 -846h-402l148 846h-312l-147 -846h-403l149 846h-139z" />
    <glyph glyph-name="dvCandrabindu" unicode="&#x901;" horiz-adv-x="0" 
d="M-162 1657q-152 0 -261.5 52t-161 156t-25.5 246h293q-14 -85 34.5 -139.5t149.5 -54.5q102 0 170 55t82 139h297q-37 -220 -184 -337t-394 -117zM-117 2023q-56 0 -88 39.5t-22 96.5q9 57 56 97t103 40q59 0 91.5 -39.5t23.5 -97.5q-11 -57 -57.5 -96.5t-106.5 -39.5z
" />
    <glyph glyph-name="dvAnusvara" unicode="&#x902;" horiz-adv-x="0" 
d="M-186 1651q-87 0 -137 61t-35 148q15 89 86 150t159 61q89 0 140 -61t36 -150q-15 -87 -87.5 -148t-161.5 -61z" />
    <glyph glyph-name="dvVisarga" unicode="&#x903;" horiz-adv-x="604" 
d="M317 735q-88 0 -138.5 60.5t-35.5 148.5q15 86 87.5 147.5t160.5 61.5q87 0 137.5 -61t36.5 -148q-15 -87 -87.5 -148t-160.5 -61zM213 150q-88 0 -138.5 60t-35.5 146q15 89 87.5 150t160.5 61t138.5 -61t35.5 -150q-15 -86 -87.5 -146t-160.5 -60z" />
    <glyph glyph-name="dvA" unicode="&#x905;" horiz-adv-x="1722" 
d="M580 991q65 0 111.5 31.5t56.5 85.5q9 52 -16 83.5t-73 31.5q-50 0 -87 -31t-46 -78h-338q32 187 176.5 303.5t348.5 116.5q200 0 299.5 -102.5t68.5 -274.5q-19 -108 -85.5 -186t-170.5 -115l-2 -8q46 -13 92 -49h297l125 717h547l-51 -308h-180l-213 -1208h-369l88 496
h-174q-41 -171 -174.5 -271t-318.5 -100q-222 0 -335.5 120.5t-78.5 317.5h344q-9 -52 18 -87.5t84 -35.5q55 0 92.5 34t45.5 89q11 58 -23 95.5t-113 37.5h-96l53 295h97z" />
    <glyph glyph-name="dvAA" unicode="&#x906;" horiz-adv-x="2390" 
d="M580 991q65 0 111.5 31.5t56.5 85.5q9 52 -16 83.5t-73 31.5q-50 0 -87 -31t-46 -78h-338q32 187 176.5 303.5t348.5 116.5q200 0 299.5 -102.5t68.5 -274.5q-19 -108 -85.5 -186t-170.5 -115l-2 -8q46 -13 92 -49h297l125 717h1215l-55 -308h-177l-213 -1208h-368
l211 1208h-297l-213 -1208h-369l88 496h-174q-41 -171 -174.5 -271t-318.5 -100q-222 0 -335.5 120.5t-78.5 317.5h344q-9 -52 18 -87.5t84 -35.5q55 0 92.5 34t45.5 89q11 58 -23 95.5t-113 37.5h-96l53 295h97z" />
    <glyph glyph-name="dvI" unicode="&#x907;" horiz-adv-x="1200" 
d="M61 1208l54 308h1251l-53 -308h-254l-33 -190l-35 -191h-385q-97 0 -110 -71q-6 -33 16 -50.5t66 -17.5h88q65 0 122.5 -13.5t108.5 -42t82.5 -74.5t45.5 -111t-3 -150q-26 -156 -136.5 -247.5t-275.5 -90.5q-137 2 -215 80l-37 -217h-350l92 528h332q-7 -58 23.5 -88.5
t91.5 -30.5q54 0 87.5 27t41.5 70q17 102 -127 102q-82 0 -133 2q-62 4 -117.5 26t-100 61.5t-64.5 105t-5 147.5q28 162 145 240t285 78h121l20 118h-639z" />
    <glyph glyph-name="dvII" unicode="&#x908;" horiz-adv-x="1183" 
d="M395 39l-37 -217h-350l92 528h332q-7 -58 23.5 -88.5t91.5 -30.5q54 0 88.5 27t40.5 70q7 53 -25.5 77.5t-101.5 24.5q-82 0 -133 2q-62 4 -117.5 26t-100 61.5t-64.5 105t-5 147.5q28 162 145 240t285 78h123l23 118h-642l56 308h645l22 124q13 69 35 130.5t63 123.5
t95 106.5t135.5 72.5t179.5 28q210 0 298 -119t40 -325h-323q17 66 -0.5 101.5t-61.5 35.5q-50 0 -78.5 -36t-42.5 -111l-20 -131h264l-55 -308h-252l-35 -190h-2l-35 -191h-385q-99 0 -110 -71q-6 -33 16 -50.5t66 -17.5h88q65 0 122.5 -13.5t108.5 -42t82.5 -74.5
t45.5 -111t-3 -150q-26 -156 -136.5 -247.5t-275.5 -90.5q-137 2 -215 80z" />
    <glyph glyph-name="dvU" unicode="&#x909;" horiz-adv-x="1150" 
d="M49 1206l55 310h1209l-56 -310h-157l-17 -94q-21 -122 -83 -200t-144 -99l-2 -6q94 -31 139.5 -126.5t24.5 -225.5q-36 -201 -184 -323t-369 -122q-236 0 -356.5 129.5t-79.5 354.5h352q-14 -68 21 -112t102 -44q66 0 112.5 40.5t57.5 106.5t-21 111t-110 45h-133l57 322
h78q70 0 121 40t67 127l12 76h-696z" />
    <glyph glyph-name="dvUU" unicode="&#x90a;" horiz-adv-x="1734" 
d="M49 1208l55 308h1792l-53 -308h-743l-17 -96q-21 -122 -83 -200t-144 -99l-2 -6h346q224 0 335 -100.5t77 -300.5q-30 -166 -150.5 -268.5t-306.5 -102.5q-57 0 -125 12l49 277h62q47 0 78.5 24.5t40.5 69.5q7 47 -20.5 72.5t-84.5 25.5h-139q0 -28 -8 -82
q-33 -186 -180 -305t-363 -119q-236 0 -356.5 129.5t-79.5 354.5h352q-14 -68 21 -112t102 -44q66 0 112.5 40.5t57.5 106.5t-21 111t-110 45h-133l57 322h78q70 0 121 40t67 127l15 78h-699z" />
    <glyph glyph-name="dvvR" unicode="&#x90b;" horiz-adv-x="2172" 
d="M829 0l52 287l-379 -287h-471l2 16l899 617q-18 57 -66 90t-121 33q-120 0 -199 -71t-100 -187h-368q44 255 207 412t403 157q210 0 307 -127l47 268h-991l53 308h2231l-51 -308h-902l-49 -276h277q55 0 89 23t40 65l12 70h317l-124 -713h-60q-75 0 -119 -34t-53 -89
q-11 -61 30.5 -90t117.5 -29q44 0 118 17l-51 -293q-104 -17 -168 -17q-212 0 -324.5 100.5t-82.5 278.5q23 127 104 215t203 129l18 103q-89 -27 -176 -27h-219l-113 -641h-340z" />
    <glyph glyph-name="dvvL" unicode="&#x90c;" horiz-adv-x="1857" 
d="M35 1208l55 308h1915l-53 -308h-391l-31 -174q110 -50 161.5 -166.5t22.5 -294.5q-18 -116 -69 -204h-13q-109 0 -160 -33t-61 -94q-9 -56 36 -84.5t124 -28.5q72 0 121 12l-54 -293q-86 -12 -168 -12q-143 0 -242.5 43.5t-145.5 132t-25 211.5q21 112 99 197t185 125
q1 5 3.5 15t3.5 15q14 78 -17 125.5t-100 47.5q-81 0 -129 -58t-62 -141l-12 -68h-305l12 68q6 51 1.5 95t-36.5 74t-86 30q-75 0 -125 -49t-65 -132q-34 -198 149 -198q33 0 56 2l-56 -320q-35 -2 -73 -2q-260 0 -376.5 140.5t-74.5 383.5q22 126 79 224t135.5 157t168 89
t184.5 30q132 0 210 -58t106 -157h8q84 134 234 186l30 164h-1169z" />
    <glyph glyph-name="dvEcandra" unicode="&#x90d;" horiz-adv-x="1337" 
d="M774 1667q-258 0 -364.5 121.5t-69.5 333.5h317q-16 -83 23.5 -134t140.5 -51q99 0 157.5 51t72.5 134h315q-37 -212 -186 -333.5t-406 -121.5zM-8 1208l55 308h1395l-56 -308h-161l-25 -137q-21 -121 -63 -208.5t-110.5 -147.5t-171 -81t-237.5 -1l60 330
q141 -24 166 116l22 129h-321l-119 -673q-14 -90 21.5 -136.5t103.5 -46.5q66 0 112 39.5t58 108.5h362q-36 -220 -184.5 -340.5t-374.5 -120.5q-258 0 -380.5 140t-82.5 368l115 661h-184z" />
    <glyph glyph-name="dvE" unicode="&#x90f;" horiz-adv-x="1335" 
d="M47 1208l55 308h1395l-55 -308h-162l-25 -137q-21 -121 -63 -208.5t-110 -147.5t-170.5 -80.5t-237.5 -1.5l59 330q141 -24 166 116l23 129h-322l-119 -673q-14 -90 21.5 -136.5t103.5 -46.5q66 0 112 39.5t58 108.5h363q-36 -220 -184.5 -340.5t-374.5 -120.5
q-258 0 -380.5 140t-82.5 368l114 661h-184z" />
    <glyph glyph-name="dvAI" unicode="&#x910;" horiz-adv-x="1337" 
d="M582 39q-258 0 -380.5 140t-82.5 368l114 661h-184l55 308h865q-41 86 -67.5 129.5t-62.5 73t-75.5 37t-108.5 7.5h-114l53 297h108q90 -1 149 -7.5t117.5 -28t99 -56.5t83.5 -98t81 -146.5t83 -207.5h184l-55 -308h-162l-25 -137q-21 -121 -63 -208.5t-110 -147.5
t-170.5 -80.5t-237.5 -1.5l59 330q141 -24 166 116l23 129h-322l-119 -673q-14 -90 21.5 -136.5t103.5 -46.5q66 0 112 39.5t58 108.5h363q-36 -220 -184.5 -340.5t-374.5 -120.5z" />
    <glyph glyph-name="dvOcandra" unicode="&#x911;" horiz-adv-x="2390" 
d="M580 991q65 0 111.5 31.5t56.5 85.5q9 52 -16 83.5t-73 31.5q-50 0 -87 -31t-46 -78h-338q32 187 176.5 303.5t348.5 116.5q200 0 299.5 -102.5t68.5 -274.5q-19 -108 -85.5 -186t-170.5 -115l-2 -8q46 -13 92 -49h297l125 717h1215l-55 -308h-177l-213 -1208h-368
l211 1208h-297l-213 -1208h-369l88 496h-174q-41 -171 -174.5 -271t-318.5 -100q-222 0 -335.5 120.5t-78.5 317.5h344q-9 -52 18 -87.5t84 -35.5q55 0 92.5 34t45.5 89q11 58 -23 95.5t-113 37.5h-96l53 295h97zM1929 1667q-260 0 -373 123t-75 332h315q-14 -83 25.5 -133
t138.5 -50q100 0 158.5 50t72.5 133h316q-37 -213 -180 -334t-398 -121z" />
    <glyph glyph-name="dvO" unicode="&#x913;" horiz-adv-x="2390" 
d="M1440 0h-369l88 496h-174q-41 -171 -174.5 -271t-318.5 -100q-222 0 -335.5 120.5t-78.5 317.5h344q-9 -52 18 -87.5t84 -35.5q55 0 92.5 34t45.5 89q11 58 -23 95.5t-113 37.5h-96l53 295h97q65 0 111.5 31.5t56.5 85.5q9 52 -16 83.5t-73 31.5q-50 0 -87 -31t-46 -78
h-338q32 187 176.5 303.5t348.5 116.5q200 0 299.5 -102.5t68.5 -274.5q-19 -108 -85.5 -186t-170.5 -115l-2 -8q46 -13 92 -49h297l125 717h697q-42 86 -68.5 129.5t-63 73t-75.5 37t-107 7.5h-114l51 297h108q90 -1 149 -7.5t117.5 -28t99 -56.5t84 -98t81.5 -146.5
t84 -207.5h172l-55 -308h-177l-213 -1208h-368l211 1208h-297z" />
    <glyph glyph-name="dvAU" unicode="&#x914;" horiz-adv-x="2390" 
d="M1440 0h-369l88 496h-174q-41 -171 -174.5 -271t-318.5 -100q-222 0 -335.5 120.5t-78.5 317.5h344q-9 -52 18 -87.5t84 -35.5q55 0 92.5 34t45.5 89q11 58 -23 95.5t-113 37.5h-96l53 295h97q65 0 111.5 31.5t56.5 85.5q9 52 -16 83.5t-73 31.5q-50 0 -87 -31t-46 -78
h-338q32 187 176.5 303.5t348.5 116.5q200 0 299.5 -102.5t68.5 -274.5q-19 -108 -85.5 -186t-170.5 -115l-2 -8q46 -13 92 -49h297l125 717h709q-125 81 -151 93q-50 24 -134 26q-25 1 -100 1h-117l39 230h111q150 0 210 -15t140 -84q-20 45 -41 79.5t-39.5 57.5t-42.5 39
t-41.5 24t-46.5 12t-48 5t-54 1h-125l41 229h114q56 0 91 -1t76 -7.5t66 -15.5t57 -29.5t52 -44.5t48 -66t49 -88.5t50 -117t56.5 -146.5t63.5 -182h182l-55 -308h-177l-213 -1208h-368l211 1208h-297z" />
    <glyph glyph-name="dvKA" unicode="&#x915;" horiz-adv-x="1955" 
d="M684 0l41 238q-114 -127 -307 -127q-185 0 -285.5 138.5t-62.5 348.5q37 215 174 343t340 128q194 0 266 -125l47 264h-848l55 308h2014l-54 -308h-813l-45 -258q109 119 283 119q128 0 215 -67t118.5 -177t6.5 -243q-40 -216 -176 -332.5t-324 -116.5q-70 0 -139 17
l49 288q15 -6 41 -6q66 0 115 43t61 115q13 67 -20.5 116.5t-106.5 49.5q-77 0 -125.5 -53t-64.5 -142l-99 -561h-356zM590 420q77 1 130 47t66 108v9q14 73 -24 122.5t-117 49.5q-76 0 -133 -46.5t-70 -121.5q-13 -74 29.5 -122t118.5 -46z" />
    <glyph glyph-name="dvKHA" unicode="&#x916;" horiz-adv-x="1984" 
d="M1335 0l51 289q-95 -78 -235 -78q-31 0 -61 6q-95 -107 -223 -170t-281 -63q-280 0 -412 157.5t-80 446.5l41 241h45q142 0 219 61.5t99 190.5l20 127h-467l55 308h2040l-53 -308h-178l-211 -1208h-369zM1282 492q64 0 108.5 40.5t55.5 102.5q10 59 -19.5 101t-95.5 42
q-62 0 -108 -37.5t-58 -103.5q-11 -69 23 -107t94 -38zM651 301q142 0 223 96q-51 121 -24 275q30 178 156 284.5t292 100.5q139 -3 207 -84l41 235h-655l-31 -178q-34 -195 -141 -312.5t-260 -144.5l-6 -30q-20 -106 31 -174t167 -68z" />
    <glyph glyph-name="dvGA" unicode="&#x917;" horiz-adv-x="1714" 
d="M1061 0l211 1208h-223l-76 -434q-17 -101 -56.5 -183.5t-101 -146t-152.5 -98.5t-204 -35q-102 0 -183 28.5t-135 83.5t-74 140.5t-1 192.5q7 40 14 67h356l-12 -65q-10 -63 3.5 -97t61.5 -34q89 0 111 131l80 450h-631l55 308h1772l-55 -308h-179l-212 -1208h-369z" />
    <glyph glyph-name="dvGHA" unicode="&#x918;" horiz-adv-x="1423" 
d="M604 485q100 0 180 57t109 154l88 512h-387l-10 -59q-11 -70 18 -106.5t111 -36.5h75l-53 -297h-104q-69 0 -110.5 -31t-49.5 -80q-10 -55 27 -84t106 -29zM49 1208l55 308h1481l-55 -308h-176l-211 -1208h-373l55 319q-148 -133 -366 -133q-117 0 -207 42.5t-137 129
t-27 201.5q21 110 93.5 186t162.5 103v8q-172 55 -133 274l14 78h-176z" />
    <glyph glyph-name="dvNGA" unicode="&#x919;" horiz-adv-x="1468" 
d="M1227 553q-78 0 -123 54.5t-31 131.5q14 78 78.5 133.5t142.5 55.5q79 0 124.5 -55.5t31.5 -133.5q-14 -77 -79 -131.5t-144 -54.5zM55 1208l54 308h1521l-53 -308h-520l-23 -123h2l-47 -258h-383q-98 0 -112 -69q-6 -35 16 -52.5t63 -17.5h91q183 0 288 -95t72 -278
q-30 -171 -163 -265.5t-357 -94.5q-148 0 -261 44t-174.5 135t-45.5 216h368q-7 -60 32 -89.5t101 -29.5q60 0 101.5 27t48.5 72q9 49 -22.5 74.5t-100.5 25.5h-70q-35 0 -69.5 4.5t-74.5 14.5t-73.5 27.5t-65 43.5t-49 62t-26 83t3.5 107q27 153 145.5 233t284.5 80h121
l22 123h-645z" />
    <glyph glyph-name="dvCA" unicode="&#x91a;" horiz-adv-x="1554" 
d="M49 1208l55 308h1612l-55 -308h-178l-211 -1208h-371l53 301q-146 -143 -372 -143q-180 0 -278.5 103.5t-67.5 279.5q21 125 116 211h-250l52 288h761l-51 -288h-90q-65 0 -116 -39t-64 -105q-12 -69 33 -107t125 -38q109 3 182 80t100 209l80 456h-1065z" />
    <glyph glyph-name="dvCHA" unicode="&#x91b;" horiz-adv-x="1689" 
d="M47 1208l55 308h1749l-55 -308h-362l-27 -139q110 -45 157.5 -153t20.5 -261q-50 -284 -284.5 -451t-606.5 -167q-204 0 -354.5 56.5t-223 166t-42.5 254.5q42 210 256 289v6q-170 55 -131 274l22 125h-174zM754 352q454 0 512 322q12 66 -8 108.5t-66 42.5
q-45 0 -79 -36.5t-46 -100.5q-11 -65 -4 -147h-301q-12 87 6 188q24 135 103 221t196 121l25 137h-502l-19 -108q-24 -144 105 -144h41l-53 -294h-33q-75 0 -123 -38t-57 -96q-14 -84 56.5 -130t246.5 -46z" />
    <glyph glyph-name="dvJA" unicode="&#x91c;" horiz-adv-x="1773" 
d="M49 1208l55 308h1831l-55 -308h-176l-213 -1208h-371l119 678h-186l-4 -19q-36 -213 -184 -344t-369 -131q-225 0 -342.5 134.5t-77.5 353.5l57 321h371l-58 -323q-14 -78 10.5 -120t84.5 -42t97.5 41.5t51.5 120.5l58 323h546l39 215h-1284z" />
    <glyph glyph-name="dvJHA" unicode="&#x91d;" horiz-adv-x="1808" 
d="M578 688h706l90 520h-315l-33 -190l-35 -191h-385q-97 0 -110 -71q-6 -33 16 -50.5t66 -17.5zM1163 0l72 412h-227q10 -63 -2 -138q-24 -138 -127.5 -223.5t-257.5 -85.5q-140 0 -224 74l-37 -217h-350l92 524h332q-6 -54 24.5 -83.5t90.5 -29.5q54 0 87.5 25.5
t39.5 69.5q8 47 -24.5 74.5t-102.5 27.5q-82 0 -133 2q-63 4 -118.5 25.5t-101 62t-66 109t-5.5 155.5q13 80 53.5 140t99.5 95.5t129.5 53t151.5 17.5h121l20 118h-634l55 308h1849l-53 -308h-180l-211 -1208h-363z" />
    <glyph glyph-name="dvNYA" unicode="&#x91e;" horiz-adv-x="1726" 
d="M49 1208l55 308h1784l-55 -308h-176l-213 -1208h-369l78 440h-154q-68 -167 -210 -260.5t-322 -93.5q-206 0 -322.5 111t-93.5 303h348q6 -51 41 -77t84 -26q71 0 121 52.5t64 132.5q14 77 -17 129.5t-102 52.5q-49 0 -93.5 -26t-68.5 -76h-348q45 194 200 304.5
t361 110.5q172 0 280.5 -85.5t125.5 -239.5h159l80 456h-1237z" />
    <glyph glyph-name="dvTTA" unicode="&#x91f;" horiz-adv-x="1318" 
d="M49 1208l53 308h1379l-56 -308h-329l-76 -440h-305q-106 0 -187 -57t-100 -160q-17 -92 33.5 -149.5t152.5 -57.5q106 0 179 61t90 160h352q-43 -246 -219.5 -393t-437.5 -147q-266 0 -412 148t-107 390q40 235 212.5 370t439.5 144l22 131h-684z" />
    <glyph glyph-name="dvTTHA" unicode="&#x920;" horiz-adv-x="1368" 
d="M610 356q101 0 171.5 60t88.5 157q18 95 -31.5 155t-152.5 60q-100 0 -170.5 -59t-85.5 -154q-17 -97 31.5 -158t148.5 -61zM571 49q-120 0 -222.5 37.5t-174 105.5t-102.5 171.5t-9 226.5q34 203 167.5 327.5t322.5 163.5l22 127h-528l53 308h1430l-55 -308h-535
l-25 -135q174 -49 266 -182t56 -332q-42 -240 -227 -375t-439 -135z" />
    <glyph glyph-name="dvDDA" unicode="&#x921;" horiz-adv-x="1157" 
d="M55 1208l54 308h1210l-53 -308h-213l-68 -381h-379q-98 0 -112 -69q-6 -35 16 -52.5t63 -17.5h91q183 0 288 -95t72 -278q-30 -171 -163 -265.5t-357 -94.5q-148 0 -261 44t-174.5 135t-45.5 216h368q-7 -60 32 -89.5t101 -29.5q60 0 101.5 27t48.5 72q9 49 -22.5 74.5
t-100.5 25.5h-70q-35 0 -69.5 4.5t-74.5 14.5t-73.5 27.5t-65 43.5t-49 62t-26 83t3.5 107q27 153 145.5 233t284.5 80h119l22 123h-643z" />
    <glyph glyph-name="dvDDHA" unicode="&#x922;" horiz-adv-x="1353" 
d="M53 1208l53 308h1410l-56 -308h-317l-62 -362h-254q-155 0 -269.5 -82t-139.5 -229q-23 -132 42.5 -215.5t227.5 -83.5q105 0 178.5 40.5t87.5 116.5q6 38 -13.5 62t-53.5 24q-33 0 -57 -18.5t-31 -50.5q-4 -12 -4 -35h-260q0 47 6 82q23 135 133 208.5t274 73.5
q166 0 256 -99t62 -257q-36 -193 -196 -302.5t-419 -109.5q-144 0 -263 42.5t-198 119t-112.5 189t-11.5 245.5q31 168 130.5 289t242 180.5t313.5 59.5h26l19 112h-744z" />
    <glyph glyph-name="dvNNA" unicode="&#x923;" horiz-adv-x="1859" 
d="M602 582q53 0 87.5 32.5t43.5 87.5l90 506h-221l-90 -506q-10 -54 14.5 -87t75.5 -33zM49 1208l55 308h1917l-53 -308h-178l-213 -1208h-371l213 1208h-233l-84 -471q-17 -101 -57.5 -184t-104 -147.5t-155.5 -100t-205 -35.5q-225 0 -343 129t-81 338l84 471h-191z" />
    <glyph glyph-name="dvTA" unicode="&#x924;" horiz-adv-x="1460" 
d="M49 1208l55 308h1518l-55 -308h-178l-213 -1208h-371l121 688h-242q-102 0 -172.5 -52.5t-87.5 -143.5q-16 -92 29 -146.5t153 -54.5h35l-51 -289h-58q-84 0 -160.5 18.5t-143 59t-111.5 98.5t-64 143.5t-2 188.5q21 128 84.5 225.5t155.5 155t200.5 85.5t231.5 28h258
l37 204h-969z" />
    <glyph glyph-name="dvTHA" unicode="&#x925;" horiz-adv-x="1642" 
d="M989 0l64 362q-65 -86 -189.5 -145t-279.5 -59q-131 0 -233.5 40.5t-167.5 117t-89.5 185.5t0.5 247q11 74 39 159h172q174 0 277.5 47.5t124.5 159.5q8 45 -13 76t-63 31q-63 0 -93.5 -54.5t-27.5 -126.5h-332q4 99 40.5 188t100.5 157.5t160 108.5t211 40
q196 0 296.5 -116.5t64.5 -313.5q-34 -201 -190.5 -326.5t-422.5 -132.5q2 -77 63 -129.5t191 -52.5q165 0 291.5 109t161.5 311l110 633h549l-53 -308h-178l-215 -1208h-369z" />
    <glyph glyph-name="dvDA" unicode="&#x926;" horiz-adv-x="1261" 
d="M57 1208l54 308h1312l-57 -308h-211l-82 -460h-385q-96 0 -160 -48t-77 -131q-13 -76 22 -121t109 -45q69 0 118.5 43t61.5 115h342l-113 -641h-360l49 279q-103 -86 -258 -86q-84 0 -154.5 30t-122 90.5t-70.5 151t1 211.5q27 152 117 259.5t220.5 158.5t291.5 51h53
l26 143h-727z" />
    <glyph glyph-name="dvDHA" unicode="&#x927;" horiz-adv-x="1525" 
d="M494 145q-96 0 -176 24.5t-136.5 70.5t-81 119t-8.5 163q11 63 41.5 116t72.5 87.5t84 56.5t85 33l2 8q-99 35 -156 126.5t-33 228.5q29 169 146.5 262.5t288.5 93.5q205 0 292.5 -119t26.5 -321h-270q14 54 -2 92.5t-70 38.5q-39 0 -67.5 -28t-36.5 -73
q-17 -81 29.5 -115t129.5 -34h179l-54 -297h-106q-179 0 -199 -113q-10 -57 34 -86.5t134 -29.5q147 0 249 90.5t128 240.5v-2l76 430l53 308h541l-54 -308h-172l-213 -1208h-368l55 311q-166 -166 -444 -166z" />
    <glyph glyph-name="dvNA" unicode="&#x928;" horiz-adv-x="1705" 
d="M512 422q63 0 110 39.5t58 101.5q11 61 -22 101.5t-95 40.5q-65 0 -113.5 -40.5t-58.5 -103.5q-11 -62 23 -100.5t98 -38.5zM49 1208l55 308h1764l-53 -308h-179l-213 -1208h-370l125 705h-224q27 -90 11 -195q-17 -96 -65.5 -173t-116 -126t-147 -74.5t-163.5 -25.5
q-136 0 -239.5 61t-151.5 170t-25 242q27 145 111 243t200.5 141.5t260.5 43.5h602l35 196h-1217z" />
    <glyph glyph-name="dvPA" unicode="&#x92a;" horiz-adv-x="1400" 
d="M676 612q89 0 145 58.5t72 154.5v-2l68 385h-383l-68 -370q-18 -100 23.5 -163t142.5 -63zM49 1208l55 308h1459l-56 -308h-178l-211 -1208h-368l69 399q-113 -96 -284 -96q-89 0 -162.5 26.5t-123.5 74.5t-81.5 115t-36.5 147t10 172l66 370h-158z" />
    <glyph glyph-name="dvPHA" unicode="&#x92b;" horiz-adv-x="2015" 
d="M655 612q78 0 129.5 50.5t69.5 130.5l72 415h-348l-68 -389q-20 -93 16.5 -150t128.5 -57zM49 1208l55 308h2073l-53 -308h-828l-45 -262q123 123 316 123q127 0 210.5 -63t112.5 -166.5t6 -231.5q-39 -222 -178 -348.5t-327 -126.5q-84 0 -152 23l49 282q36 -8 55 -8
q67 0 115 45.5t60 114.5q11 71 -21 118.5t-104 47.5q-81 0 -135 -54.5t-76 -150.5l-97 -551h-370l69 393q-111 -90 -266 -90q-144 0 -241 68t-132 184.5t-6 263.5l68 389h-158z" />
    <glyph glyph-name="dvBA" unicode="&#x92c;" horiz-adv-x="1406" 
d="M770 0l39 217q-120 -117 -328 -117q-141 0 -243 69t-145 189t-17 267q37 213 194.5 340t382.5 127q181 0 291 -99l37 215h-932l55 308h1465l-53 -308h-179l-211 -1208h-356zM690 856q-89 0 -160 -47l342 -283q18 38 27 80q18 105 -39.5 177.5t-169.5 72.5zM606 360
q87 0 158 46l-344 282q-22 -46 -27 -82q-21 -111 42 -178.5t171 -67.5z" />
    <glyph glyph-name="dvBHA" unicode="&#x92d;" horiz-adv-x="1783" 
d="M504 412q62 0 100 39.5t51 107.5l17 98h-97q-69 0 -116.5 -32.5t-57.5 -92.5q-10 -58 19 -89t84 -31zM455 100q-213 0 -323 118t-75 312q19 107 71.5 190t128.5 134.5t167 77.5t192 26h109l25 142q21 121 -66 121q-40 0 -68.5 -30t-37.5 -77q-7 -36 -5 -61h-370
q-3 31 4 75q32 180 166 293t350 113q83 0 147.5 -18t107 -51.5t70 -78.5t38.5 -102t9.5 -119t-14.5 -133l-12 -74h225l99 558h553l-54 -308h-180l-215 -1208h-371l115 657h-223l-14 -77q-41 -226 -182 -353t-367 -127z" />
    <glyph glyph-name="dvMA" unicode="&#x92e;" horiz-adv-x="1763" 
d="M483 412q62 0 100.5 40t51.5 107l16 98h-100q-67 0 -113.5 -32.5t-56.5 -92.5q-10 -57 20.5 -88.5t81.5 -31.5zM1276 958l45 250h-227l-45 -250h227zM49 1208l55 308h1821l-55 -308h-176l-215 -1208h-371l117 657h-228l-14 -77q-40 -225 -182.5 -352.5t-368.5 -127.5
q-212 0 -320.5 118t-74.5 312q19 107 71.5 190t128.5 134.5t166.5 77.5t190.5 26h111l43 250h-699z" />
    <glyph glyph-name="dvYA" unicode="&#x92f;" horiz-adv-x="1562" 
d="M692 455q140 0 233 87t117 224v-2l78 444h-262l-27 -145q-58 -344 -374 -391q-12 -94 49.5 -155.5t185.5 -61.5zM49 1208l55 308h1620l-55 -308h-178l-213 -1208h-369l49 281q-154 -134 -378 -134q-261 0 -394.5 160t-87.5 418q11 63 33 133h19q84 0 144 19.5t96.5 58
t56.5 84.5t32 110l15 78h-445z" />
    <glyph glyph-name="dvRA" unicode="&#x930;" horiz-adv-x="1085" 
d="M51 1208l55 308h1141l-53 -308h-152l-12 -80q-22 -117 -61 -208t-105 -167.5t-170 -119t-241 -45.5l-31 -178q-10 -51 7.5 -83t64.5 -32q41 0 69 31t37 80l8 61h355q-3 -32 -7 -49q-33 -202 -160.5 -319t-330.5 -117q-223 0 -333 126.5t-75 319.5l82 457h205
q152 0 222.5 62t92.5 181l15 80h-623z" />
    <glyph glyph-name="dvRxA" unicode="&#x931;" horiz-adv-x="1085" 
d="M51 1208l55 308h1141l-53 -308h-152l-12 -80q-22 -117 -61 -208t-105 -167.5t-170 -119t-241 -45.5l-31 -178q-10 -51 7.5 -83t64.5 -32q41 0 69 31t37 80l8 61h355q-3 -32 -7 -49q-33 -202 -160.5 -319t-330.5 -117q-223 0 -333 126.5t-75 319.5l82 457h205
q152 0 222.5 62t92.5 181l15 80h-623zM4 -471q-87 0 -137 60.5t-35 146.5q15 89 86.5 151t159.5 62q89 0 139 -61.5t35 -151.5q-15 -86 -87 -146.5t-161 -60.5z" />
    <glyph glyph-name="dvLA" unicode="&#x932;" horiz-adv-x="1875" 
d="M1741 537q-41 -233 -209 -370.5t-424 -131.5q-28 0 -74 4l60 319q20 -4 51 -4q84 0 144 53t77 148q14 81 -19.5 130.5t-105.5 49.5q-81 0 -129 -56.5t-63 -141.5l-11 -56h-305l10 56q7 52 3 96t-35 73t-86 29q-77 0 -127.5 -48.5t-65.5 -131.5q-15 -94 27.5 -147.5
t132.5 -53.5q15 0 47 4l-57 -319q-58 -4 -62 -4q-104 0 -189 27t-141.5 75.5t-92.5 116.5t-42.5 148.5t8.5 172.5q21 126 76.5 222t132 152t163 84t179.5 28q135 0 217.5 -59t112.5 -154h6q97 155 281 199l26 161h-1210l55 308h1936l-56 -308h-362l-37 -211q99 -63 143 -180
t15 -280z" />
    <glyph glyph-name="dvLLA" unicode="&#x933;" horiz-adv-x="1937" 
d="M555 395q73 0 128.5 46t68.5 120q12 73 -27.5 120.5t-110.5 47.5q-75 0 -130.5 -47.5t-67.5 -122.5q-12 -74 27 -119t112 -45zM1247 395q74 0 130 45t69 119q12 75 -27 122.5t-112 47.5q-74 0 -129.5 -47.5t-67.5 -120.5q-12 -75 26.5 -120.5t110.5 -45.5zM1255 80
q-129 0 -226.5 57.5t-137.5 165.5h-12q-72 -108 -185 -165.5t-243 -57.5q-98 0 -179 33.5t-136 94.5t-77.5 152.5t-3.5 200.5q26 145 108.5 255.5t197.5 168t245 57.5q267 0 367 -221h8q123 163 297 205l33 182h-1268l55 308h2001l-53 -308h-379l-39 -217q107 -59 156 -170
t22 -260q-39 -219 -195 -350t-356 -131z" />
    <glyph glyph-name="dvVA" unicode="&#x935;" horiz-adv-x="1359" 
d="M594 399q88 0 150.5 55.5t76.5 133.5v10q12 78 -31 131t-131 53q-87 0 -151 -54t-78 -136q-14 -84 31 -138.5t133 -54.5zM1468 1208h-178l-211 -1208h-362l41 227q-127 -121 -307 -121q-210 0 -313.5 143t-59.5 380q37 207 173 327.5t343 120.5q191 0 291 -121l45 252
h-881l55 308h1418z" />
    <glyph glyph-name="dvSHA" unicode="&#x936;" horiz-adv-x="1779" 
d="M512 -12q-238 0 -359.5 131t-80.5 352l71 406h281q339 0 377 215q9 54 -13.5 88t-70.5 34q-68 0 -106 -56t-38 -134h-366q20 240 169.5 375t381.5 135q102 0 186.5 -31.5t142.5 -89.5t82 -147.5t5 -198.5q-23 -127 -85.5 -225t-153 -157t-198 -88.5t-229.5 -29.5h-47
l-21 -116q-12 -65 10.5 -106.5t90.5 -41.5q115 0 147 166h359q-28 -230 -164 -355.5t-371 -125.5zM1120 0l269 1516h553l-56 -308h-176l-215 -1208h-375z" />
    <glyph glyph-name="dvSSA" unicode="&#x937;" horiz-adv-x="1435" 
d="M664 586q75 0 133.5 33t93.5 90l-371 258l-24 -140q-18 -107 24.5 -174t143.5 -67zM952 938l47 270h-432zM49 1208l55 308h1493l-55 -308h-180l-211 -1208h-363l68 387q-126 -113 -315 -113q-154 0 -255.5 75t-137.5 202t-7 287l66 370h-158z" />
    <glyph glyph-name="dvSA" unicode="&#x938;" horiz-adv-x="1703" 
d="M958 1087q-22 -117 -71 -202h319l56 323h-281zM51 1208l55 308h1760l-56 -308h-178l-213 -1208h-368l102 584h-700l-31 -172q-8 -51 11 -84t69 -33q95 0 119 135h354q-20 -210 -156 -329t-352 -119q-149 0 -250 63.5t-139 169.5t-15 238l68 393h141q79 0 137 17.5
t93.5 51.5t55.5 75.5t30 96.5l22 121h-559z" />
    <glyph glyph-name="dvHA" unicode="&#x939;" horiz-adv-x="1216" 
d="M1036 166q-41 -181 -189.5 -290t-354.5 -109q-232 0 -359 139.5t-88 359.5q42 225 229 340q-106 80 -81 228q21 118 121 190t255 72h131l21 112h-649l55 308h1253l-53 -308h-256l-18 -112l-47 -260h-349q-98 0 -112 -78q-6 -40 20 -60q23 2 70 2q112 0 200 -34.5t139 -91
t73 -126.5t12 -143h-352q0 44 -34 74.5t-93 30.5q-62 0 -114 -45t-65 -123q-14 -83 21.5 -127.5t99.5 -44.5q54 0 97 27.5t63 68.5h354z" />
    <glyph glyph-name="dvNukta" unicode="&#x93c;" horiz-adv-x="0" 
d="M-567 -612q-88 0 -137.5 60t-34.5 146q15 89 86 151t159 62q89 0 139.5 -62t35.5 -151q-15 -86 -87 -146t-161 -60z" />
    <glyph glyph-name="dvAvagraha" unicode="&#x93d;" horiz-adv-x="1234" 
d="M-10 86l55 309h487q88 0 97 62q5 28 -14 58.5t-52.5 59.5t-74.5 66t-80 77.5t-70 94t-43.5 115t0.5 141.5q27 148 138.5 227.5t273.5 79.5h483l-55 -311h-387q-77 0 -84 -53q-5 -27 14 -57.5t52 -59t74 -65.5t80.5 -77t70 -93.5t43 -115.5t-0.5 -143
q-27 -149 -143.5 -232t-280.5 -83h-583z" />
    <glyph glyph-name="dvmAA" unicode="&#x93e;" 
d="M18 0l211 1208h-180l55 308h727l-55 -308h-176l-213 -1208h-369z" />
    <glyph glyph-name="dvmI" unicode="&#x93f;" 
d="M600 1208l-215 -1208h-369l213 1208h-180l55 308h181q33 134 115.5 247t206 195.5t293.5 129t368 46.5q204 0 361 -51t251.5 -140.5t133 -210.5t14.5 -262l-7 -34h-368l4 28q18 118 -37 203.5t-159.5 126.5t-243.5 41q-135 0 -250.5 -34t-202 -107.5t-113.5 -177.5h180
l-55 -308h-176z" />
    <glyph glyph-name="dvmII" unicode="&#x940;" 
d="M-401 1436l24 137q22 126 68 225.5t120 176.5t185 118t252 41q512 0 418 -561l-11 -57h179l-56 -308h-176l-215 -1208h-369l213 1208h-180l55 308h191l12 73q41 234 -116 234q-43 0 -77.5 -16t-55 -39t-37 -57.5t-23.5 -61t-14 -60.5l-27 -153h-360z" />
    <glyph glyph-name="dvmU" unicode="&#x941;" horiz-adv-x="0" 
d="M-684 -721q-69 0 -133 11t-125.5 35t-107.5 62t-79.5 92.5t-41 126.5t7.5 163h327q-22 -104 27.5 -153.5t149.5 -49.5q78 0 126.5 32.5t57.5 90.5q8 56 -24.5 89.5t-106.5 33.5h-80l51 286h80q208 0 314 -110t81 -303q-23 -188 -166 -297t-358 -109z" />
    <glyph glyph-name="dvmUU" unicode="&#x942;" horiz-adv-x="0" 
d="M-631 -686q-81 0 -152 24t-125.5 70t-78.5 122t-6 171q32 185 168.5 284t339.5 99q87 0 159 -18.5t124.5 -51.5t92 -79.5t63 -101t35 -117.5t11 -128t-11.5 -133q-7 -40 -29 -131h-299l27 144q15 73 9 136t-28 109t-69.5 72.5t-116.5 26.5q-67 0 -119 -30.5t-63 -92.5
q-10 -56 26 -84.5t94 -28.5h52l-47 -262h-56z" />
    <glyph glyph-name="dvmvR" unicode="&#x943;" horiz-adv-x="0" 
d="M-535 -705q-64 0 -126 15t-118.5 49t-96 82t-56.5 120t-2 158q31 177 171 274t362 97q89 0 135 -4l-45 -248h-101q-144 0 -163 -112q-13 -65 33 -101.5t120 -36.5q77 0 182 27l-51 -285q-118 -35 -244 -35z" />
    <glyph glyph-name="dvmvRR" unicode="&#x944;" horiz-adv-x="0" 
d="M-526 -1008q-70 0 -132 10.5t-117.5 35.5t-93 62.5t-53.5 95t-2 128.5q18 97 88 164.5t170 91.5v6q-200 50 -168 240q13 72 55.5 126t100.5 82.5t116 42t116 13.5h180l-35 -196h-33q-132 0 -147 -84q-8 -46 25.5 -65t93.5 -19h122l-47 -273h-102q-46 0 -78.5 -5.5
t-60 -26.5t-33.5 -58q-9 -50 33 -69t110 -19q87 0 215 31l-49 -273q-109 -41 -274 -41z" />
    <glyph glyph-name="dvmEcandra" unicode="&#x945;" horiz-adv-x="0" 
d="M-162 1657q-260 0 -373 122.5t-75 331.5h315q-14 -83 25.5 -132.5t138.5 -49.5q100 0 158.5 50t72.5 132h316q-37 -213 -180 -333.5t-398 -120.5z" />
    <glyph glyph-name="dvmE" unicode="&#x947;" horiz-adv-x="0" 
d="M-367 1505q-35 72 -58 112.5t-48.5 73t-55 46t-65 20t-90.5 6.5h-115l51 297h109q90 -1 149 -7.5t118 -28.5t99.5 -57.5t84.5 -99.5t82.5 -150t85.5 -212h-347z" />
    <glyph glyph-name="dvmAI" unicode="&#x948;" horiz-adv-x="0" 
d="M-350 1509q-134 86 -152 95q-53 27 -128 31q-30 1 -115 1h-117l39 230h110q67 0 98 -1t71 -5.5t64.5 -15.5t54 -29t63.5 -48q-24 53 -47 91t-49 61.5t-47 37t-53.5 19.5t-54.5 7.5t-63 1.5h-125l41 229h115q56 0 91 -1t76 -8t66 -16t56.5 -29.5t52 -45t48.5 -66.5t49 -89
t50.5 -118.5t56.5 -148t64 -183.5h-315z" />
    <glyph glyph-name="dvmOcandra" unicode="&#x949;" horiz-adv-x="673" 
d="M510 1657q-260 0 -373.5 122.5t-75.5 331.5h316q-14 -83 25.5 -132.5t138.5 -49.5q100 0 158.5 50t72.5 132h315q-37 -213 -179.5 -333.5t-397.5 -120.5zM18 0l211 1208h-180l55 308h727l-55 -308h-176l-213 -1208h-369z" />
    <glyph glyph-name="dvmO" unicode="&#x94b;" horiz-adv-x="671" 
d="M389 0h-371l213 1208h-180l55 308h195q-41 86 -67.5 129.5t-63 73t-76 37t-108.5 7.5h-113l51 297h109q90 -1 149.5 -7.5t118 -28t98.5 -56.5t83 -98t80.5 -146.5t82.5 -207.5h189l-56 -308h-176z" />
    <glyph glyph-name="dvmAU" unicode="&#x94c;" 
d="M326 0h-371l213 1208h-180l55 308h205q-125 81 -151 93q-50 24 -134 26q-25 1 -100 1h-117l41 230h109q150 0 210 -15t140 -84q-24 53 -47 91t-49 61.5t-47 37t-53.5 19.5t-54.5 7.5t-63 1.5h-125l41 229h115q56 0 91 -1t76 -7.5t66 -15.5t56.5 -29.5t52 -44.5t48.5 -66
t49 -88.5t50.5 -117t56.5 -146.5t64 -182h197l-55 -308h-178z" />
    <glyph glyph-name="dvVirama" unicode="&#x94d;" horiz-adv-x="0" 
d="M-477 -580l-187 471h367l197 -471h-377z" />
    <glyph glyph-name="dvOm" unicode="&#x950;" horiz-adv-x="2205" 
d="M434 20q-224 0 -334.5 120t-74.5 315h346q-9 -49 17 -84t81 -35q57 0 94.5 34t46.5 91q10 59 -23.5 97t-111.5 38h-96l53 311h98q65 0 112 32.5t56 88.5q9 50 -16.5 81.5t-73.5 31.5q-50 0 -86 -30t-43 -79h-342q34 189 180 305.5t355 116.5q200 0 299.5 -102.5
t70.5 -276.5q-22 -111 -90 -191.5t-172 -117.5l-2 -6q5 -1 13.5 -4.5t9.5 -3.5h112q104 0 153 38t69 148q40 228 164 342.5t366 114.5q241 0 329.5 -128.5t45.5 -377.5l-43 -240q-54 -302 -229 -462t-445 -160q-101 0 -207 20l51 305q96 -14 142 -14q79 0 137.5 23t96.5 68
t60.5 101.5t36.5 133.5l50 276q24 143 -80 143q-106 0 -131 -147q-22 -127 -58 -212t-98 -143.5t-152.5 -85.5t-220.5 -30q-1 -7 -3 -21.5t-3 -21.5q-33 -184 -173.5 -293t-336.5 -109zM1233 1475q-248 0 -370 124t-83 330h293q-15 -84 36 -138t153 -54t168.5 54t80.5 138
h297q-34 -220 -180 -337t-395 -117zM1276 1839q-56 0 -88.5 40t-22.5 97q9 58 56.5 99t103.5 41q58 0 90 -40.5t23 -99.5q-11 -57 -57.5 -97t-104.5 -40z" />
    <glyph glyph-name="dvKxA" unicode="&#x958;" horiz-adv-x="1955" 
d="M684 0l41 238q-114 -127 -307 -127q-185 0 -285.5 138.5t-62.5 348.5q37 215 174 343t340 128q194 0 266 -125l47 264h-848l55 308h2014l-54 -308h-813l-45 -258q109 119 283 119q128 0 215 -67t118.5 -177t6.5 -243q-40 -216 -176 -332.5t-324 -116.5q-70 0 -139 17
l49 288q15 -6 41 -6q66 0 115 43t61 115q13 67 -20.5 116.5t-106.5 49.5q-77 0 -125.5 -53t-64.5 -142l-99 -561h-356zM590 420q77 1 130 47t66 108v9q14 73 -24 122.5t-117 49.5q-76 0 -133 -46.5t-70 -121.5q-13 -74 29.5 -122t118.5 -46zM260 -414q-88 0 -137.5 60
t-34.5 147q15 89 86.5 151t159.5 62q89 0 139 -61.5t35 -151.5q-15 -86 -87 -146.5t-161 -60.5z" />
    <glyph glyph-name="dvKHxA" unicode="&#x959;" horiz-adv-x="1984" 
d="M1335 0l51 289q-95 -78 -235 -78q-31 0 -61 6q-95 -107 -223 -170t-281 -63q-280 0 -412 157.5t-80 446.5l41 241h45q142 0 219 61.5t99 190.5l20 127h-467l55 308h2040l-53 -308h-178l-211 -1208h-369zM442 -530q-88 0 -137.5 60t-34.5 146q15 89 86.5 151t159.5 62
q89 0 139 -61.5t35 -151.5q-15 -86 -87 -146t-161 -60zM1282 492q64 0 108.5 40.5t55.5 102.5q10 59 -19.5 101t-95.5 42q-62 0 -108 -37.5t-58 -103.5q-11 -69 23 -107t94 -38zM651 301q142 0 223 96q-51 121 -24 275q30 178 156 284.5t292 100.5q139 -3 207 -84l41 235
h-655l-31 -178q-34 -195 -141 -312.5t-260 -144.5l-6 -30q-20 -106 31 -174t167 -68z" />
    <glyph glyph-name="dvGxA" unicode="&#x95a;" horiz-adv-x="1714" 
d="M1061 0l211 1208h-223l-76 -434q-17 -101 -56.5 -183.5t-101 -146t-152.5 -98.5t-204 -35q-102 0 -183 28.5t-135 83.5t-74 140.5t-1 192.5q7 40 14 67h356l-12 -65q-10 -63 3.5 -97t61.5 -34q89 0 111 131l80 450h-631l55 308h1772l-55 -308h-179l-212 -1208h-369z
M354 -213q-88 0 -137.5 60.5t-34.5 146.5q15 89 86.5 151t159.5 62q89 0 139 -61.5t35 -151.5q-15 -86 -87 -146.5t-161 -60.5z" />
    <glyph glyph-name="dvJxA" unicode="&#x95b;" horiz-adv-x="1773" 
d="M49 1208l55 308h1831l-55 -308h-176l-213 -1208h-371l119 678h-186l-4 -19q-36 -213 -184 -344t-369 -131q-225 0 -342.5 134.5t-77.5 353.5l57 321h371l-58 -323q-14 -78 10.5 -120t84.5 -42t97.5 41.5t51.5 120.5l58 323h546l39 215h-1284zM393 -336q-87 0 -137 60
t-35 147q15 89 86.5 151t159.5 62q89 0 139 -61.5t35 -151.5q-15 -86 -87 -146.5t-161 -60.5z" />
    <glyph glyph-name="dvDDxA" unicode="&#x95c;" horiz-adv-x="1157" 
d="M55 1208l54 308h1210l-53 -308h-213l-68 -381h-379q-98 0 -112 -69q-6 -35 16 -52.5t63 -17.5h91q183 0 288 -95t72 -278q-30 -171 -163 -265.5t-357 -94.5q-148 0 -261 44t-174.5 135t-45.5 216h368q-7 -60 32 -89.5t101 -29.5q60 0 101.5 27t48.5 72q9 49 -22.5 74.5
t-100.5 25.5h-70q-35 0 -69.5 4.5t-74.5 14.5t-73.5 27.5t-65 43.5t-49 62t-26 83t3.5 107q27 153 145.5 233t284.5 80h119l22 123h-643zM393 -565q-87 0 -137 60.5t-35 146.5q15 89 86.5 151t159.5 62q89 0 139 -61.5t35 -151.5q-15 -86 -87 -146.5t-161 -60.5z" />
    <glyph glyph-name="dvDDHxA" unicode="&#x95d;" horiz-adv-x="1353" 
d="M53 1208l53 308h1410l-56 -308h-317l-62 -362h-254q-155 0 -269.5 -82t-139.5 -229q-23 -132 42.5 -215.5t227.5 -83.5q105 0 178.5 40.5t87.5 116.5q6 38 -13.5 62t-53.5 24q-33 0 -57 -18.5t-31 -50.5q-4 -12 -4 -35h-260q0 47 6 82q23 135 133 208.5t274 73.5
q166 0 256 -99t62 -257q-36 -193 -196 -302.5t-419 -109.5q-144 0 -263 42.5t-198 119t-112.5 189t-11.5 245.5q31 168 130.5 289t242 180.5t313.5 59.5h26l19 112h-744zM504 -547q-88 0 -137.5 60.5t-34.5 146.5q15 89 86.5 151t159.5 62q89 0 139 -61.5t35 -151.5
q-15 -86 -87 -146.5t-161 -60.5z" />
    <glyph glyph-name="dvPHxA" unicode="&#x95e;" horiz-adv-x="2015" 
d="M655 612q78 0 129.5 50.5t69.5 130.5l72 415h-348l-68 -389q-20 -93 16.5 -150t128.5 -57zM49 1208l55 308h2073l-53 -308h-828l-45 -262q123 123 316 123q127 0 210.5 -63t112.5 -166.5t6 -231.5q-39 -222 -178 -348.5t-327 -126.5q-84 0 -152 23l49 282q36 -8 55 -8
q67 0 115 45.5t60 114.5q11 71 -21 118.5t-104 47.5q-81 0 -135 -54.5t-76 -150.5l-97 -551h-370l69 393q-111 -90 -266 -90q-144 0 -241 68t-132 184.5t-6 263.5l68 389h-158zM274 -207q-88 0 -137.5 60.5t-34.5 146.5q15 89 86.5 151t159.5 62q89 0 139 -61.5t35 -151.5
q-15 -86 -87 -146.5t-161 -60.5z" />
    <glyph glyph-name="dvvRR" unicode="&#x960;" horiz-adv-x="2179" 
d="M829 0l50 287l-377 -287h-471l2 16l899 617q-18 57 -66.5 90t-120.5 33q-120 0 -199 -71t-100 -187h-370q45 255 208 412t404 157q208 0 305 -127l47 268h-991l55 308h2237l-55 -308h-906l-49 -276h277q111 0 131 86l12 72h317l-126 -721h-72q-131 0 -146 -84
q-8 -44 26 -63t93 -19h123l-47 -273h-104q-71 0 -115.5 -19t-54.5 -71q-9 -51 32 -69.5t109 -18.5q115 0 217 31l-47 -272q-110 -43 -277 -43q-70 0 -131.5 10.5t-116 36t-91.5 63t-52.5 95t-3.5 128.5q17 94 87.5 164t166.5 92l2 6q-90 21 -137.5 79.5t-28.5 160.5
q19 108 98.5 170t184.5 82l20 113q-89 -27 -178 -27h-217l-113 -641h-340z" />
    <glyph glyph-name="dvvLL" unicode="&#x961;" horiz-adv-x="1882" 
d="M37 1208l53 308h1938l-56 -308h-411l-31 -174q113 -50 165.5 -167t18.5 -294q-17 -105 -67 -204h-58q-132 0 -147 -84q-8 -44 26.5 -63t92.5 -19h125l-48 -273h-104q-72 0 -117 -19t-55 -71q-7 -36 15.5 -56.5t53 -26t74.5 -5.5q115 0 217 31l-47 -272q-110 -43 -276 -43
q-70 0 -131.5 10.5t-116 36t-91.5 63t-52.5 95t-3.5 128.5q17 94 87 164t166 92l3 6q-90 21 -137.5 79.5t-28.5 160.5q18 99 85.5 159.5t161.5 84.5q1 5 3.5 14t3.5 14q14 78 -17 125.5t-100 47.5q-81 0 -130 -58t-63 -141l-10 -68h-305l10 68q12 85 -14 142t-105 57
q-75 0 -126 -49t-66 -132q-34 -198 151 -198q34 0 54 2l-56 -320q-33 -2 -71 -2q-260 0 -376.5 140.5t-74.5 383.5q22 126 79 224t135 157t167 89t184 30q133 0 211.5 -58t106.5 -157h8q88 136 234 186l28 164h-1165z" />
    <glyph glyph-name="dvmvL" unicode="&#x962;" horiz-adv-x="0" 
d="M-98 -987q-165 0 -252.5 79t-61.5 220q14 84 74 148.5t141 95.5q0 2 1 7.5t1 8.5q11 60 -11 96.5t-73 36.5q-60 0 -94.5 -43t-46.5 -106l-10 -50h-236l9 50q12 63 -8 106t-78 43t-95.5 -36.5t-48.5 -98.5q-13 -78 17.5 -114t93.5 -36q23 0 43 5l-47 -248q-23 -2 -51 -2
q-198 0 -288 107t-59 290q17 96 61 171t104.5 120t129 67.5t140.5 22.5q190 0 237 -160h6q46 72 126.5 116t183.5 44q70 0 127.5 -22t100.5 -68.5t58.5 -118.5t-0.5 -172q-14 -79 -51 -154h-12q-85 0 -123.5 -24t-46.5 -70q-7 -40 26.5 -62t90.5 -22q53 0 94 10l-41 -227
q-72 -10 -131 -10z" />
    <glyph glyph-name="dvmvLL" unicode="&#x963;" horiz-adv-x="0" 
d="M57 -1233q-85 -29 -209 -29q-67 0 -123.5 13t-101.5 40.5t-65.5 77.5t-8.5 117q13 76 66 129t127 68v4q-147 36 -123 186q13 76 63.5 122t122.5 65q0 2 1 6t1 6q11 60 -11.5 96.5t-74.5 36.5q-59 0 -93 -42.5t-46 -106.5l-10 -50h-236l9 50q12 62 -8.5 105.5t-79.5 43.5
q-58 0 -95.5 -36.5t-48.5 -98.5q-13 -78 18.5 -114t94.5 -36q24 0 41 5l-45 -248q-23 -2 -53 -2q-197 0 -287.5 107t-57.5 290q23 127 92.5 215.5t156.5 127t184 38.5q189 0 239 -160h6q45 72 125 116t183 44q70 0 127.5 -22t101.5 -68.5t59.5 -118.5t-0.5 -172
q-13 -73 -53 -154h-49q-101 0 -111 -61q-4 -32 22 -45.5t73 -13.5h90l-37 -211h-78q-56 0 -90 -14t-41 -56q-5 -25 12 -40t40.5 -19.5t55.5 -4.5q60 0 164 23z" />
    <glyph glyph-name="danda" unicode="&#x964;" horiz-adv-x="743" 
d="M795 1516l-267 -1516h-366l266 1516h367z" />
    <glyph glyph-name="doubledanda" unicode="&#x965;" horiz-adv-x="1343" 
d="M795 1516l-267 -1516h-366l266 1516h367zM1393 1516l-267 -1516h-368l266 1516h369z" />
    <glyph glyph-name="dvZero" unicode="&#x966;" horiz-adv-x="1345" 
d="M106 745q29 163 85.5 293.5t143.5 231.5t213 156t283 55q126 0 220.5 -36t151 -102t87 -157.5t29.5 -202.5t-21 -238q-29 -163 -85.5 -294.5t-143.5 -232t-213.5 -155.5t-282.5 -55q-126 0 -220.5 36t-151 101.5t-87 157t-29.5 203t21 239.5zM901 745q9 52 13.5 91.5
t5 83t-8 74.5t-25 56.5t-47 38.5t-73.5 13q-52 0 -93 -20t-67.5 -51t-47.5 -80.5t-33 -96t-23 -109.5q-9 -52 -13.5 -92t-5 -83.5t8 -74.5t25.5 -56.5t48 -38.5t74 -13q52 0 92.5 20t66.5 50.5t47 81t32.5 96t23.5 110.5z" />
    <glyph glyph-name="dvOne" unicode="&#x967;" horiz-adv-x="792" 
d="M145 0l189 1075h-211l67 375h631l-256 -1450h-420z" />
    <glyph glyph-name="dvTwo" unicode="&#x968;" horiz-adv-x="1165" 
d="M-31 20l54 302q84 58 131 91t123.5 88.5t122 92t106.5 87t97.5 89.5t73 83t56.5 84.5t27 78.5q23 137 -88 137q-59 0 -96 -45.5t-58 -151.5h-389q29 138 93 243.5t150 167.5t183.5 93t204.5 31q87 0 157 -16.5t117.5 -46.5t81.5 -71t48.5 -89.5t19 -103t-7.5 -111.5
q-15 -85 -59.5 -170.5t-103.5 -157.5t-137.5 -143t-154.5 -127t-162 -109h512l-57 -326h-1045z" />
    <glyph glyph-name="dvThree" unicode="&#x969;" horiz-adv-x="1249" 
d="M180 1051q49 231 206.5 355t397.5 124q157 0 261.5 -55.5t144 -148t18.5 -208.5q-12 -73 -43.5 -133.5t-73 -99.5t-82 -63.5t-81.5 -37.5v-8q229 -90 184 -352q-34 -196 -188.5 -316t-386.5 -120q-124 0 -218.5 29t-159 89t-89 157.5t-4.5 228.5h391q-15 -82 14.5 -127.5
t106.5 -45.5q58 0 100 38t51 98q14 78 -30 114.5t-158 36.5h-70l59 326h68q185 -5 211 137q10 63 -14.5 95t-77.5 32q-62 0 -97 -42t-47 -103h-393z" />
    <glyph glyph-name="dvFour" unicode="&#x96a;" horiz-adv-x="1415" 
d="M666 0l43 246h-664l57 332l787 897h440l-153 -881h157l-61 -348h-158l-45 -246h-403zM518 594h283l76 428z" />
    <glyph glyph-name="dvFive" unicode="&#x96b;" horiz-adv-x="1341" 
d="M352 1497h979l-61 -354h-617l-41 -228q49 41 120.5 66t152.5 25q90 0 160 -27t111.5 -73t66.5 -108t26 -133t-10 -147q-43 -243 -204 -380.5t-406 -137.5q-255 0 -378.5 127.5t-90.5 333.5h393q-3 -48 26 -82.5t95 -34.5q73 0 118.5 49t59.5 131q13 81 -18.5 122.5
t-104.5 41.5q-55 0 -93.5 -27.5t-53.5 -68.5h-389z" />
    <glyph glyph-name="dvSix" unicode="&#x96c;" horiz-adv-x="1300" 
d="M1249 1067h-375q-2 69 -28 102t-88 33q-98 0 -153 -91t-89 -282q53 64 137 101t178 37q199 0 297 -123t58 -352t-203.5 -365.5t-404.5 -136.5q-134 0 -227.5 38t-144.5 103t-72 163.5t-16.5 207t29.5 246.5q70 401 234 589.5t455 188.5q98 0 174 -25.5t124 -69t77 -103
t37.5 -124.5t0.5 -137zM678 655q-71 0 -124.5 -41t-66.5 -116q-13 -81 23 -123.5t115 -42.5q73 0 122 42t62 120q14 75 -20.5 118t-110.5 43z" />
    <glyph glyph-name="dvSeven" unicode="&#x96d;" horiz-adv-x="1071" 
d="M207 1473h987l-51 -295l-725 -1178h-416l725 1130h-580z" />
    <glyph glyph-name="dvEight" unicode="&#x96e;" horiz-adv-x="1337" 
d="M362 817q-164 102 -126 316q14 78 59.5 150t118.5 131.5t183.5 95.5t240.5 36q88 0 162 -16.5t125 -46t90 -69t57 -85t25.5 -96t-3.5 -100.5q-20 -110 -83 -190t-156 -126q196 -114 153 -364q-28 -151 -125.5 -262t-233 -164.5t-290.5 -53.5q-115 0 -210.5 31.5
t-162.5 90.5t-95.5 151.5t-8.5 206.5q43 250 280 364zM780 1219q-61 0 -105.5 -40.5t-56.5 -111.5q-12 -70 19 -108.5t90 -38.5t104 38.5t58 108.5q12 71 -18.5 111.5t-90.5 40.5zM678 645q-78 0 -134 -46.5t-71 -125.5q-11 -75 26.5 -122.5t118.5 -47.5q80 0 135.5 48
t67.5 122q13 78 -26 125t-117 47z" />
    <glyph glyph-name="dvNine" unicode="&#x96f;" horiz-adv-x="1241" 
d="M96 453h375q3 -140 127 -140q92 0 141.5 87t83.5 280q-51 -60 -131 -94.5t-170 -34.5q-199 0 -299.5 122t-60.5 351q42 230 204 365t404 135q131 0 222.5 -35t143 -97t73.5 -156.5t18.5 -202t-27.5 -245.5q-35 -197 -86.5 -340t-129.5 -248.5t-188.5 -157.5t-256.5 -52
q-99 0 -178.5 25.5t-131.5 69.5t-85 103.5t-44.5 126t-3.5 138.5zM672 862q71 0 119.5 42t62.5 114q13 81 -21 122.5t-108 41.5t-123.5 -42.5t-62.5 -119.5q-12 -72 23 -115t110 -43z" />
    <glyph glyph-name="dvAbbreviationsign" unicode="&#x970;" horiz-adv-x="962" 
d="M545 1028q157 0 239 -97t54 -251q-28 -153 -142.5 -249.5t-269.5 -96.5q-159 0 -243 97t-56 249q26 154 143 251t275 97zM508 811q-60 0 -105.5 -37t-54.5 -94q-10 -57 22.5 -93t92.5 -36q57 0 99 35.5t52 93.5q9 57 -20 94t-86 37z" />
    <glyph glyph-name="dvAcandra" unicode="&#x972;" horiz-adv-x="1722" 
d="M580 991q65 0 111.5 31.5t56.5 85.5q9 52 -16 83.5t-73 31.5q-50 0 -87 -31t-46 -78h-338q32 187 176.5 303.5t348.5 116.5q200 0 299.5 -102.5t68.5 -274.5q-19 -108 -85.5 -186t-170.5 -115l-2 -8q46 -13 92 -49h297l125 717h547l-51 -308h-180l-213 -1208h-369l88 496
h-174q-41 -171 -174.5 -271t-318.5 -100q-222 0 -335.5 120.5t-78.5 317.5h344q-9 -52 18 -87.5t84 -35.5q55 0 92.5 34t45.5 89q11 58 -23 95.5t-113 37.5h-96l53 295h97zM1606 1677q-260 0 -373.5 123t-75.5 332h316q-14 -83 25 -132.5t138 -49.5q100 0 159 50t73 132h315
q-37 -213 -179.5 -334t-397.5 -121z" />
    <glyph glyph-name="Wgrave" unicode="&#x1e80;" horiz-adv-x="2203" 
d="M301 0l-94 1444h434l-4 -987l399 987h441l47 -983l342 983h434l-608 -1444h-494l-43 887l-360 -887h-494zM977 1722l53 303l471 -231l-49 -272z" />
    <glyph glyph-name="wgrave" unicode="&#x1e81;" horiz-adv-x="1812" 
d="M190 0l-88 1149h402l-6 -762l305 762h428l41 -766l264 766h375l-496 -1149h-448l-37 696l-289 -696h-451zM776 1427l53 304l471 -232l-49 -272z" />
    <glyph glyph-name="Wacute" unicode="&#x1e82;" horiz-adv-x="2203" 
d="M301 0l-94 1444h434l-4 -987l399 987h441l47 -983l342 983h434l-608 -1444h-494l-43 887l-360 -887h-494zM1032 1796l553 232l-53 -304l-549 -200z" />
    <glyph glyph-name="wacute" unicode="&#x1e83;" horiz-adv-x="1812" 
d="M190 0l-88 1149h402l-6 -762l305 762h428l41 -766l264 766h375l-496 -1149h-448l-37 696l-289 -696h-451zM840 1499l553 232l-54 -304l-548 -200z" />
    <glyph glyph-name="Wdieresis" unicode="&#x1e84;" horiz-adv-x="2203" 
d="M301 0l-94 1444h434l-4 -987l399 987h441l47 -983l342 983h434l-608 -1444h-494l-43 887l-360 -887h-494zM1004 1567q-61 0 -99.5 37t-38.5 94q0 82 58.5 139t136.5 57q63 0 100 -37t37 -98q0 -79 -58.5 -135.5t-135.5 -56.5zM1438 1567q-60 0 -99 37t-39 94
q0 81 59 138.5t136 57.5q63 0 101 -37.5t38 -97.5q0 -79 -58.5 -135.5t-137.5 -56.5z" />
    <glyph glyph-name="wdieresis" unicode="&#x1e85;" horiz-adv-x="1812" 
d="M190 0l-88 1149h402l-6 -762l305 762h428l41 -766l264 766h375l-496 -1149h-448l-37 696l-289 -696h-451zM811 1270q-61 0 -99 37t-38 94q0 82 58 139t136 57q63 0 100.5 -37.5t37.5 -97.5q0 -79 -59 -135.5t-136 -56.5zM1245 1270q-60 0 -98.5 37t-38.5 94
q0 81 59 138.5t136 57.5q63 0 101 -37.5t38 -97.5q0 -79 -59 -135.5t-138 -56.5z" />
    <glyph glyph-name="uni1EBC" unicode="&#x1ebc;" horiz-adv-x="1122" 
d="M1190 1444l-55 -318h-523l-41 -239h461l-55 -305h-461l-47 -263h522l-55 -319h-926l256 1444h924zM295 1552q113 332 364 332q54 0 103 -23t89 -46t73 -23q77 0 106 92h203q-114 -330 -365 -330q-43 0 -83.5 14.5t-66.5 32t-57.5 32t-58.5 14.5q-73 0 -106 -95h-201z" />
    <glyph glyph-name="uni1EBD" unicode="&#x1ebd;" horiz-adv-x="1261" 
d="M676 846q-76 0 -131.5 -43.5t-81.5 -126.5h356q14 82 -27.5 126t-115.5 44zM1153 397q-70 -180 -242 -295.5t-385 -115.5q-127 0 -227 41t-164 115.5t-87.5 186t-0.5 246.5q49 271 238 429.5t450 158.5q258 0 391 -155t88 -418q-12 -64 -24 -94h-760q-10 -96 28 -142.5
t109 -46.5q101 0 160 90h426zM326 1251q113 332 364 332q54 0 102.5 -23t88.5 -46t73 -23q78 0 107 92h203q-114 -330 -365 -330q-43 0 -83.5 14.5t-66.5 32t-57.5 32t-58.5 14.5q-74 0 -107 -95h-200z" />
    <glyph glyph-name="Ygrave" unicode="&#x1ef2;" horiz-adv-x="1435" 
d="M494 459l-334 985h458l156 -559l352 559h453l-682 -985l-82 -459h-401zM659 1729l54 303l471 -232l-49 -272z" />
    <glyph glyph-name="ygrave" unicode="&#x1ef3;" horiz-adv-x="1341" 
d="M367 49l-277 1100h447l125 -651l348 651h440l-1026 -1696h-436zM559 1427l53 304l471 -232l-49 -272z" />
    <glyph glyph-name="uni1EF8" unicode="&#x1ef8;" horiz-adv-x="1435" 
d="M494 459l-334 985h458l156 -559l352 559h453l-682 -985l-82 -459h-401zM446 1552q113 332 365 332q54 0 102.5 -23t88.5 -46t73 -23q78 0 107 92h202q-114 -330 -364 -330q-43 0 -83.5 14.5t-66.5 32t-57.5 32t-58.5 14.5q-74 0 -107 -95h-201z" />
    <glyph glyph-name="uni1EF9" unicode="&#x1ef9;" horiz-adv-x="1341" 
d="M367 49l-277 1100h447l125 -651l348 651h440l-1026 -1696h-436zM344 1251q113 332 365 332q54 0 102.5 -23t88.5 -46t73 -23q77 0 106 92h203q-114 -330 -364 -330q-54 0 -103.5 23.5t-90 46.5t-73.5 23q-73 0 -106 -95h-201z" />
    <glyph glyph-name="zerowidthnonjoiner" unicode="&#x200c;" horiz-adv-x="0" 
d="M49 -471h-96v2132h96v-2132z" />
    <glyph glyph-name="zerowidthjoiner" unicode="&#x200d;" horiz-adv-x="0" 
d="M262 1214l-67 -67l-148 153v-1771h-96v1771l-141 -149l-68 68l190 190l-194 195l67 67l195 -194l197 194l65 -65l-196 -197z" />
    <glyph glyph-name="endash" unicode="&#x2013;" horiz-adv-x="1411" 
d="M121 543l59 334h1155l-59 -334h-1155z" />
    <glyph glyph-name="emdash" unicode="&#x2014;" horiz-adv-x="1910" 
d="M121 543l59 334h1655l-59 -334h-1655z" />
    <glyph glyph-name="quoteleft" unicode="&#x2018;" horiz-adv-x="708" 
d="M315 1444h267l-199 -578h-406z" />
    <glyph glyph-name="quoteright" unicode="&#x2019;" horiz-adv-x="708" 
d="M442 866h-266l199 578h405z" />
    <glyph glyph-name="quotesinglbase" unicode="&#x201a;" horiz-adv-x="530" 
d="M-106 -319l247 706h406l-389 -706h-264z" />
    <glyph glyph-name="quotedblleft" unicode="&#x201c;" horiz-adv-x="1220" 
d="M315 1444h267l-199 -578h-406zM825 1444h267l-199 -578h-406z" />
    <glyph glyph-name="quotedblright" unicode="&#x201d;" horiz-adv-x="1208" 
d="M928 866h-266l198 578h406zM418 866h-266l198 578h406z" />
    <glyph glyph-name="quotedblbase" unicode="&#x201e;" horiz-adv-x="530" 
d="M-106 -319l247 706h406l-389 -706h-264z" />
    <glyph glyph-name="dagger" unicode="&#x2020;" horiz-adv-x="1404" 
d="M956 1120l445 29l-55 -303l-433 28l-211 -1423h-401l289 1423l-440 -28l53 303l430 -29l49 500h403z" />
    <glyph glyph-name="daggerdbl" unicode="&#x2021;" horiz-adv-x="1402" 
d="M1401 1149l-55 -303l-433 28l-118 -675l444 28l-55 -303l-432 27l-50 -500h-403l129 500l-442 -27l55 303l430 -28l119 675l-443 -28l56 303l430 -29l47 500h403l-127 -500z" />
    <glyph glyph-name="bullet" unicode="&#x2022;" horiz-adv-x="1062" 
d="M492 358q-137 0 -216 94t-53 230q25 138 136 233t247 95q138 0 215.5 -95t52.5 -233q-25 -137 -134.5 -230.5t-247.5 -93.5z" />
    <glyph glyph-name="ellipsis" unicode="&#x2026;" horiz-adv-x="1669" 
d="M1001 190q-15 -89 -90.5 -147.5t-179.5 -58.5q-106 0 -160 58.5t-39 147.5t91.5 149t181.5 60q104 0 157.5 -59.5t38.5 -149.5zM1528 190q-15 -89 -90.5 -147.5t-180.5 -58.5t-159 58.5t-39 147.5t91 149t181 60q104 0 158 -60t39 -149zM473 190q-15 -89 -90.5 -147.5
t-179.5 -58.5q-106 0 -160 58.5t-39 147.5t91 149t181 60q104 0 158 -60t39 -149z" />
    <glyph glyph-name="perthousand" unicode="&#x2030;" horiz-adv-x="2523" 
d="M143 1112q31 172 146 264t274 92t240.5 -92t50.5 -264q-30 -171 -144 -263.5t-272 -92.5q-159 0 -242 92.5t-53 263.5zM520 1235q-83 0 -106 -123q-21 -121 61 -121q42 0 71.5 30.5t39.5 90.5q23 123 -66 123zM193 0l1032 1448h385l-1032 -1448h-385zM948 338
q31 172 146 264t272 92q158 0 239.5 -91.5t51.5 -264.5t-144 -265.5t-272 -92.5q-157 0 -240 93t-53 265zM1323 459q-85 0 -106 -121q-23 -123 63 -123t109 123q10 60 -7.5 90.5t-58.5 30.5zM1716 338q31 172 146 264t274 92t240.5 -92t50.5 -264q-30 -173 -143.5 -265.5
t-270.5 -92.5q-159 0 -243 93t-54 265zM2093 459q-85 0 -106 -121q-21 -123 63 -123q41 0 70 31t39 92q21 121 -66 121z" />
    <glyph glyph-name="guilsinglleft" unicode="&#x2039;" horiz-adv-x="727" 
d="M459 604l106 -358h-368l-101 358l228 359h368z" />
    <glyph glyph-name="guilsinglright" unicode="&#x203a;" horiz-adv-x="727" 
d="M412 246h-369l233 358l-106 359h369l100 -359z" />
    <glyph glyph-name="fraction" unicode="&#x2044;" horiz-adv-x="1153" 
d="M-121 0l1032 1448h387l-1032 -1448h-387z" />
    <glyph glyph-name="rupee" unicode="&#x20a8;" horiz-adv-x="2478" 
d="M944 958q12 71 -22 111.5t-115 40.5h-199l-51 -301h199q161 0 188 149zM266 1444h633q131 0 228.5 -36t152.5 -99t74.5 -146.5t1.5 -181.5q-26 -147 -129 -259.5t-269 -158.5l232 -563h-449l-198 535h-35l-94 -535h-404zM1397 805q26 153 172.5 255.5t374.5 102.5
q238 0 357.5 -109.5t119.5 -291.5h-398q-1 52 -39.5 77t-101.5 25q-53 0 -87.5 -18t-41.5 -51q-5 -32 29 -52.5t92.5 -33t129 -25.5t139.5 -36.5t123.5 -58t81 -97.5t11.5 -148q-29 -157 -172.5 -257.5t-363.5 -100.5q-241 0 -369.5 103t-122.5 298h398q-4 -54 36 -79
t107 -25q109 0 123 71q5 29 -20.5 49.5t-71.5 31t-105 23t-120.5 24.5t-118 37t-98 59t-60 92.5t-4.5 134.5z" />
    <glyph glyph-name="Euro" unicode="&#x20ac;" horiz-adv-x="1624" 
d="M178 725q1 7 4 22.5t4 22.5h-116l32 195h150q106 228 310.5 360.5t463.5 132.5q269 0 429 -144.5t169 -391.5h-432q-25 79 -87 122t-151 43q-156 0 -262 -122h299l-33 -195h-362q-8 -27 -10 -45q-1 -7 -3 -20.5t-3 -20.5h362l-35 -192h-303q29 -63 86 -97.5t135 -34.5
q89 0 166 43t131 123h432q-97 -247 -307.5 -391.5t-480.5 -144.5q-259 0 -416.5 135.5t-181.5 366.5h-150l35 192h119q1 7 3 20.5t3 20.5z" />
    <glyph glyph-name="indianrupee" unicode="&#x20b9;" horiz-adv-x="1204" 
d="M174 1178l47 266h1071l-45 -266h-147l-17 -95h146l-41 -235h-158q-65 -174 -209 -273.5t-375 -99.5l-12 -59q-10 -65 7 -100t75 -35q55 0 83 34t42 109h371q-46 -207 -182 -325.5t-353 -118.5q-493 0 -405 497l45 258q294 0 397.5 19.5t138.5 93.5h-536l41 235h549l16 95
h-549z" />
    <glyph glyph-name="uni20BA" unicode="&#x20ba;" horiz-adv-x="1691" 
d="M819 1452l-53 -309l254 43l-41 -240l-256 -41l-16 -94l258 41l-43 -242l-258 -41l-33 -188q64 -14 157 -14q75 0 136.5 17.5t106.5 45.5t81.5 74.5t60.5 92.5t44.5 112t32.5 121t26 131h407q-45 -260 -119 -440t-189 -300.5t-274 -175.5t-376 -55q-230 0 -561 63l80 451
l-240 -37l41 242l242 36l16 95l-244 -39l41 233l244 41l68 377h407z" />
    <glyph glyph-name="uni20BD" unicode="&#x20bd;" horiz-adv-x="1417" 
d="M729 1141l-51 -285h176q75 0 121 38t57 103q11 63 -21.5 103.5t-105.5 40.5h-176zM23 549l53 307h200l103 588h602q260 0 378 -124t83 -325q-17 -95 -64.5 -175t-123.5 -141t-186.5 -95.5t-244.5 -34.5h-198l-19 -103h275l-54 -303h-276l-25 -143h-401l25 143h-199
l53 303h199l18 103h-198z" />
    <glyph glyph-name="uni2113" unicode="&#x2113;" horiz-adv-x="630" 
d="M10 0l269 1516h403l-268 -1516h-404z" />
    <glyph glyph-name="trademark" unicode="&#x2122;" horiz-adv-x="1873" 
d="M170 1217l41 231h629l-41 -231h-172l-86 -486h-285l88 486h-174zM811 731l127 717h385l59 -369l213 369h355l-127 -717h-260l61 381l-221 -381h-191l-82 402l-71 -402h-248z" />
    <glyph glyph-name="uni2126" unicode="&#x2126;" horiz-adv-x="1617" 
d="M104 774q28 160 108.5 291.5t195.5 218.5t258.5 134.5t298.5 47.5t281 -47.5t211 -134.5t119.5 -218.5t6.5 -291.5q-55 -307 -268 -469h180l-55 -305h-549l55 313q87 95 141 191t76 217q32 180 -38 277.5t-226 97.5q-155 0 -259 -97.5t-136 -277.5q-18 -81 -10.5 -157
t27.5 -132.5t57 -118.5l-56 -313h-551l56 305h178q-156 164 -101 469z" />
    <glyph glyph-name="estimated" unicode="&#x212e;" horiz-adv-x="1523" 
d="M1346 274q-317 -288 -672 -288q-153 0 -275.5 47.5t-202.5 136t-110.5 222.5t-1.5 300q29 164 100.5 305t176.5 246t249 165t308 60q163 0 287.5 -56.5t194 -151t95 -215.5t2.5 -254l-22 -132h-973l-64 -370q126 -74 277 -74q275 0 524 213zM539 856h544l60 332
q-94 61 -262 61q-155 0 -287 -71z" />
    <glyph glyph-name="partialdiff" unicode="&#x2202;" horiz-adv-x="1288" 
d="M805 641q14 85 -15 129.5t-85 44.5q-92 0 -155 -78.5t-87 -206.5q-16 -100 13 -148t89 -48q90 0 152 83t88 224zM55 528q25 140 90 258t155.5 197t200 122.5t224.5 43.5q141 0 205 -80q-11 109 -74.5 165t-198.5 56q-66 0 -120 -10l32 199q145 37 265 37q135 0 232 -48.5
t148.5 -138.5t66.5 -218t-15 -286q-70 -392 -284 -615.5t-515 -223.5q-105 0 -189 33t-143.5 100t-80.5 169t1 240z" />
    <glyph glyph-name="uni2206" unicode="&#x2206;" horiz-adv-x="1542" 
d="M-8 305l770 1143h325l365 -1143l-55 -305h-1458zM1036 305l-192 688l-436 -688h628z" />
    <glyph glyph-name="product" unicode="&#x220f;" horiz-adv-x="1536" 
d="M129 1147l55 301h1475l-55 -301h-138l-202 -1147h-402l201 1147h-393l-201 -1147h-403l202 1147h-139z" />
    <glyph glyph-name="summation" unicode="&#x2211;" horiz-adv-x="1148" 
d="M152 981l84 467h985l-56 -303h-590l406 -287l-51 -303l-541 -346h612l-55 -307h-985l84 471l520 323z" />
    <glyph glyph-name="minus" unicode="&#x2212;" horiz-adv-x="1075" 
d="M66 543l59 334h928l-60 -334h-927z" />
    <glyph glyph-name="uni2215" unicode="&#x2215;" horiz-adv-x="872" 
d="M-201 -395l963 2345h387l-961 -2345h-389z" />
    <glyph glyph-name="uni2219" unicode="&#x2219;" horiz-adv-x="663" 
d="M498 625q-15 -89 -91 -148t-180 -59q-105 0 -159 58.5t-39 148.5q15 89 91 149t181 60q104 0 158 -60t39 -149z" />
    <glyph glyph-name="radical" unicode="&#x221a;" horiz-adv-x="1996" 
d="M727 -84h-192l-222 576l-194 -105l-82 184l592 316l196 -518l1119 1507h233z" />
    <glyph glyph-name="infinity" unicode="&#x221e;" horiz-adv-x="1660" 
d="M485 606q103 0 191 88q-38 61 -74 93t-80 32q-45 0 -79 -28.5t-44 -79.5q-9 -49 15.5 -77t70.5 -28zM1184 606q46 0 80 28.5t43 78.5q9 51 -14.5 78.5t-69.5 27.5q-53 0 -110 -27.5t-103 -78.5q75 -107 174 -107zM86 711q30 169 157 268.5t289 99.5q133 0 217.5 -49.5
t145.5 -134.5q79 86 183.5 135.5t219.5 48.5q180 -2 266 -97.5t56 -268.5q-30 -168 -158.5 -268.5t-290.5 -100.5q-226 0 -372 172q-78 -81 -179 -127t-212 -45q-180 2 -265.5 98.5t-56.5 268.5z" />
    <glyph glyph-name="integral" unicode="&#x222b;" horiz-adv-x="618" 
d="M-117 -184l479 1724q26 94 69.5 165.5t96.5 116.5t120 73.5t135.5 39.5t148.5 11h31l-93 -342h-34q-52 0 -72 -64l-479 -1724q-32 -117 -89.5 -198.5t-134.5 -125.5t-160.5 -63t-185.5 -19h-30l92 342h35q51 0 71 64z" />
    <glyph glyph-name="approxequal" unicode="&#x2248;" horiz-adv-x="1380" 
d="M16 195q84 253 221.5 373t309.5 120q63 0 123 -21t97.5 -46.5t83.5 -46.5t85 -21q55 0 90.5 32t58.5 105h301q-84 -252 -221.5 -371.5t-310.5 -119.5q-63 0 -123 21t-98 46.5t-84 46.5t-86 21q-54 0 -90 -33t-62 -106h-295zM16 733q85 253 222 373.5t309 120.5
q63 0 123 -21t97.5 -46.5t83.5 -46.5t85 -21q55 0 90.5 32t58.5 105h301q-84 -252 -222 -372t-310 -120q-63 0 -123 21t-98 46.5t-84 46.5t-86 21q-54 0 -90 -33t-62 -106h-295z" />
    <glyph glyph-name="notequal" unicode="&#x2260;" horiz-adv-x="1343" 
d="M-2 49l182 201h-149l63 364h418l168 185h-553l66 362h819l182 201h207l-182 -201h147l-63 -362h-416l-168 -185h551l-64 -364h-819l-182 -201h-207z" />
    <glyph glyph-name="lessequal" unicode="&#x2264;" horiz-adv-x="1034" 
d="M932 406h-498l-328 372l459 377h498l-457 -375zM6 -61l53 309h842l-53 -309h-842z" />
    <glyph glyph-name="greaterequal" unicode="&#x2265;" horiz-adv-x="1034" 
d="M539 406h-498l459 372l-328 377h498l327 -377zM14 248h842l-53 -309h-842z" />
    <glyph glyph-name="lozenge" unicode="&#x25ca;" horiz-adv-x="1163" 
d="M55 725l650 549l454 -549l-647 -551zM778 725l-139 170l-201 -170l142 -172z" />
    <glyph glyph-name="dottedcircle" unicode="&#x25cc;" horiz-adv-x="1333" 
d="M1141 838q0 -38 -25 -62t-63 -24t-63 24t-25 62t25 62t63 24t63 -24t25 -62zM371 252q0 -38 -25 -62t-63 -24t-63 24t-25 62t25 62t63 24t63 -24t25 -62zM571 96q0 -38 -25 -62t-63 -24t-63 24t-25 62t25 62t63 24t63 -24t25 -62zM279 483q0 -38 -25 -62t-64 -24
q-38 0 -63 24t-25 62t25 62t63 24q39 0 64 -24t25 -62zM825 68q0 -38 -25 -62t-63 -24t-63 24t-25 62t25 62t63 24t63 -24t25 -62zM309 731q0 -38 -25 -62t-63 -24t-63 24t-25 62t25 62t63 24t63 -24t25 -62zM1061 162q0 -38 -25 -62t-63 -24t-63 24t-25 62t25 62t63 24
t63 -24t25 -62zM465 934q0 -38 -25 -62t-63 -24t-63 24t-25 62t25 62t63 24t63 -24t25 -62zM1210 358q0 -38 -25 -62t-63 -24t-63 24t-25 62t25 62t63 24t63 -24t25 -62zM705 1020q0 -38 -25 -62t-64 -24q-38 0 -63 24t-25 62t25 62t63 24q39 0 64 -24t25 -62zM1231 604
q0 -38 -25 -62t-63 -24t-63 24t-25 62t25 62t63 24t63 -24t25 -62zM952 989q0 -38 -25 -62t-63 -24t-63 24t-25 62t25 62t63 24t63 -24t25 -62z" />
    <glyph glyph-name="fi" unicode="&#xfb01;" horiz-adv-x="1402" 
d="M49 0l144 815h-125l59 334h125l2 10q43 238 207.5 356t429.5 99l-60 -342q-80 8 -119.5 -19.5t-56.5 -103.5h693l-203 -1149h-402l144 815h-291l-143 -815h-404zM1161 1223q-106 0 -159.5 55.5t-38.5 144.5q14 87 88.5 143t179.5 56q106 0 160.5 -55.5t40.5 -143.5
q-15 -88 -90.5 -144t-180.5 -56z" />
    <glyph glyph-name="fl" unicode="&#xfb02;" horiz-adv-x="1394" 
d="M49 0l144 815h-125l59 334h125l2 10q43 239 213 357t444 98l-59 -342q-90 9 -135 -19t-62 -104h181l-60 -334h-180l-143 -815h-404zM774 0l268 1516h404l-268 -1516h-404z" />
    <glyph glyph-name="dvK_SSA" horiz-adv-x="1810" 
d="M567 1098q-11 -64 30 -105.5t126 -44.5q104 67 117 144q9 54 -21.5 91.5t-93.5 37.5q-58 0 -103 -34t-55 -89zM602 -133l51 299q-46 -45 -116 -71.5t-152 -26.5q-170 0 -261.5 98t-62.5 258q13 72 45 132t81 105t99.5 77t116.5 63q-55 29 -93.5 74t-57 115.5t-2.5 154.5
q32 176 181.5 282.5t356.5 106.5q121 0 211 -41.5t134.5 -128t23.5 -205.5q-22 -122 -113 -213h297l101 570h532l-53 -308h-180l-213 -1208h-354l120 680h-653q-84 -36 -129 -75t-55 -99q-11 -58 21.5 -96.5t94.5 -38.5q70 0 118.5 48t60.5 111h305l-117 -663h-338z" />
    <glyph glyph-name="dvJ_NYA" horiz-adv-x="1755" 
d="M1104 0l127 719h-242q81 -91 62 -242q-23 -164 -143 -261t-287 -91q-179 9 -256 102l-43 -243h-359l105 594h344q-5 -67 33.5 -109.5t109.5 -42.5q72 0 118.5 40.5t57.5 100.5q11 74 -31.5 113t-109.5 39h-94l51 295h737l35 194h-1266l56 308h1808l-55 -308h-179
l-215 -1208h-364z" />
    <glyph glyph-name="dvK" horiz-adv-x="1415" 
d="M684 0l41 238q-114 -127 -307 -127q-185 0 -285.5 138.5t-62.5 348.5q37 215 174 343t340 128q194 0 266 -125l47 264h-848l55 308h1893l-55 -308h-691l-45 -258q109 119 283 119q128 0 215 -66.5t118.5 -175t6.5 -237.5h-373q13 67 -20.5 116.5t-106.5 49.5
q-77 0 -125.5 -53t-64.5 -142l-99 -561h-356zM590 420q77 1 130 47t66 108v9q14 73 -24 122.5t-117 49.5q-76 0 -133 -46.5t-70 -121.5q-13 -74 29.5 -122t118.5 -46z" />
    <glyph glyph-name="dvKH" horiz-adv-x="1368" 
d="M1288 483q69 0 115.5 39.5t58.5 108.5q12 67 -21 106t-102 39t-116.5 -39t-59.5 -106q-12 -69 22 -108.5t103 -39.5zM51 1208l55 308h1833l-53 -308h-995l-31 -178q-34 -195 -141 -312.5t-260 -144.5l-6 -30q-20 -106 31 -174t167 -68q134 0 215 88q-51 102 -28 242
q35 194 188 307t363 113q208 0 319 -113t76 -307q-23 -133 -103.5 -231t-194.5 -146.5t-247 -48.5q-67 0 -125 12q-82 -106 -204.5 -169.5t-276.5 -63.5q-297 0 -442.5 163t-96.5 441l41 241h45q144 0 220 61t98 191l20 127h-467z" />
    <glyph glyph-name="dvG" horiz-adv-x="1187" 
d="M49 1208l55 308h1221l-55 -308h-221l-76 -434q-17 -101 -56.5 -183.5t-101 -146t-152.5 -98.5t-204 -35q-102 0 -183 28.5t-135 83.5t-74 140.5t-1 192.5q7 40 14 67h356l-12 -65q-10 -63 3.5 -97t61.5 -34q89 0 111 131l80 450h-631z" />
    <glyph glyph-name="dvGH" horiz-adv-x="776" 
d="M49 1208l55 308h1248l-56 -308h-704l-10 -59q-11 -70 18 -106.5t111 -36.5h75l-53 -297h-104q-69 0 -110 -30.5t-50 -80.5q-9 -55 28.5 -84t106.5 -29q124 0 199.5 67.5t95.5 174.5h313q-20 -111 -75 -208.5t-138 -172t-199.5 -117.5t-250.5 -43q-244 0 -367 105.5
t-92 279.5q19 110 89.5 180.5t162.5 96.5l2 8q-80 25 -117.5 92t-15.5 182l12 78h-174z" />
    <glyph glyph-name="dvNG" horiz-adv-x="1464" 
d="M1227 553q-78 0 -123 54.5t-31 131.5q14 78 78.5 133.5t142.5 55.5t124 -55.5t32 -133.5q-14 -77 -79 -131.5t-144 -54.5zM494 -621l-185 474h367l194 -474h-376zM53 1208l56 308h1521l-55 -308h-518l-23 -123h2l-47 -258h-383q-98 0 -112 -69q-6 -35 16 -52.5t63 -17.5
h91q183 0 288 -95t72 -278q-30 -171 -163 -265.5t-357 -94.5q-148 0 -261 44t-174.5 135t-45.5 216h368q-7 -60 32 -89.5t101 -29.5q60 0 101.5 27t48.5 72q9 49 -22.5 74.5t-100.5 25.5h-70q-35 0 -69.5 4.5t-74.5 14.5t-73.5 27.5t-65 43.5t-49 62t-26 83t3.5 107
q27 153 145.5 233t284.5 80h119l22 123h-645z" />
    <glyph glyph-name="dvC" horiz-adv-x="911" 
d="M102 752l52 288h761l-51 -288h-90q-65 0 -116.5 -39.5t-63.5 -104.5q-12 -69 33 -107t125 -38q112 3 184.5 83t97.5 218h320q-45 -282 -229 -445t-466 -163q-146 0 -247.5 41.5t-149.5 129.5t-26 214q21 125 116 211h-250zM49 1208l55 308h1383l-53 -308h-1385z" />
    <glyph glyph-name="dvCH" horiz-adv-x="1689" 
d="M47 1208l55 308h1749l-55 -308h-1206l-19 -108q-24 -144 105 -144h41l-53 -294h-33q-75 0 -123 -38t-57 -96q-14 -84 56.5 -130t246.5 -46q454 0 512 322q12 66 -8 108.5t-66 42.5q-45 0 -79 -36.5t-46 -100.5q-11 -65 -4 -147h-301q-12 87 6 188q22 123 93.5 208.5
t168.5 123t213 37.5q192 0 285.5 -119.5t56.5 -323.5q-50 -284 -284.5 -451t-606.5 -167q-204 0 -354.5 56.5t-223 166t-42.5 254.5q42 210 256 289v6q-170 55 -131 274l22 125h-174z" />
    <glyph glyph-name="dvJ" horiz-adv-x="1148" 
d="M496 184q-225 0 -342.5 134.5t-77.5 353.5l57 321h371l-58 -323q-14 -78 10.5 -120t84.5 -42t97.5 41.5t51.5 120.5l58 323h749l-57 -315h-387l-4 -19q-36 -213 -184 -344t-369 -131zM53 1208l56 308h1478l-53 -308h-1481z" />
    <glyph glyph-name="dvJH" horiz-adv-x="1140" 
d="M66 1208l55 308h1450l-53 -308h-459l-33 -190l-35 -191h-385q-97 0 -110 -71q-6 -33 16 -50.5t66 -17.5h847l-47 -276h-370q10 -63 -2 -138q-24 -138 -127.5 -223.5t-257.5 -85.5q-140 0 -224 74l-37 -217h-350l92 524h332q-6 -54 24.5 -83.5t90.5 -29.5q54 0 87.5 25.5
t39.5 69.5q8 47 -24.5 74.5t-102.5 27.5q-82 0 -133 2q-63 4 -118.5 25.5t-101 62t-66 109t-5.5 155.5q13 80 53.5 140t99.5 95.5t129.5 53t151.5 17.5h121l20 118h-634z" />
    <glyph glyph-name="dvNY" horiz-adv-x="1087" 
d="M467 86q-206 0 -322.5 111t-93.5 303h348q6 -51 41 -77t84 -26q71 0 121 52.5t64 132.5q14 77 -17 129.5t-102 52.5q-49 0 -93.5 -26t-68.5 -76h-348q45 194 200 304.5t361 110.5q172 0 280.5 -85.5t125.5 -239.5h358l-55 -312h-351q-68 -167 -210 -260.5t-322 -93.5z
M49 1208l55 308h1438l-55 -308h-1438z" />
    <glyph glyph-name="dvTT" horiz-adv-x="1318" 
d="M559 -547l-188 471h366l197 -471h-375zM49 1208l53 308h1379l-56 -308h-329l-76 -440h-305q-106 0 -187 -57t-100 -160q-17 -92 33.5 -149.5t152.5 -57.5q106 0 179 61t90 160h352q-43 -246 -219.5 -393t-437.5 -147q-266 0 -412 148t-107 390q40 235 212.5 370
t439.5 144l22 131h-684z" />
    <glyph glyph-name="dvTTH" horiz-adv-x="1368" 
d="M557 -524l-186 471h366l197 -471h-377zM610 356q101 0 171.5 60t88.5 157q18 95 -31.5 155t-152.5 60q-100 0 -170.5 -59t-85.5 -154q-17 -97 31.5 -158t148.5 -61zM571 49q-120 0 -222.5 37.5t-174 105.5t-102.5 171.5t-9 226.5q34 203 167.5 327.5t322.5 163.5l22 127
h-528l53 308h1430l-55 -308h-535l-25 -135q174 -49 266 -182t56 -332q-42 -240 -227 -375t-439 -135z" />
    <glyph glyph-name="dvDD" horiz-adv-x="1157" 
d="M459 -621l-187 474h367l195 -474h-375zM55 1208l54 308h1210l-53 -308h-213l-68 -381h-379q-98 0 -112 -69q-6 -35 16 -52.5t63 -17.5h91q183 0 288 -95t72 -278q-30 -171 -163 -265.5t-357 -94.5q-148 0 -261 44t-174.5 135t-45.5 216h368q-7 -60 32 -89.5t101 -29.5
q60 0 101.5 27t48.5 72q9 49 -22.5 74.5t-100.5 25.5h-70q-35 0 -69.5 4.5t-74.5 14.5t-73.5 27.5t-65 43.5t-49 62t-26 83t3.5 107q27 153 145.5 233t284.5 80h119l22 123h-643z" />
    <glyph glyph-name="dvDDH" horiz-adv-x="1353" 
d="M563 -602l-186 471h366l195 -471h-375zM53 1208l53 308h1410l-56 -308h-317l-62 -362h-254q-155 0 -269.5 -82t-139.5 -229q-23 -132 42.5 -215.5t227.5 -83.5q105 0 178.5 40.5t87.5 116.5q6 38 -13.5 62t-53.5 24q-33 0 -57 -18.5t-31 -50.5q-4 -12 -4 -35h-260
q0 47 6 82q23 135 133 208.5t274 73.5q166 0 256 -99t62 -257q-36 -193 -196 -302.5t-419 -109.5q-144 0 -263 42.5t-198 119t-112.5 189t-11.5 245.5q31 168 130.5 289t242 180.5t313.5 59.5h26l19 112h-744z" />
    <glyph glyph-name="dvNN" horiz-adv-x="1214" 
d="M49 1208l55 308h1268l-55 -308h-131l-84 -471q-17 -101 -57.5 -184t-104 -147.5t-155.5 -100t-205 -35.5q-225 0 -343 129t-81 338l84 471h-191zM602 582q53 0 87.5 32.5t43.5 87.5l90 506h-221l-90 -506q-10 -54 14.5 -87t75.5 -33z" />
    <glyph glyph-name="dvT" horiz-adv-x="782" 
d="M532 2q-84 0 -160.5 18.5t-143 59t-111.5 98.5t-64 143.5t-2 188.5q21 128 84.5 225.5t155.5 155t200.5 85.5t231.5 28h457l-58 -316h-438q-102 0 -172.5 -52.5t-87.5 -143.5q-16 -92 29 -146.5t153 -54.5h35l-51 -289h-58zM49 1208l55 308h1166l-53 -308h-1168z" />
    <glyph glyph-name="dvTH" horiz-adv-x="976" 
d="M1436 745q-18 -112 -69 -208.5t-124 -165.5t-163.5 -118t-190 -73t-201.5 -24q-142 0 -256 37.5t-188 106t-113.5 161.5t-39 207t41.5 239h172q86 0 152.5 10.5t120.5 34t87 64.5t42 100q8 44 -13 74.5t-61 30.5q-63 0 -94.5 -52.5t-28.5 -128.5h-332q4 103 42.5 193.5
t105 157t161 105t205.5 38.5q194 0 294 -116.5t65 -313.5q-34 -201 -191 -326.5t-422 -132.5q4 -90 83 -136t192 -46q155 0 268.5 76t136.5 206h318z" />
    <glyph glyph-name="dvD" horiz-adv-x="1251" 
d="M797 -653l-187 471h367l194 -471h-374zM57 1208l54 308h1312l-57 -308h-211l-82 -460h-385q-96 0 -160 -48t-77 -131q-13 -76 22 -121t109 -45q69 0 118.5 43t61.5 115h342l-113 -641h-360l49 279q-103 -86 -258 -86q-84 0 -154.5 30t-122 90.5t-70.5 151t1 211.5
q27 152 117 259.5t220.5 158.5t291.5 51h53l26 143h-727z" />
    <glyph glyph-name="dvDH" horiz-adv-x="876" 
d="M592 143q-159 0 -277.5 42.5t-180.5 133.5t-38 218q11 63 41 114t71 83t82 51.5t85 29.5l2 8q-99 34 -156 125.5t-33 229.5q29 169 146 262.5t287 93.5q205 0 292.5 -119t26.5 -321h-270q7 33 6 62t-20.5 49t-55.5 20q-40 0 -68.5 -28t-37.5 -73q-7 -44 0 -72.5t33 -45.5
t56.5 -24t69.5 -7h178l-53 -297h-106q-175 0 -197 -115q-6 -32 7.5 -55.5t42.5 -35.5t62.5 -17.5t74.5 -5.5q147 0 233 60t104 161h324q-43 -246 -228 -386.5t-503 -140.5z" />
    <glyph glyph-name="dvN" horiz-adv-x="1058" 
d="M473 111q-136 0 -239.5 61t-151.5 170t-25 242q27 145 111 243t200.5 141.5t260.5 43.5h825l-53 -307h-449q30 -88 13 -195q-23 -128 -96.5 -220t-175 -135.5t-220.5 -43.5zM512 422q63 0 110 39.5t58 101.5q11 61 -22 101.5t-95 40.5q-65 0 -113.5 -40.5t-58.5 -103.5
q-11 -62 23 -100.5t98 -38.5zM49 1208l55 308h1440l-53 -308h-1442z" />
    <glyph glyph-name="dvP" horiz-adv-x="720" 
d="M49 1208l55 308h1215l-55 -308h-686l-68 -370q-18 -100 23.5 -163t142.5 -63q87 0 142 59.5t75 153.5l303 2q-17 -112 -57.5 -204t-107.5 -165t-169 -114t-231 -41q-175 0 -296.5 75.5t-169 206t-18.5 294.5l60 329h-158z" />
    <glyph glyph-name="dvPH" horiz-adv-x="1409" 
d="M655 612q78 0 129.5 50.5t69.5 130.5l72 415h-348l-68 -389q-20 -93 16.5 -150t128.5 -57zM49 1208l55 308h1952l-55 -308h-705l-45 -262q123 123 316 123q128 0 211 -63.5t111 -171t3 -244.5h-374q11 71 -21 118.5t-104 47.5q-81 0 -135 -54.5t-76 -150.5l-97 -551h-370
l69 393q-111 -90 -266 -90q-144 0 -241 68t-132 184.5t-6 263.5l68 389h-158z" />
    <glyph glyph-name="dvB" horiz-adv-x="776" 
d="M547 98q-165 0 -281.5 67.5t-166.5 182.5t-29 258q30 212 196.5 350t423.5 138q130 0 230.5 -40t157.5 -107.5t80.5 -155t8.5 -185.5q-16 -105 -63 -196t-123 -161t-188 -110.5t-246 -40.5zM672 846q-83 0 -162 -47l342 -285q19 34 29 82q19 106 -38 178t-171 72z
M49 1208l55 308h1233l-53 -308h-1235zM586 350q87 0 157 45l-344 283q-21 -48 -26 -82q-20 -110 43 -178t170 -68z" />
    <glyph glyph-name="dvBH" horiz-adv-x="1128" 
d="M504 412q62 0 100 39.5t51 107.5l17 98h-97q-69 0 -116.5 -32.5t-57.5 -92.5q-10 -58 19 -89t84 -31zM455 100q-213 0 -323 118t-75 312q19 107 71.5 190t128.5 134.5t167 77.5t192 26h109l25 142q21 121 -66 121q-40 0 -68.5 -30t-37.5 -77q-7 -36 -5 -61h-370
q-3 31 4 75q32 180 166 293t350 113q83 0 147.5 -18t107 -51.5t70 -78.5t38.5 -102t9.5 -119t-14.5 -133l-12 -74h420l-53 -301h-418l-14 -77q-41 -226 -182 -353t-367 -127z" />
    <glyph glyph-name="dvM" horiz-adv-x="1114" 
d="M483 412q62 0 100.5 40t51.5 107l16 98h-100q-67 0 -113.5 -32.5t-56.5 -92.5q-10 -57 20.5 -88.5t81.5 -31.5zM49 1208l55 308h1471l-53 -308h-428l-45 -250h430l-54 -301h-428l-14 -77q-40 -225 -182.5 -352.5t-368.5 -127.5q-212 0 -320.5 118t-74.5 312
q19 107 71.5 190t128.5 134.5t166.5 77.5t190.5 26h111l43 250h-699z" />
    <glyph glyph-name="dvY" horiz-adv-x="874" 
d="M51 1208l55 308h1410l-54 -308h-606l-25 -145q-58 -345 -374 -391q-10 -103 60 -160t188 -57q134 0 222 73.5t107 186.5h340q-19 -120 -73.5 -222.5t-141.5 -180.5t-212 -122.5t-275 -44.5q-146 0 -263.5 39t-195.5 112t-109.5 183.5t-5.5 245.5q11 63 33 133h19
q84 0 145 19.5t98 58t57 85t31 109.5l13 78h-443z" />
    <glyph glyph-name="dvR" horiz-adv-x="1083" 
d="M397 -596l-186 473h367l194 -473h-375zM51 1208l55 308h1141l-53 -308h-152l-12 -80q-22 -117 -61 -208t-105 -167.5t-170 -119t-241 -45.5l-31 -178q-10 -51 7.5 -83t64.5 -32q41 0 69 31t37 80l8 61h355q-3 -32 -7 -49q-33 -202 -160.5 -319t-330.5 -117
q-223 0 -333 126.5t-75 319.5l82 457h205q152 0 222.5 62t92.5 181l15 80h-623z" />
    <glyph glyph-name="dvL" horiz-adv-x="1292" 
d="M520 35q-104 0 -189 27t-141.5 75.5t-92.5 116.5t-42.5 148.5t8.5 172.5q21 126 76.5 222t132 152t163 84t179.5 28q135 0 217.5 -59t112.5 -154h6q62 98 164.5 155.5t243.5 57.5q71 0 134.5 -20.5t116.5 -61t88 -101.5t49 -141.5t-1 -181.5h-379q14 81 -19.5 130.5
t-105.5 49.5q-81 0 -129 -56.5t-63 -141.5l-11 -56h-305l10 56q7 52 3 96t-35 73t-86 29q-77 0 -127.5 -48.5t-65.5 -131.5q-15 -94 27.5 -147.5t132.5 -53.5q15 0 47 4l-57 -319q-58 -4 -62 -4zM47 1208l55 308h1809l-53 -308h-1811z" />
    <glyph glyph-name="dvV" horiz-adv-x="716" 
d="M551 106q-173 0 -293 69t-168 184t-22 255q36 209 197 336t419 127q137 0 241.5 -43.5t163.5 -116t81.5 -163.5t5.5 -189q-16 -98 -64 -180t-124.5 -145t-188.5 -98.5t-248 -35.5zM594 395q90 0 154.5 57.5t78.5 139.5q15 84 -29.5 140t-135.5 56q-92 0 -159 -55.5
t-81 -140.5q-14 -87 33.5 -142t138.5 -55zM49 1208l55 308h1242l-56 -308h-1241z" />
    <glyph glyph-name="dvSH" horiz-adv-x="1140" 
d="M512 -12q-238 0 -359.5 131t-80.5 352l71 406h281q339 0 377 215q9 54 -13.5 88t-70.5 34q-68 0 -106 -56t-38 -134h-366q20 240 169.5 375t381.5 135q102 0 186.5 -31.5t142.5 -89.5t82 -147.5t5 -198.5q-23 -127 -85.5 -225t-153 -157t-198 -88.5t-229.5 -29.5h-47
l-21 -116q-12 -65 10.5 -106.5t90.5 -41.5q115 0 147 166h359q-28 -230 -164 -355.5t-371 -125.5z" />
    <glyph glyph-name="dvSS" horiz-adv-x="782" 
d="M668 586q152 0 223 121l-371 260l-24 -140q-19 -112 24 -176.5t148 -64.5zM49 1208l55 308h1264l-53 -308h-750l-2 -2l670 -463q-13 -71 -42.5 -136.5t-80 -126.5t-117 -106.5t-160 -72.5t-202.5 -27q-177 0 -300 74.5t-171.5 202.5t-18.5 287l66 370h-158z" />
    <glyph glyph-name="dvS" horiz-adv-x="1038" 
d="M51 1208l55 308h1313l-55 -308h-383l-23 -121q-22 -117 -71 -202h422l-54 -301h-802l-31 -172q-8 -51 11 -84t69 -33q95 0 119 135h354q-20 -210 -156 -329t-352 -119q-149 0 -250 63.5t-139 169.5t-15 238l68 393h141q79 0 137 17.5t93.5 51.5t55.5 75.5t30 96.5l22 121
h-559z" />
    <glyph glyph-name="dvH" horiz-adv-x="1196" 
d="M455 -807l-187 471h367l196 -471h-376zM1036 166q-41 -181 -189.5 -290t-354.5 -109q-232 0 -359 139.5t-88 359.5q42 225 229 340q-106 80 -81 228q21 118 121 190t255 72h131l21 112h-649l55 308h1253l-53 -308h-256l-18 -112l-47 -260h-349q-98 0 -112 -78
q-6 -40 20 -60q23 2 70 2q112 0 200 -34.5t139 -91t73 -126.5t12 -143h-352q0 44 -34 74.5t-93 30.5q-62 0 -114 -45t-65 -123q-14 -83 21.5 -127.5t99.5 -44.5q54 0 97 27.5t63 68.5h354z" />
    <glyph glyph-name="dvLL" horiz-adv-x="1941" 
d="M451 80q-98 0 -179 33.5t-136 94.5t-77.5 152.5t-3.5 200.5q26 145 108.5 255.5t197.5 168t245 57.5q267 0 367 -221h8q167 221 430 221q97 0 178 -34t136 -95t77.5 -152.5t3.5 -199.5q-39 -219 -195 -350t-356 -131q-129 0 -226.5 57.5t-137.5 165.5h-12
q-72 -108 -185 -165.5t-243 -57.5zM555 395q73 0 128.5 46t68.5 120q12 73 -27.5 120.5t-110.5 47.5q-75 0 -130.5 -47.5t-67.5 -122.5q-12 -74 27 -119t112 -45zM1247 395q74 0 130 45t69 119q12 75 -27 122.5t-112 47.5q-74 0 -129.5 -47.5t-67.5 -120.5
q-12 -75 26.5 -120.5t110.5 -45.5zM43 1208l55 308h2001l-53 -308h-2003z" />
    <glyph glyph-name="dvK_SS" horiz-adv-x="1165" 
d="M567 1098q-11 -64 30 -105.5t126 -44.5q104 67 117 144q9 54 -21.5 91.5t-93.5 37.5q-58 0 -103 -34t-55 -89zM602 -133l51 299q-46 -45 -116 -71.5t-152 -26.5q-170 0 -261.5 98t-62.5 258q13 72 45 132t81 105t99.5 77t116.5 63q-55 29 -93.5 74t-57 115.5t-2.5 154.5
q32 176 181.5 282.5t356.5 106.5q121 0 211 -41.5t134.5 -128t23.5 -205.5q-22 -122 -113 -213h443l-45 -266h-801q-84 -36 -129 -75t-55 -99q-11 -58 21.5 -96.5t94.5 -38.5q70 0 118.5 48t60.5 111h305l-117 -663h-338z" />
    <glyph glyph-name="dvJ_NY" horiz-adv-x="1124" 
d="M53 1208l56 308h1497l-56 -308h-1497zM496 719l51 295h969l-52 -295h-475q81 -91 62 -242q-23 -164 -143 -261t-287 -91q-179 9 -256 102l-43 -243h-359l105 594h344q-5 -67 33.5 -109.5t109.5 -42.5q72 0 118.5 40.5t57.5 100.5q11 74 -31.5 113t-109.5 39h-94z" />
    <glyph glyph-name="dvKx" horiz-adv-x="1415" 
d="M684 0l41 238q-114 -127 -307 -127q-185 0 -285.5 138.5t-62.5 348.5q37 215 174 343t340 128q194 0 266 -125l47 264h-848l55 308h1893l-55 -308h-691l-45 -258q109 119 283 119q128 0 215 -66.5t118.5 -175t6.5 -237.5h-373q13 67 -20.5 116.5t-106.5 49.5
q-77 0 -125.5 -53t-64.5 -142l-99 -561h-356zM590 420q77 1 130 47t66 108v9q14 73 -24 122.5t-117 49.5q-76 0 -133 -46.5t-70 -121.5q-13 -74 29.5 -122t118.5 -46zM258 -414q-88 0 -137.5 60t-34.5 147q15 89 86.5 151t159.5 62q89 0 139 -61.5t35 -151.5
q-15 -86 -87 -146.5t-161 -60.5z" />
    <glyph glyph-name="dvKHx" horiz-adv-x="1368" 
d="M444 -530q-88 0 -137.5 60t-34.5 146q15 89 86.5 151t159.5 62q89 0 139 -61.5t35 -151.5q-15 -86 -87 -146t-161 -60zM1288 483q69 0 115.5 39.5t58.5 108.5q12 67 -21 106t-102 39t-116.5 -39t-59.5 -106q-12 -69 22 -108.5t103 -39.5zM51 1208l55 308h1833l-53 -308
h-995l-31 -178q-34 -195 -141 -312.5t-260 -144.5l-6 -30q-20 -106 31 -174t167 -68q134 0 215 88q-51 102 -28 242q35 194 188 307t363 113q208 0 319 -113t76 -307q-23 -133 -103.5 -231t-194.5 -146.5t-247 -48.5q-67 0 -125 12q-82 -106 -204.5 -169.5t-276.5 -63.5
q-297 0 -442.5 163t-96.5 441l41 241h45q144 0 220 61t98 191l20 127h-467z" />
    <glyph glyph-name="dvGx" horiz-adv-x="1187" 
d="M49 1208l55 308h1221l-55 -308h-221l-76 -434q-17 -101 -56.5 -183.5t-101 -146t-152.5 -98.5t-204 -35q-102 0 -183 28.5t-135 83.5t-74 140.5t-1 192.5q7 40 14 67h356l-12 -65q-10 -63 3.5 -97t61.5 -34q89 0 111 131l80 450h-631zM354 -213q-88 0 -137.5 60.5
t-34.5 146.5q15 89 86.5 151t159.5 62q89 0 139 -61.5t35 -151.5q-15 -86 -87 -146.5t-161 -60.5z" />
    <glyph glyph-name="dvJx" horiz-adv-x="1148" 
d="M496 184q-225 0 -342.5 134.5t-77.5 353.5l57 321h371l-58 -323q-14 -78 10.5 -120t84.5 -42t97.5 41.5t51.5 120.5l58 323h749l-57 -315h-387l-4 -19q-36 -213 -184 -344t-369 -131zM53 1208l56 308h1478l-53 -308h-1481zM393 -336q-87 0 -137 60t-35 147
q15 89 86.5 151t159.5 62q89 0 139 -61.5t35 -151.5q-15 -86 -87 -146.5t-161 -60.5z" />
    <glyph glyph-name="dvPHx" horiz-adv-x="1409" 
d="M655 612q78 0 129.5 50.5t69.5 130.5l72 415h-348l-68 -389q-20 -93 16.5 -150t128.5 -57zM49 1208l55 308h1952l-55 -308h-705l-45 -262q123 123 316 123q128 0 211 -63.5t111 -171t3 -244.5h-374q11 71 -21 118.5t-104 47.5q-81 0 -135 -54.5t-76 -150.5l-97 -551h-370
l69 393q-111 -90 -266 -90q-144 0 -241 68t-132 184.5t-6 263.5l68 389h-158zM272 -207q-88 0 -137.5 60.5t-34.5 146.5q15 89 86.5 151t159.5 62q89 0 139 -61.5t35 -151.5q-15 -86 -87 -146.5t-161 -60.5z" />
    <glyph glyph-name="dvReph" horiz-adv-x="0" 
d="M-406 1458l31 182q12 68 34 130t63 124t96 106.5t136.5 72.5t180.5 28q210 0 298 -118.5t42 -325.5h-323q15 67 -2 102t-60 35q-51 0 -80 -36t-41 -111l-32 -189h-343z" />
    <glyph glyph-name="dvEyelash" horiz-adv-x="761" 
d="M897 680q-80 -51 -185.5 -81t-213.5 -30q-102 0 -186 25t-149 77t-94 143.5t-12 213.5h353q-11 -101 41 -147.5t145 -46.5q100 0 192 47zM2 1208l51 308h985l-53 -308h-983z" />
    <glyph glyph-name="dvRashtrasign" horiz-adv-x="0" 
d="M-1249 -199l350 367h491l224 -367h-355l-118 226l-201 -226h-391z" />
    <glyph glyph-name="dvK_RA" horiz-adv-x="1955" 
d="M684 0l47 264l-344 -358h-397l272 262q-116 44 -168 156.5t-26 265.5q37 216 175 347.5t341 131.5q194 0 266 -125l47 264h-848l55 308h2014l-54 -308h-813l-45 -258q109 119 283 119q128 0 215 -67t118.5 -177t6.5 -243q-40 -216 -176 -332.5t-324 -116.5q-70 0 -139 17
l49 288q15 -6 41 -6q66 0 115 43t61 115q13 67 -20.5 116.5t-106.5 49.5q-77 0 -125.5 -53t-64.5 -142l-99 -561h-356zM586 420q73 0 126.5 44t71.5 111l7 25q6 67 -32 111.5t-114 44.5t-133 -46.5t-70 -121.5q-14 -75 26 -121.5t118 -46.5z" />
    <glyph glyph-name="dvKH_RA" horiz-adv-x="1984" 
d="M1075 203l-446 -475h-393l2 18l262 260q-235 25 -344 176t-62 406l41 241h45q142 0 219 61.5t99 190.5l20 127h-467l55 308h2040l-53 -308h-178l-211 -1208h-369l51 289q-95 -78 -235 -78q-36 0 -66 6q-2 -2 -7 -6t-7 -6zM1282 492q64 0 108.5 40.5t55.5 102.5
q10 59 -19.5 101t-95.5 42q-62 0 -108 -37.5t-58 -103.5q-11 -69 23 -107t94 -38zM651 301q142 0 223 96q-51 121 -24 275q30 178 156 284.5t292 100.5q139 -3 207 -84l41 235h-655l-31 -178q-34 -195 -141 -312.5t-260 -144.5l-6 -30q-20 -106 31 -174t167 -68z" />
    <glyph glyph-name="dvG_RA" horiz-adv-x="1714" 
d="M1071 0l59 334l-438 -375h-426l920 743l88 506h-225l-50 -284q-17 -101 -56 -183t-101 -145t-153 -98t-204 -35q-103 0 -184 28.5t-134.5 83t-73.5 139.5t-1 193q6 37 14 66h357l-12 -66q-10 -63 3.5 -97t61.5 -34q89 0 111 131l53 301h-629l55 308h1770l-55 -308h-176
l-213 -1208h-361z" />
    <glyph glyph-name="dvGH_RA" horiz-adv-x="1423" 
d="M604 485q99 0 179.5 57.5t109.5 153.5l88 512h-387l-10 -59q-11 -70 18 -106.5t111 -36.5h75l-53 -297h-102q-70 0 -112 -31t-50 -80q-10 -55 27 -84t106 -29zM49 1208l55 308h1481l-55 -308h-176l-211 -1208h-373l55 319l-395 -415h-397l309 295q-134 31 -206 125
t-48 235q21 110 93.5 186t162.5 103v8q-172 55 -133 274l14 78h-176z" />
    <glyph glyph-name="dvNG_RA" horiz-adv-x="1468" 
d="M1227 553q-78 0 -123 54.5t-31 131.5q14 78 78.5 133.5t142.5 55.5q79 0 124.5 -55.5t31.5 -133.5q-14 -77 -79 -131.5t-144 -54.5zM55 1208l54 308h1521l-53 -308h-520l-23 -123h2l-47 -258h-383q-98 0 -112 -69q-6 -35 16 -52.5t63 -17.5h91q183 0 288 -95t72 -278
q-39 -221 -233 -305l180 -297h-355l-118 226l-201 -226h-391l293 307q-96 49 -143.5 133t-32.5 197h368q-7 -60 32 -89.5t101 -29.5q60 0 101.5 27t48.5 72q9 49 -22.5 74.5t-100.5 25.5h-70q-35 0 -69.5 4.5t-74.5 14.5t-73.5 27.5t-65 43.5t-49 62t-26 83t3.5 107
q27 153 145.5 233t284.5 80h121l22 123h-645z" />
    <glyph glyph-name="dvC_RA" horiz-adv-x="1554" 
d="M49 1208l55 308h1612l-55 -308h-178l-211 -1208h-371l55 313q-16 -16 -34 -28l-357 -379h-397l295 282q-125 32 -187.5 124.5t-39.5 228.5q21 125 116 211h-250l52 288h761l-51 -288h-90q-65 0 -116.5 -39.5t-63.5 -104.5q-12 -69 33 -107t125 -38q111 3 184 82.5
t100 216.5l78 446h-1065z" />
    <glyph glyph-name="dvCH_RA" horiz-adv-x="1689" 
d="M754 352q454 0 512 322q12 66 -8 108.5t-66 42.5q-45 0 -79 -36.5t-46 -100.5q-11 -65 -4 -147h-301q-12 87 6 188q24 135 103 221t196 121l25 137h-502l-19 -108q-24 -144 105 -144h41l-53 -294h-33q-75 0 -123 -38t-57 -96q-14 -84 56.5 -130t246.5 -46zM47 1208
l55 308h1749l-55 -308h-362l-27 -139q110 -45 157.5 -153t20.5 -261q-37 -213 -180.5 -362.5t-374.5 -212.5l172 -285h-373l-120 223l-201 -223h-371l266 279q-184 52 -273 166t-56 274q42 210 256 289v6q-170 55 -131 274l22 125h-174z" />
    <glyph glyph-name="dvJ_RA" horiz-adv-x="1773" 
d="M51 1208l53 308h1831l-53 -308h-178l-213 -1208h-344l47 274l-395 -383h-406l856 758l13 58h-226q-56 -176 -186.5 -278.5t-321.5 -102.5q-242 0 -355.5 131t-74.5 344l37 205h371l-35 -195q-14 -78 10 -120t84 -42t98 42t52 120l35 195h563l37 202h-1299z" />
    <glyph glyph-name="dvJH_RA" horiz-adv-x="2000" 
d="M578 688h897l92 520h-508l-33 -190l-35 -191h-385q-97 0 -110 -71q-6 -33 16 -50.5t66 -17.5zM1364 0v2l-256 -242h-369l691 617l6 35h-428q10 -63 -2 -138q-24 -138 -127.5 -223.5t-257.5 -85.5q-140 0 -224 74l-37 -217h-350l92 524h332q-6 -54 24.5 -83.5t90.5 -29.5
q54 0 87.5 25.5t39.5 69.5q8 47 -24.5 74.5t-102.5 27.5q-82 0 -133 2q-63 4 -118.5 25.5t-101 62t-66 109t-5.5 155.5q13 80 53.5 140t99.5 95.5t129.5 53t151.5 17.5h121l20 118h-634l55 308h2042l-56 -308h-178l-213 -1208h-352z" />
    <glyph glyph-name="dvNY_RA" horiz-adv-x="1814" 
d="M51 1208l55 308h1870l-53 -308h-180l-213 -1208h-361l7 37l-226 -227h-372l667 618l10 53h-241q-61 -174 -199 -270t-323 -96q-209 0 -334.5 111.5t-100.5 301.5h349q4 -51 39.5 -77.5t84.5 -26.5q73 0 122.5 49.5t60.5 122.5q13 72 -19 120t-104 48q-49 0 -92.5 -26
t-67.5 -76h-348q44 195 191.5 305t351.5 110q164 0 276 -75t143 -209h254l74 415h-1321z" />
    <glyph glyph-name="dvTT_RA" horiz-adv-x="1318" 
d="M49 1208l53 308h1379l-56 -308h-329l-76 -440h-305q-106 0 -187 -57t-100 -160q-17 -92 33.5 -149.5t152.5 -57.5q106 0 179 61t90 160h352q-29 -164 -119 -286.5t-229 -188.5l172 -283h-354l-115 218h-10l-195 -218h-391l274 289q-123 67 -179 188t-30 279
q40 235 212.5 370t439.5 144l22 131h-684z" />
    <glyph glyph-name="dvTTH_RA" horiz-adv-x="1376" 
d="M629 356q101 0 171.5 60t88.5 157q18 95 -31.5 155t-152.5 60q-100 0 -170.5 -59t-85.5 -154q-17 -97 31.5 -158t148.5 -61zM717 -201l-119 226l-201 -226h-391l299 314q-130 66 -191.5 189t-31.5 288q34 203 167 327.5t322 163.5l23 127h-528l53 308h1429l-55 -308h-535
l-24 -135q83 -23 149 -66.5t112 -108.5t61.5 -149.5t-1.5 -189.5q-29 -163 -126.5 -279.5t-243.5 -175.5l186 -305h-354z" />
    <glyph glyph-name="dvDD_RA" horiz-adv-x="1157" 
d="M55 1208l54 308h1210l-53 -308h-213l-68 -381h-379q-98 0 -112 -69q-6 -35 16 -52.5t63 -17.5h91q183 0 288 -95t72 -278q-39 -221 -238 -309l179 -293h-355l-118 226l-201 -226h-391l295 310q-94 49 -139.5 132t-32.5 195h368q-7 -60 32 -89.5t101 -29.5q60 0 101.5 27
t48.5 72q9 49 -22.5 74.5t-100.5 25.5h-70q-35 0 -69.5 4.5t-74.5 14.5t-73.5 27.5t-65 43.5t-49 62t-26 83t3.5 107q27 153 145.5 233t284.5 80h119l22 123h-643z" />
    <glyph glyph-name="dvDDH_RA" horiz-adv-x="1353" 
d="M53 1208l53 308h1410l-56 -308h-317l-62 -362h-254q-155 0 -269.5 -82t-139.5 -229q-23 -132 42.5 -215.5t227.5 -83.5q105 0 178.5 40.5t87.5 116.5q6 38 -13.5 62t-53.5 24q-33 0 -57 -18.5t-31 -50.5q-4 -12 -4 -35h-260q0 47 6 82q23 135 133 208.5t274 73.5
q166 0 256 -99t62 -257q-26 -140 -118.5 -237.5t-242.5 -141.5l166 -272h-354l-119 225l-201 -225h-391l303 315q-142 75 -207.5 209.5t-35.5 310.5q31 168 130.5 289t242 180.5t313.5 59.5h26l19 112h-744z" />
    <glyph glyph-name="dvNN_RA" horiz-adv-x="1859" 
d="M643 758q53 0 86.5 32.5t42.5 88.5l57 329h-221l-57 -329q-9 -54 16 -87.5t76 -33.5zM59 1208l54 308h1908l-53 -308h-180l-211 -1208h-348l59 332l-459 -436h-419l933 837l84 475h-235l-49 -295q-18 -102 -59 -185.5t-105 -147.5t-157.5 -99t-209.5 -35
q-113 0 -201.5 37t-140.5 100.5t-71.5 148.5t-1.5 181l51 295h-189z" />
    <glyph glyph-name="dvT_RA" horiz-adv-x="1464" 
d="M49 1208l55 308h1522l-55 -308h-176l-213 -1208h-357l56 313l-379 -311h-484l2 14l889 668q-65 78 -186 78q-110 0 -191 -63t-102 -179h-369q36 240 202.5 386.5t414.5 146.5q199 0 307 -113l45 268h-981z" />
    <glyph glyph-name="dvTH_RA" horiz-adv-x="1642" 
d="M1053 362q-34 -46 -97 -92l-514 -407h-454l4 20l409 299q-180 50 -263 198.5t-44 367.5q11 74 39 159h172q174 0 277.5 47.5t124.5 159.5q8 45 -13 76t-63 31q-63 0 -93.5 -54.5t-27.5 -126.5h-332q4 99 40.5 188t100.5 157.5t160 108.5t211 40q196 0 296.5 -116.5
t64.5 -313.5q-34 -201 -190.5 -326.5t-422.5 -132.5q2 -77 63 -129.5t191 -52.5q165 0 291.5 109t161.5 311l110 633h549l-53 -308h-178l-215 -1208h-369z" />
    <glyph glyph-name="dvD_RA" horiz-adv-x="1261" 
d="M57 1208l54 308h1312l-57 -308h-211l-82 -460h-385q-96 0 -160 -48t-77 -131q-13 -76 22 -121t109 -45q69 0 118.5 43t61.5 115h342l-113 -641h-360l49 279q-1 -1 -4 -3t-4 -3l-344 -355h-396l324 309q-107 50 -158 165t-22 284q27 152 117 259.5t220.5 158.5t291.5 51
h53l26 143h-727z" />
    <glyph glyph-name="dvDH_RA" horiz-adv-x="1525" 
d="M934 309l-436 -459h-398l326 312q-172 16 -267 110.5t-67 249.5q11 63 41.5 116t72.5 87.5t84 56.5t85 33l2 8q-99 35 -156 126.5t-33 228.5q29 169 146.5 262.5t288.5 93.5q205 0 292.5 -119t26.5 -321h-270q14 54 -2 92.5t-70 38.5q-39 0 -67 -28t-37 -73
q-17 -81 29.5 -115t129.5 -34h179l-54 -297h-106q-179 0 -199 -113q-10 -57 34 -86.5t134 -29.5q147 0 249 90.5t128 240.5v-2l76 430l53 308h541l-54 -308h-172l-213 -1208h-368l55 315q-4 -4 -4 -6z" />
    <glyph glyph-name="dvN_RA" horiz-adv-x="1806" 
d="M512 422q63 0 110 39.5t58 101.5q11 61 -22 101.5t-95 40.5q-65 0 -113.5 -40.5t-58.5 -103.5q-11 -62 23 -100.5t98 -38.5zM49 1208l55 308h1864l-55 -308h-178l-213 -1208h-332l31 174l-359 -364h-401l803 729l28 166h-338q27 -90 11 -195q-17 -96 -65.5 -173
t-116 -126t-147 -74.5t-163.5 -25.5q-136 0 -239.5 61t-151.5 170t-25 242q27 145 111 243t200.5 141.5t260.5 43.5h719l32 196h-1331z" />
    <glyph glyph-name="dvP_RA" horiz-adv-x="1400" 
d="M664 612q93 0 153 60t76 151l68 385h-383l-66 -370q-16 -101 21 -163.5t131 -62.5zM51 1208l53 308h1459l-54 -308h-180l-211 -1208h-368l73 418l-448 -481h-398l410 399q-153 40 -215 176t-29 326l64 370h-156z" />
    <glyph glyph-name="dvPH_RA" horiz-adv-x="2015" 
d="M655 612q78 0 129.5 50.5t69.5 130.5l72 415h-348l-68 -389q-20 -93 16.5 -150t128.5 -57zM49 1208l55 308h2073l-53 -308h-828l-45 -262q123 123 316 123q127 0 210.5 -63t112.5 -166.5t6 -231.5q-39 -222 -178 -348.5t-327 -126.5q-84 0 -152 23l49 282q36 -8 55 -8
q67 0 115 45.5t60 114.5q11 71 -21 118.5t-104 47.5q-81 0 -135 -54.5t-76 -150.5l-97 -551h-370l71 408l-417 -471h-398l400 407q-144 44 -206 173t-26 302l68 389h-158z" />
    <glyph glyph-name="dvB_RA" horiz-adv-x="1404" 
d="M770 0l39 221l-342 -354h-385l280 266q-162 38 -240 172.5t-46 319.5q36 211 197 339t380 128q181 0 291 -99l37 215h-932l55 308h1465l-56 -308h-176l-211 -1208h-356zM690 856q-89 0 -160 -47l342 -283q22 47 27 80q18 106 -39 178t-170 72zM606 360q87 0 158 46
l-344 282q-22 -46 -27 -82q-21 -111 42 -178.5t171 -67.5z" />
    <glyph glyph-name="dvBH_RA" horiz-adv-x="1824" 
d="M508 446q66 0 106.5 42t51.5 110l14 80h-111q-64 0 -110 -31t-58 -86q-9 -53 21.5 -84t85.5 -31zM461 145q-210 0 -321 113.5t-77 300.5q18 104 70 184.5t127.5 130t166 74.5t191.5 25h115l23 127q17 121 -80 121q-43 0 -72 -29t-37 -74q-4 -20 -4 -59h-360q0 41 6 78
q29 175 163 286t351 111q98 0 169.5 -26t112 -72t63 -109t21 -137.5t-13.5 -157.5l-10 -59h293l94 543h535l-56 -308h-180l-213 -1208h-332l35 193l-453 -386h-401l891 709l29 162h-295l-11 -60q-36 -214 -178.5 -343.5t-361.5 -129.5z" />
    <glyph glyph-name="dvM_RA" horiz-adv-x="1763" 
d="M502 451q67 0 107 41t53 110l14 86h-113q-63 0 -109.5 -33t-56.5 -90q-9 -53 20.5 -83.5t84.5 -30.5zM1315 981l41 227h-254l-41 -227h254zM66 1208l55 308h1821l-56 -308h-178l-215 -1208h-332l35 190l-451 -383h-401l889 709l31 172h-254l-13 -67q-38 -214 -180 -344
t-362 -130q-210 0 -320 114.5t-78 301.5q18 105 70 186.5t128 131.5t166 75t191 25h117l41 227h-704z" />
    <glyph glyph-name="dvY_RA" horiz-adv-x="1564" 
d="M692 455q133 0 224.5 78.5t121.5 205.5l82 469h-262l-24 -137q-66 -353 -375 -399q-14 -94 47.5 -155.5t185.5 -61.5zM51 1208l55 308h1620l-55 -308h-180l-213 -1208h-369l47 272q-20 -16 -32 -24l-478 -377h-448l4 20l399 291q-176 51 -257 194t-46 349q11 63 33 133
h19q84 0 144.5 20.5t97.5 60t57 86.5t32 112l13 71h-443z" />
    <glyph glyph-name="dvL_RA" horiz-adv-x="1875" 
d="M1741 537q-41 -233 -209 -370.5t-424 -131.5q-28 0 -74 4l60 319q20 -4 51 -4q84 0 144 53t77 148q14 81 -19.5 130.5t-105.5 49.5q-81 0 -129 -56.5t-63 -141.5l-11 -56h-305l10 56q7 52 3 96t-35 73t-86 29q-77 0 -127.5 -48.5t-65.5 -131.5q-15 -94 27.5 -147.5
t132.5 -53.5q15 0 47 4l-57 -319q-58 -4 -62 -4q-104 0 -189 27t-141.5 75.5t-92.5 116.5t-42.5 148.5t8.5 172.5q21 126 76.5 222t132 152t163 84t179.5 28q135 0 217.5 -59t112.5 -154h6q97 155 281 199l26 161h-1210l55 308h1936l-56 -308h-362l-37 -211q99 -63 143 -180
t15 -280zM670 -418l350 367h491l224 -367h-355l-118 225l-201 -225h-391z" />
    <glyph glyph-name="dvV_RA" horiz-adv-x="1359" 
d="M594 399q88 0 150.5 55.5t76.5 133.5v10q12 78 -31 131t-131 53q-87 0 -151 -54t-78 -136q-14 -84 31 -138.5t133 -54.5zM1468 1208h-178l-211 -1208h-362l43 248l-338 -342h-395l266 248q-134 48 -192 172.5t-23 302.5q39 207 179 327.5t351 120.5q94 0 165.5 -31.5
t111.5 -91.5l45 254h-881l55 308h1418z" />
    <glyph glyph-name="dvSH_RA" horiz-adv-x="1800" 
d="M692 913l8 -4q134 90 148 187q11 54 -18 93.5t-91 39.5q-58 0 -99 -37t-50 -90q-10 -62 18 -110t84 -79zM1153 0l51 285l-90 47l-434 -359h-434l6 33l606 465l-184 98l-299 -209h-420l6 46l467 319q-216 175 -176 412q31 184 174.5 290.5t359.5 106.5q204 0 319 -116
t85 -283q-19 -109 -72 -192t-162 -171l306 -164l159 908h541l-53 -308h-178l-213 -1208h-365z" />
    <glyph glyph-name="dvSS_RA" horiz-adv-x="1439" 
d="M664 586q75 0 133.5 33t93.5 90l-371 258l-24 -140q-18 -107 24.5 -174t143.5 -67zM952 938l47 270h-432zM49 1208l55 308h1493l-55 -308h-180l-211 -1208h-363l68 387q-10 -9 -27 -20l-454 -430h-398l414 360q-155 49 -220.5 194.5t-29.5 346.5l66 370h-158z" />
    <glyph glyph-name="dvS_RA" horiz-adv-x="1902" 
d="M958 1087q-17 -106 -69 -202h532l58 323h-500zM51 1208l53 308h1952l-53 -308h-172l-213 -1208h-318l41 238l-348 -375h-348l723 717l4 20h-936l-33 -190q-7 -50 11 -82.5t63 -32.5q90 0 113 133h315q-19 -201 -142 -323.5t-321 -122.5q-143 0 -239 60t-132.5 160.5
t-13.5 225.5l74 418h141q79 0 137 17.5t93.5 51.5t55.5 75.5t30 96.5l20 121h-557z" />
    <glyph glyph-name="dvH_RA" horiz-adv-x="1196" 
d="M1018 82q-41 -179 -183 -281t-352 -102q-115 0 -209 39t-154.5 107t-84.5 167t-2 213q45 252 246 377q-114 81 -89 232q21 118 121.5 190t255.5 72h131l21 112h-649l55 308h1253l-53 -308h-254l-20 -112l-47 -260h-349q-94 0 -110 -78q-9 -38 20 -64q50 4 74 4
q191 0 308 -94t110 -242l-174 -178h-328l180 176q-38 62 -131 62q-86 0 -147.5 -61t-81.5 -166q-18 -97 26 -153t125 -56q56 0 101 28t67 68h324z" />
    <glyph glyph-name="dvLL_RA" horiz-adv-x="1937" 
d="M555 395q73 0 128.5 46t68.5 120q12 73 -27.5 120.5t-110.5 47.5q-75 0 -130.5 -47.5t-67.5 -122.5q-12 -74 27 -119t112 -45zM1247 395q74 0 130 45t69 119q12 75 -27 122.5t-112 47.5q-74 0 -129.5 -47.5t-67.5 -120.5q-12 -75 26.5 -120.5t110.5 -45.5zM1395 -160
l-119 226l-201 -226h-391l307 324q-65 53 -100 139h-12q-72 -108 -185 -165.5t-243 -57.5q-98 0 -179 33.5t-136 94.5t-77.5 152.5t-3.5 200.5q26 145 108.5 255.5t197.5 168t245 57.5q267 0 367 -221h8q123 163 297 205l33 182h-1268l55 308h2001l-53 -308h-379l-39 -217
q107 -59 156 -170t22 -260q-23 -130 -90 -230.5t-166 -164.5l199 -326h-354z" />
    <glyph glyph-name="dvKx_RA" horiz-adv-x="2129" 
d="M864 0l47 264l-12 -12l-334 -346h-397l272 262q-116 44 -168 157t-24 265q38 217 174.5 348t339.5 131q192 0 268 -123l45 262h-1024l55 308h2192l-55 -308h-811l-46 -258q109 119 283 119q127 0 213.5 -67t118 -177t6.5 -243q-40 -217 -175.5 -333t-324.5 -116
q-70 0 -139 17l51 288q12 -6 41 -6q65 0 114.5 43t61.5 115q11 67 -22.5 116.5t-104.5 49.5q-72 0 -120 -48t-68 -128l-102 -580h-355zM764 420q79 0 134.5 49t68.5 119l4 22q3 63 -35.5 104.5t-110.5 41.5q-75 0 -132 -46.5t-70 -121.5q-14 -75 24.5 -121.5t116.5 -46.5z
M12 -47q-74 0 -116 51.5t-29 124.5q12 75 72.5 127.5t134.5 52.5q75 0 118 -52.5t29 -127.5q-12 -73 -73 -124.5t-136 -51.5z" />
    <glyph glyph-name="dvKHx_RA" horiz-adv-x="1984" 
d="M1075 203l-446 -475h-393l2 18l262 260q-235 25 -344 176t-62 406l41 241h45q142 0 219 61.5t99 190.5l20 127h-467l55 308h2040l-53 -308h-178l-211 -1208h-369l51 289q-95 -78 -235 -78q-36 0 -66 6q-2 -2 -7 -6t-7 -6zM-12 -317q-74 0 -116.5 51.5t-29.5 124.5
q12 75 72.5 127.5t134.5 52.5q75 0 118 -52.5t30 -127.5q-12 -73 -73 -124.5t-136 -51.5zM1282 492q64 0 108.5 40.5t55.5 102.5q10 59 -19.5 101t-95.5 42q-62 0 -108 -37.5t-58 -103.5q-11 -69 23 -107t94 -38zM651 301q142 0 223 96q-51 121 -24 275q30 178 156 284.5
t292 100.5q139 -3 207 -84l41 235h-655l-31 -178q-34 -195 -141 -312.5t-260 -144.5l-6 -30q-20 -106 31 -174t167 -68z" />
    <glyph glyph-name="dvGx_RA" horiz-adv-x="1714" 
d="M1071 0l59 334l-438 -375h-426l920 743l88 506h-225l-50 -284q-17 -101 -56 -183t-101 -145t-153 -98t-204 -35q-103 0 -184 28.5t-134.5 83t-73.5 139.5t-1 193q6 37 14 66h357l-12 -66q-10 -63 3.5 -97t61.5 -34q89 0 111 131l53 301h-629l55 308h1770l-55 -308h-176
l-213 -1208h-361zM84 12q-74 0 -116 51.5t-29 124.5q12 75 72.5 128t133.5 53q75 0 118.5 -53t29.5 -128q-12 -73 -73 -124.5t-136 -51.5z" />
    <glyph glyph-name="dvJx_RA" horiz-adv-x="1773" 
d="M51 1208l53 308h1831l-53 -308h-178l-213 -1208h-344l47 274l-395 -383h-406l856 758l13 58h-226q-56 -176 -186.5 -278.5t-321.5 -102.5q-242 0 -355.5 131t-74.5 344l37 205h371l-35 -195q-14 -78 10 -120t84 -42t98 42t52 120l35 195h563l37 202h-1299zM145 -104
q-74 0 -116 51.5t-29 124.5q12 75 72.5 127.5t134.5 52.5q75 0 118 -52.5t29 -127.5q-12 -73 -73 -124.5t-136 -51.5z" />
    <glyph glyph-name="dvPHx_RA" horiz-adv-x="2197" 
d="M836 612q85 0 137 58t65 147l2 -2l68 393h-350l-68 -389q-20 -93 17 -150t129 -57zM45 1208l55 308h2259l-55 -308h-827l-45 -262q123 123 317 123q96 0 168 -36.5t111 -99.5t53.5 -147t-4.5 -178q-39 -222 -177.5 -348.5t-326.5 -126.5q-84 0 -154 23l49 282
q36 -8 58 -8q67 0 113.5 45t60.5 115q11 71 -22 118.5t-105 47.5q-84 0 -139.5 -61t-73.5 -165v5l-94 -535h-369l72 408l-420 -471h-395l397 407q-142 44 -204 173t-28 302l70 389h-344zM63 78q-74 0 -116 51.5t-29 124.5q12 75 72.5 127.5t134.5 52.5q75 0 118 -52.5
t29 -127.5q-12 -73 -73 -124.5t-136 -51.5z" />
    <glyph glyph-name="dvK_R" horiz-adv-x="1415" 
d="M684 0l47 264l-344 -358h-397l274 262q-117 43 -169.5 155.5t-26.5 266.5q37 216 175 347.5t341 131.5q194 0 266 -125l47 264h-848l55 308h1893l-55 -308h-691l-45 -258q109 119 283 119q128 0 215 -66.5t118.5 -175t6.5 -237.5h-373q13 67 -20.5 116.5t-106.5 49.5
q-77 0 -125.5 -53t-64.5 -142l-99 -561h-356zM586 420q73 0 126.5 44t71.5 111l7 25q6 67 -32 111.5t-114 44.5t-133 -46.5t-70 -121.5q-14 -75 26 -121.5t118 -46.5z" />
    <glyph glyph-name="dvKH_R" horiz-adv-x="1368" 
d="M1288 483q69 0 115.5 39.5t58.5 108.5q12 67 -21 106t-102 39t-116.5 -39t-59.5 -106q-12 -69 22 -108.5t103 -39.5zM51 1208l55 308h1833l-53 -308h-995l-31 -178q-34 -195 -141 -312.5t-260 -144.5l-6 -30q-20 -106 31 -174t167 -68q134 0 215 88q-51 102 -28 242
q35 194 188 307t363 113q208 0 319 -113t76 -307q-23 -133 -103.5 -231t-194.5 -146.5t-247 -48.5q-67 0 -125 12q-72 -92 -162 -145l-321 -344h-395l4 18l249 250q-227 37 -332.5 193.5t-62.5 398.5l41 241h45q144 0 220 61t98 191l20 127h-467z" />
    <glyph glyph-name="dvG_R" horiz-adv-x="1161" 
d="M266 -41l1012 819l-66 -377l-520 -442h-426zM51 1208l55 308h1303l-55 -308h-305l-50 -284q-17 -101 -56 -183t-101 -145t-153 -98t-204 -35q-103 0 -184 28.5t-134.5 83t-73.5 139.5t-1 193q6 37 14 66h357l-12 -66q-10 -63 3.5 -97t61.5 -34q89 0 111 131l53 301h-629z
" />
    <glyph glyph-name="dvGH_R" horiz-adv-x="776" 
d="M49 1208l55 308h1248l-56 -308h-704l-10 -59q-11 -70 18 -106.5t111 -36.5h75l-53 -297h-104q-69 0 -110 -30.5t-50 -80.5q-9 -55 28.5 -84t106.5 -29q124 0 199.5 67.5t95.5 174.5h313q-43 -232 -215 -381l-422 -442h-393l297 284q-211 15 -314.5 118.5t-74.5 264.5
q19 110 89.5 180.5t162.5 96.5l2 8q-80 25 -117.5 92t-15.5 182l12 78h-174z" />
    <glyph glyph-name="dvNG_R" horiz-adv-x="1468" 
d="M428 -827l-188 471h366l199 -471h-377zM1227 553q-78 0 -123 54.5t-31 131.5q14 78 78.5 133.5t142.5 55.5q79 0 124.5 -55.5t31.5 -133.5q-14 -77 -79 -131.5t-144 -54.5zM55 1208l54 308h1521l-53 -308h-520l-23 -123h2l-47 -258h-383q-98 0 -112 -69q-6 -35 16 -52.5
t63 -17.5h91q183 0 288 -95t72 -278q-39 -221 -233 -305l180 -297h-355l-118 226l-201 -226h-391l293 307q-96 49 -143.5 133t-32.5 197h368q-7 -60 32 -89.5t101 -29.5q60 0 101.5 27t48.5 72q9 49 -22.5 74.5t-100.5 25.5h-70q-35 0 -69.5 4.5t-74.5 14.5t-73.5 27.5
t-65 43.5t-49 62t-26 83t3.5 107q27 153 145.5 233t284.5 80h121l22 123h-645z" />
    <glyph glyph-name="dvC_R" horiz-adv-x="911" 
d="M49 1208l55 308h1383l-53 -308h-1385zM102 752l52 288h761l-51 -288h-90q-65 0 -116.5 -39.5t-63.5 -104.5q-12 -69 33 -107t125 -38q112 3 184.5 83t97.5 218h320q-48 -289 -230 -445l-387 -413h-397l262 252q-197 12 -296.5 110t-69.5 273q21 125 116 211h-250z" />
    <glyph glyph-name="dvCH_R" horiz-adv-x="1689" 
d="M47 1208l55 308h1749l-55 -308h-1206l-19 -108q-24 -144 105 -144h41l-53 -294h-33q-75 0 -123 -38t-57 -96q-14 -84 56.5 -130t246.5 -46q454 0 512 322q12 66 -8 108.5t-66 42.5q-45 0 -79 -36.5t-46 -100.5q-11 -65 -4 -147h-301q-12 87 6 188q22 123 93.5 208.5
t168.5 123t213 37.5q192 0 285.5 -119.5t56.5 -323.5q-37 -213 -180.5 -362.5t-374.5 -212.5l172 -285h-373l-120 223l-201 -223h-371l266 279q-184 52 -273 166t-56 274q42 210 256 289v6q-170 55 -131 274l22 125h-174z" />
    <glyph glyph-name="dvJ_R" horiz-adv-x="1132" 
d="M53 1208l53 308h1481l-53 -308h-1481zM801 -109h-406l920 816h-279q-56 -176 -186.5 -278.5t-321.5 -102.5q-242 0 -355.5 131t-74.5 344l37 205h371l-35 -195q-14 -78 10 -120t84 -42t98 42t52 120l35 195h747l-29 -164l-65 -369z" />
    <glyph glyph-name="dvJH_R" horiz-adv-x="1142" 
d="M66 1208l55 308h1589l-55 -308h-596l-33 -190l-35 -191h-385q-97 0 -110 -71q-6 -33 16 -50.5t66 -17.5h983l-48 -276l-53 -314l-356 -338h-371l731 652h-456q10 -63 -2 -138q-24 -138 -127.5 -223.5t-257.5 -85.5q-140 0 -224 74l-37 -217h-350l92 524h332
q-6 -54 24.5 -83.5t90.5 -29.5q54 0 87.5 25.5t39.5 69.5q8 47 -24.5 74.5t-102.5 27.5q-82 0 -133 2q-63 4 -118.5 25.5t-101 62t-66 109t-5.5 155.5q13 80 53.5 140t99.5 95.5t129.5 53t151.5 17.5h121l20 118h-634z" />
    <glyph glyph-name="dvNY_R" horiz-adv-x="1085" 
d="M492 115q-209 0 -334.5 111.5t-100.5 301.5h349q4 -51 39.5 -77.5t84.5 -26.5q73 0 122.5 49.5t60.5 122.5q13 72 -19 120t-104 48q-49 0 -92.5 -26t-67.5 -76h-348q44 195 191.5 305t351.5 110q164 0 276 -75t143 -209h418l-30 -183l-68 -387l-414 -413h-372l716 671
h-280q-61 -174 -199 -270t-323 -96zM51 1208l55 308h1485l-53 -308h-1487z" />
    <glyph glyph-name="dvTT_R" horiz-adv-x="1318" 
d="M528 -733l-186 473h367l196 -473h-377zM49 1208l53 308h1379l-56 -308h-329l-76 -440h-305q-106 0 -187 -57t-100 -160q-17 -92 33.5 -149.5t152.5 -57.5q106 0 179 61t90 160h352q-29 -164 -119 -286.5t-229 -188.5l172 -283h-354l-115 218h-10l-195 -218h-391l274 289
q-123 67 -179 188t-30 279q40 235 212.5 370t439.5 144l22 131h-684z" />
    <glyph glyph-name="dvTTH_R" horiz-adv-x="1376" 
d="M535 -743l-187 473h367l194 -473h-374zM629 356q101 0 171.5 60t88.5 157q18 95 -31.5 155t-152.5 60q-100 0 -170.5 -59t-85.5 -154q-17 -97 31.5 -158t148.5 -61zM717 -201l-119 226l-201 -226h-391l299 314q-130 66 -191.5 189t-31.5 288q34 203 167 327.5t322 163.5
l23 127h-528l53 308h1429l-55 -308h-535l-24 -135q83 -23 149 -66.5t112 -108.5t61.5 -149.5t-1.5 -189.5q-29 -163 -126.5 -279.5t-243.5 -175.5l186 -305h-354z" />
    <glyph glyph-name="dvDD_R" horiz-adv-x="1157" 
d="M424 -827l-188 471h366l197 -471h-375zM55 1208l54 308h1210l-53 -308h-213l-68 -381h-379q-98 0 -112 -69q-6 -35 16 -52.5t63 -17.5h91q183 0 288 -95t72 -278q-39 -221 -238 -309l179 -293h-355l-118 226l-201 -226h-391l295 310q-94 49 -139.5 132t-32.5 195h368
q-7 -60 32 -89.5t101 -29.5q60 0 101.5 27t48.5 72q9 49 -22.5 74.5t-100.5 25.5h-70q-35 0 -69.5 4.5t-74.5 14.5t-73.5 27.5t-65 43.5t-49 62t-26 83t3.5 107q27 153 145.5 233t284.5 80h119l22 123h-643z" />
    <glyph glyph-name="dvDDH_R" horiz-adv-x="1353" 
d="M541 -811l-187 473h367l194 -473h-374zM53 1208l53 308h1410l-56 -308h-317l-62 -362h-254q-155 0 -269.5 -82t-139.5 -229q-23 -132 42.5 -215.5t227.5 -83.5q105 0 178.5 40.5t87.5 116.5q6 38 -13.5 62t-53.5 24q-33 0 -57 -18.5t-31 -50.5q-4 -12 -4 -35h-260
q0 47 6 82q23 135 133 208.5t274 73.5q166 0 256 -99t62 -257q-26 -140 -118.5 -237.5t-242.5 -141.5l166 -272h-354l-119 225l-201 -225h-391l303 315q-142 75 -207.5 209.5t-35.5 310.5q31 168 130.5 289t242 180.5t313.5 59.5h26l19 112h-744z" />
    <glyph glyph-name="dvNN_R" horiz-adv-x="1210" 
d="M410 -104l1001 895l-72 -412l-510 -483h-419zM59 1208l54 308h1427l-55 -308h-293l-49 -295q-18 -102 -59 -185.5t-105 -147.5t-157.5 -99t-209.5 -35q-113 0 -201.5 37t-140.5 100.5t-71.5 148.5t-1.5 181l51 295h-189zM643 758q53 0 86.5 32.5t42.5 88.5l57 329h-221
l-57 -329q-9 -54 16 -87.5t76 -33.5z" />
    <glyph glyph-name="dvT_R" horiz-adv-x="833" 
d="M61 520q19 112 76.5 209.5t145 170.5t209 115t260.5 42q137 0 249 -47.5t185.5 -142.5t87.5 -226l-772 -639h-486l2 14l891 668q-65 78 -186 78q-110 0 -191 -63t-102 -179h-369zM49 1208l55 308h1326l-56 -308h-1325z" />
    <glyph glyph-name="dvTH_R" horiz-adv-x="974" 
d="M1436 745q-45 -267 -254 -426h2l-621 -487h-457l5 21l430 313q-139 23 -240 89t-151.5 163.5t-57.5 223t41 265.5h172q86 0 152.5 10.5t120.5 34t87 64.5t42 100q8 44 -13 74.5t-61 30.5q-63 0 -94.5 -52.5t-28.5 -128.5h-332q4 103 42.5 193.5t105 157t161 105
t205.5 38.5q194 0 294 -116.5t65 -313.5q-34 -201 -191 -326.5t-422 -132.5q4 -90 83 -136t192 -46q155 0 268.5 76t136.5 206h318z" />
    <glyph glyph-name="dvD_R" horiz-adv-x="1261" 
d="M799 -653l-187 471h367l195 -471h-375zM57 1208l54 308h1312l-57 -308h-211l-82 -460h-385q-96 0 -160 -48t-77 -131q-13 -76 22 -121t109 -45q69 0 118.5 43t61.5 115h342l-113 -641h-360l49 279q-1 -1 -4 -3t-4 -3l-344 -355h-396l324 309q-107 50 -158 165t-22 284
q27 152 117 259.5t220.5 158.5t291.5 51h53l26 143h-727z" />
    <glyph glyph-name="dvDH_R" horiz-adv-x="872" 
d="M592 143q-159 0 -277.5 42.5t-180.5 133.5t-38 218q11 63 41 114t71 83t82 51.5t85 29.5l2 8q-99 34 -156 125.5t-33 229.5q29 169 146 262.5t287 93.5q205 0 292.5 -119t26.5 -321h-270q7 33 6 62t-20.5 49t-55.5 20q-40 0 -68.5 -28t-37.5 -73q-7 -44 0 -72.5t33 -45.5
t56.5 -24t69.5 -7h178l-53 -297h-106q-175 0 -197 -115q-6 -32 7.5 -55.5t42.5 -35.5t62.5 -17.5t74.5 -5.5q147 0 233 60t104 161h324q-39 -213 -172 -340l-455 -480h-397l309 293h-16z" />
    <glyph glyph-name="dvN_R" horiz-adv-x="1056" 
d="M473 111q-208 0 -330 135.5t-86 337.5q27 145 111 243t200.5 141.5t260.5 43.5h827l-53 -307h-449q30 -89 11 -195q-24 -127 -100 -219.5t-177.5 -136t-214.5 -43.5zM512 422q63 0 111 40t57 101q11 61 -22 101.5t-95 40.5q-65 0 -113.5 -40.5t-58.5 -103.5
q-11 -62 23 -100.5t98 -38.5zM463 -190l932 843l-66 -374l-465 -469h-401zM49 1208l55 308h1442l-53 -308h-1444z" />
    <glyph glyph-name="dvP_R" horiz-adv-x="714" 
d="M51 1208l53 308h1215l-53 -308h-688l-68 -370q-18 -101 22 -163.5t140 -62.5q92 0 148.5 61t72.5 154h305q-44 -259 -190 -391l-463 -499h-393l380 372q-144 19 -241.5 99.5t-134 200t-9.5 257.5l60 342h-156z" />
    <glyph glyph-name="dvPH_R" horiz-adv-x="1409" 
d="M655 612q78 0 129.5 50.5t69.5 130.5l72 415h-348l-68 -389q-20 -93 16.5 -150t128.5 -57zM49 1208l55 308h1954l-55 -308h-707l-45 -262q123 123 316 123q128 0 211 -64t112 -171.5t6 -243.5h-378q11 71 -21 118.5t-104 47.5q-81 0 -135 -54.5t-76 -150.5l-97 -551h-370
l71 408l-417 -471h-398l400 407q-144 44 -206 173t-26 302l68 389h-158z" />
    <glyph glyph-name="dvB_R" horiz-adv-x="776" 
d="M49 1208l55 308h1233l-53 -308h-1235zM616 -133h-366l244 233q-224 17 -339 158.5t-85 347.5q30 212 196.5 350t423.5 138q130 0 230.5 -40t157.5 -107.5t80.5 -155t8.5 -185.5q-32 -210 -176 -348zM672 846q-83 0 -162 -47l342 -285q19 34 29 82q19 106 -38 178t-171 72
zM586 350q87 0 157 45l-344 283q-21 -48 -26 -82q-20 -110 43 -178t170 -68z" />
    <glyph glyph-name="dvBH_R" horiz-adv-x="1126" 
d="M508 446q66 0 106.5 42t51.5 110l14 80h-111q-64 0 -110 -31t-58 -86q-9 -53 21.5 -84t85.5 -31zM461 145q-210 0 -321 113.5t-77 300.5q18 104 70 184.5t127.5 130t166 74.5t191.5 25h115l23 127q17 121 -80 121q-43 0 -72 -29t-37 -74q-4 -20 -4 -59h-360q0 41 6 78
q29 175 163 286t351 111q98 0 169.5 -26t112 -72t63 -109t21 -137.5t-13.5 -157.5l-10 -59h426l-51 -295h-428l-11 -60q-36 -214 -178.5 -343.5t-361.5 -129.5zM387 -193l1045 832l-58 -332l-586 -500h-401z" />
    <glyph glyph-name="dvM_R" horiz-adv-x="1110" 
d="M502 451q67 0 107 41t53 110l14 86h-113q-63 0 -109.5 -33t-56.5 -90q-9 -53 20.5 -83.5t84.5 -30.5zM344 -193l1096 873l-60 -330l-635 -543h-401zM66 1208l55 308h1470l-53 -308h-436l-41 -227h432l-51 -293h-432l-13 -67q-38 -214 -180 -344t-362 -130
q-210 0 -320 114.5t-78 301.5q18 105 70 186.5t128 131.5t166 75t191 25h117l41 227h-704z" />
    <glyph glyph-name="dvY_R" horiz-adv-x="872" 
d="M51 1208l55 308h1410l-54 -308h-606l-25 -145q-58 -345 -374 -391q-10 -103 60 -160t188 -57q134 0 222 73.5t107 186.5h340q-22 -139 -91 -254.5t-181 -192.5l-502 -397h-448l4 20l366 267q-232 36 -349.5 185t-74.5 382q11 63 33 133h19q84 0 145 19.5t98 58t57 85
t31 109.5l13 78h-443z" />
    </font>
</defs>
</svg>
